M48
; DRILL file {KiCad 8.0.6} date 2025-03-22T17:54:38-0500
; FORMAT={-:-/ absolute / inch / decimal}
; #@! TF.CreationDate,2025-03-22T17:54:38-05:00
; #@! TF.GenerationSoftware,Kicad,Pcbnew,8.0.6
; #@! TF.FileFunction,Plated,1,2,PTH
FMAT,2
INCH
; #@! TA.AperFunction,Plated,PTH,ViaDrill
T1C0.0118
; #@! TA.AperFunction,Plated,PTH,ComponentDrill
T2C0.0591
%
G90
G05
T1
X3.42Y-9.68
X5.29Y-9.68
X7.11Y-9.69
X9.0Y-9.72
X10.88Y-9.77
X12.3303Y-9.7597
X12.415Y-9.505
X12.4838Y-2.1962
X12.63Y-9.54
X12.69Y-9.18
X12.75Y-9.58
X12.81Y-9.22
X12.88Y-9.62
X12.91Y-9.15
X12.98Y-9.66
X13.08Y-9.8
X13.165Y-8.765
X13.22Y-9.1
X13.22Y-9.78
T2
X3.0668Y-2.8356
X3.0668Y-4.7384
X3.0668Y-6.6413
X3.0668Y-8.5442
X3.0668Y-10.447
X3.1668Y-3.0856
X3.1668Y-4.9884
X3.1668Y-6.8913
X3.1668Y-8.7942
X3.1668Y-10.697
X4.9509Y-2.8356
X4.9509Y-4.7384
X4.9509Y-6.6413
X4.9509Y-8.5442
X4.9509Y-10.447
X5.0509Y-3.0856
X5.0509Y-4.9884
X5.0509Y-6.8913
X5.0509Y-8.7942
X5.0509Y-10.697
X6.8351Y-2.8356
X6.8351Y-4.7384
X6.8351Y-6.6413
X6.8351Y-8.5442
X6.8351Y-10.447
X6.9351Y-3.0856
X6.9351Y-4.9884
X6.9351Y-6.8913
X6.9351Y-8.7942
X6.9351Y-10.697
X8.7192Y-2.8356
X8.7192Y-4.7384
X8.7192Y-6.6413
X8.7192Y-8.5442
X8.7192Y-10.447
X8.8192Y-3.0856
X8.8192Y-4.9884
X8.8192Y-6.8913
X8.8192Y-8.7942
X8.8192Y-10.697
X10.6033Y-2.8356
X10.6033Y-4.7384
X10.6033Y-6.6413
X10.6033Y-8.5442
X10.6033Y-10.447
X10.7033Y-3.0856
X10.7033Y-4.9884
X10.7033Y-6.8913
X10.7033Y-8.7942
X10.7033Y-10.697
X12.4875Y-2.8356
X12.4875Y-4.7384
X12.4875Y-6.6413
X12.4875Y-8.5442
X12.4875Y-10.447
X12.5875Y-3.0856
X12.5875Y-4.9884
X12.5875Y-6.8913
X12.5875Y-8.7942
X12.5875Y-10.697
M30
