%TF.GenerationSoftware,KiCad,Pcbnew,8.0.6*%
%TF.CreationDate,2025-03-22T17:54:38-05:00*%
%TF.ProjectId,Smartboard,536d6172-7462-46f6-9172-642e6b696361,rev?*%
%TF.SameCoordinates,Original*%
%TF.FileFunction,Copper,L2,Bot*%
%TF.FilePolarity,Positive*%
%FSLAX46Y46*%
G04 Gerber Fmt 4.6, Leading zero omitted, Abs format (unit mm)*
G04 Created by KiCad (PCBNEW 8.0.6) date 2025-03-22 17:54:38*
%MOMM*%
%LPD*%
G01*
G04 APERTURE LIST*
G04 Aperture macros list*
%AMRoundRect*
0 Rectangle with rounded corners*
0 $1 Rounding radius*
0 $2 $3 $4 $5 $6 $7 $8 $9 X,Y pos of 4 corners*
0 Add a 4 corners polygon primitive as box body*
4,1,4,$2,$3,$4,$5,$6,$7,$8,$9,$2,$3,0*
0 Add four circle primitives for the rounded corners*
1,1,$1+$1,$2,$3*
1,1,$1+$1,$4,$5*
1,1,$1+$1,$6,$7*
1,1,$1+$1,$8,$9*
0 Add four rect primitives between the rounded corners*
20,1,$1+$1,$2,$3,$4,$5,0*
20,1,$1+$1,$4,$5,$6,$7,0*
20,1,$1+$1,$6,$7,$8,$9,0*
20,1,$1+$1,$8,$9,$2,$3,0*%
G04 Aperture macros list end*
%TA.AperFunction,ComponentPad*%
%ADD10C,2.200000*%
%TD*%
%TA.AperFunction,SMDPad,CuDef*%
%ADD11RoundRect,0.500000X-0.500000X0.875000X-0.500000X-0.875000X0.500000X-0.875000X0.500000X0.875000X0*%
%TD*%
%TA.AperFunction,SMDPad,CuDef*%
%ADD12RoundRect,0.275000X0.275000X-0.975000X0.275000X0.975000X-0.275000X0.975000X-0.275000X-0.975000X0*%
%TD*%
%TA.AperFunction,SMDPad,CuDef*%
%ADD13RoundRect,0.275000X0.975000X0.275000X-0.975000X0.275000X-0.975000X-0.275000X0.975000X-0.275000X0*%
%TD*%
%TA.AperFunction,SMDPad,CuDef*%
%ADD14C,1.700000*%
%TD*%
%TA.AperFunction,ViaPad*%
%ADD15C,0.600000*%
%TD*%
%TA.AperFunction,Conductor*%
%ADD16C,0.300000*%
%TD*%
G04 APERTURE END LIST*
D10*
%TO.P,SW8,1*%
%TO.N,Net-(D8-A)*%
X125754000Y-120356000D03*
%TO.P,SW8,2*%
%TO.N,Net-(U1-PA8_A4_D4_SDA)*%
X128294000Y-126706000D03*
%TD*%
%TO.P,SW27,1*%
%TO.N,Net-(D27-A)*%
X173611000Y-265355000D03*
%TO.P,SW27,2*%
%TO.N,Net-(U1-PA11_A3_D3)*%
X176151000Y-271705000D03*
%TD*%
%TO.P,SW17,1*%
%TO.N,Net-(D17-A)*%
X269325000Y-168689000D03*
%TO.P,SW17,2*%
%TO.N,Net-(U1-PA4_A1_D1)*%
X271865000Y-175039000D03*
%TD*%
%TO.P,SW30,1*%
%TO.N,Net-(D30-A)*%
X317182000Y-265355000D03*
%TO.P,SW30,2*%
%TO.N,Net-(U1-PA02_A0_D0)*%
X319722000Y-271705000D03*
%TD*%
%TO.P,SW20,1*%
%TO.N,Net-(D20-A)*%
X125754000Y-217022000D03*
%TO.P,SW20,2*%
%TO.N,Net-(U1-PA8_A4_D4_SDA)*%
X128294000Y-223372000D03*
%TD*%
%TO.P,SW25,1*%
%TO.N,Net-(D25-A)*%
X77897000Y-265355000D03*
%TO.P,SW25,2*%
%TO.N,Net-(U1-PA9_A5_D5_SCL)*%
X80437000Y-271705000D03*
%TD*%
%TO.P,SW3,1*%
%TO.N,Net-(D3-A)*%
X173611000Y-72023000D03*
%TO.P,SW3,2*%
%TO.N,Net-(U1-PA11_A3_D3)*%
X176151000Y-78373000D03*
%TD*%
%TO.P,SW11,1*%
%TO.N,Net-(D11-A)*%
X269325000Y-120356000D03*
%TO.P,SW11,2*%
%TO.N,Net-(U1-PA4_A1_D1)*%
X271865000Y-126706000D03*
%TD*%
%TO.P,SW18,1*%
%TO.N,Net-(D18-A)*%
X317182000Y-168689000D03*
%TO.P,SW18,2*%
%TO.N,Net-(U1-PA02_A0_D0)*%
X319722000Y-175039000D03*
%TD*%
%TO.P,SW4,1*%
%TO.N,Net-(D4-A)*%
X221468000Y-72023000D03*
%TO.P,SW4,2*%
%TO.N,Net-(U1-PA10_A2_D2)*%
X224008000Y-78373000D03*
%TD*%
%TO.P,SW7,1*%
%TO.N,Net-(D7-A)*%
X77897000Y-120356000D03*
%TO.P,SW7,2*%
%TO.N,Net-(U1-PA9_A5_D5_SCL)*%
X80437000Y-126706000D03*
%TD*%
%TO.P,SW13,1*%
%TO.N,Net-(D13-A)*%
X77897000Y-168689000D03*
%TO.P,SW13,2*%
%TO.N,Net-(U1-PA9_A5_D5_SCL)*%
X80437000Y-175039000D03*
%TD*%
%TO.P,SW14,1*%
%TO.N,Net-(D14-A)*%
X125754000Y-168689000D03*
%TO.P,SW14,2*%
%TO.N,Net-(U1-PA8_A4_D4_SDA)*%
X128294000Y-175039000D03*
%TD*%
%TO.P,SW29,1*%
%TO.N,Net-(D29-A)*%
X269325000Y-265355000D03*
%TO.P,SW29,2*%
%TO.N,Net-(U1-PA4_A1_D1)*%
X271865000Y-271705000D03*
%TD*%
%TO.P,SW26,1*%
%TO.N,Net-(D26-A)*%
X125754000Y-265355000D03*
%TO.P,SW26,2*%
%TO.N,Net-(U1-PA8_A4_D4_SDA)*%
X128294000Y-271705000D03*
%TD*%
%TO.P,SW5,1*%
%TO.N,Net-(D5-A)*%
X269325000Y-72023000D03*
%TO.P,SW5,2*%
%TO.N,Net-(U1-PA4_A1_D1)*%
X271865000Y-78373000D03*
%TD*%
%TO.P,SW12,1*%
%TO.N,Net-(D12-A)*%
X317182000Y-120356000D03*
%TO.P,SW12,2*%
%TO.N,Net-(U1-PA02_A0_D0)*%
X319722000Y-126706000D03*
%TD*%
%TO.P,SW22,1*%
%TO.N,Net-(D22-A)*%
X221468000Y-217022000D03*
%TO.P,SW22,2*%
%TO.N,Net-(U1-PA10_A2_D2)*%
X224008000Y-223372000D03*
%TD*%
%TO.P,SW24,1*%
%TO.N,Net-(D24-A)*%
X317182000Y-217022000D03*
%TO.P,SW24,2*%
%TO.N,Net-(U1-PA02_A0_D0)*%
X319722000Y-223372000D03*
%TD*%
%TO.P,SW6,1*%
%TO.N,Net-(D6-A)*%
X317182000Y-72023000D03*
%TO.P,SW6,2*%
%TO.N,Net-(U1-PA02_A0_D0)*%
X319722000Y-78373000D03*
%TD*%
%TO.P,SW1,1*%
%TO.N,Net-(D1-A)*%
X77897000Y-72023000D03*
%TO.P,SW1,2*%
%TO.N,Net-(U1-PA9_A5_D5_SCL)*%
X80437000Y-78373000D03*
%TD*%
%TO.P,SW19,1*%
%TO.N,Net-(D19-A)*%
X77897000Y-217022000D03*
%TO.P,SW19,2*%
%TO.N,Net-(U1-PA9_A5_D5_SCL)*%
X80437000Y-223372000D03*
%TD*%
%TO.P,SW2,1*%
%TO.N,Net-(D2-A)*%
X125754000Y-72023000D03*
%TO.P,SW2,2*%
%TO.N,Net-(U1-PA8_A4_D4_SDA)*%
X128294000Y-78373000D03*
%TD*%
%TO.P,SW21,1*%
%TO.N,Net-(D21-A)*%
X173611000Y-217022000D03*
%TO.P,SW21,2*%
%TO.N,Net-(U1-PA11_A3_D3)*%
X176151000Y-223372000D03*
%TD*%
%TO.P,SW28,1*%
%TO.N,Net-(D28-A)*%
X221468000Y-265355000D03*
%TO.P,SW28,2*%
%TO.N,Net-(U1-PA10_A2_D2)*%
X224008000Y-271705000D03*
%TD*%
%TO.P,SW9,1*%
%TO.N,Net-(D9-A)*%
X173611000Y-120356000D03*
%TO.P,SW9,2*%
%TO.N,Net-(U1-PA11_A3_D3)*%
X176151000Y-126706000D03*
%TD*%
%TO.P,SW15,1*%
%TO.N,Net-(D15-A)*%
X173611000Y-168689000D03*
%TO.P,SW15,2*%
%TO.N,Net-(U1-PA11_A3_D3)*%
X176151000Y-175039000D03*
%TD*%
%TO.P,SW10,1*%
%TO.N,Net-(D10-A)*%
X221468000Y-120356000D03*
%TO.P,SW10,2*%
%TO.N,Net-(U1-PA10_A2_D2)*%
X224008000Y-126706000D03*
%TD*%
%TO.P,SW23,1*%
%TO.N,Net-(D23-A)*%
X269325000Y-217022000D03*
%TO.P,SW23,2*%
%TO.N,Net-(U1-PA4_A1_D1)*%
X271865000Y-223372000D03*
%TD*%
%TO.P,SW16,1*%
%TO.N,Net-(D16-A)*%
X221468000Y-168689000D03*
%TO.P,SW16,2*%
%TO.N,Net-(U1-PA10_A2_D2)*%
X224008000Y-175039000D03*
%TD*%
D11*
%TO.P,U1,1,5V*%
%TO.N,Net-(U1-PA02_A0_D0)*%
X335626900Y-252966000D03*
%TO.P,U1,2,GND*%
%TO.N,Net-(U1-PA4_A1_D1)*%
X333086900Y-252966000D03*
%TO.P,U1,3,3V3*%
%TO.N,Net-(U1-PA10_A2_D2)*%
X330546900Y-252966000D03*
%TO.P,U1,4,PA6_A10_D10_MOSI*%
%TO.N,Net-(U1-PA11_A3_D3)*%
X328006900Y-252966000D03*
%TO.P,U1,5,PA5_A9_D9_MISO*%
%TO.N,Net-(U1-PA8_A4_D4_SDA)*%
X325466900Y-252966000D03*
%TO.P,U1,6,PA7_A8_D8_SCK*%
%TO.N,Net-(U1-PA9_A5_D5_SCL)*%
X322926900Y-252966000D03*
%TO.P,U1,7,PB09_A7_D7_RX*%
%TO.N,Net-(D19-K)*%
X320386900Y-252966000D03*
%TO.P,U1,8,PB08_A6_D6_TX*%
%TO.N,Net-(D25-K)*%
X320386900Y-236801000D03*
%TO.P,U1,9,PA9_A5_D5_SCL*%
%TO.N,Net-(D13-K)*%
X322926900Y-236801000D03*
%TO.P,U1,10,PA8_A4_D4_SDA*%
%TO.N,Net-(D10-K)*%
X325466900Y-236801000D03*
%TO.P,U1,11,PA11_A3_D3*%
%TO.N,Net-(D1-K)*%
X328006900Y-236801000D03*
%TO.P,U1,12,PA10_A2_D2*%
%TO.N,unconnected-(U1-3V3-Pad12)*%
X330546900Y-236801000D03*
%TO.P,U1,13,PA4_A1_D1*%
%TO.N,unconnected-(U1-GND-Pad13)*%
X333086900Y-236801000D03*
%TO.P,U1,14,PA02_A0_D0*%
%TO.N,unconnected-(U1-5V-Pad14)*%
X335626900Y-236801000D03*
D12*
%TO.P,U1,15,BAT*%
%TO.N,unconnected-(U1-BAT-Pad15)*%
X328320400Y-240411000D03*
%TO.P,U1,16,GND*%
%TO.N,unconnected-(U1-GND-Pad16)*%
X330225400Y-240411000D03*
D13*
%TO.P,U1,17,SWDIO*%
%TO.N,unconnected-(U1-SWDIO-Pad17)*%
X318770000Y-248666000D03*
%TO.P,U1,18,SWDCLK*%
%TO.N,unconnected-(U1-SWDCLK-Pad18)*%
X318770000Y-250571000D03*
D14*
%TO.P,U1,19,RST*%
%TO.N,unconnected-(U1-RST-Pad19)*%
X336575400Y-243586000D03*
%TO.P,U1,20,GND*%
%TO.N,unconnected-(U1-GND-Pad20)*%
X336575400Y-246126000D03*
%TO.P,U1,21*%
%TO.N,N/C*%
X334035400Y-243586000D03*
%TO.P,U1,22*%
X334035400Y-246126000D03*
%TD*%
D15*
%TO.N,Net-(D1-K)*%
X317089000Y-55783000D03*
X327914000Y-232410000D03*
X334391000Y-222631000D03*
%TO.N,Net-(D10-K)*%
X325374000Y-234188000D03*
%TO.N,Net-(D13-K)*%
X322326000Y-233172000D03*
%TO.N,Net-(D19-K)*%
X315341000Y-241427000D03*
%TO.N,Net-(D25-K)*%
X313189500Y-247896500D03*
%TO.N,Net-(U1-PA9_A5_D5_SCL)*%
X320802000Y-242316000D03*
X86868000Y-245872000D03*
%TO.N,Net-(U1-PA8_A4_D4_SDA)*%
X323850000Y-243332000D03*
X134366000Y-245872000D03*
%TO.N,Net-(U1-PA11_A3_D3)*%
X180594000Y-246126000D03*
X327152000Y-244348000D03*
%TO.N,Net-(U1-PA10_A2_D2)*%
X329692000Y-245364000D03*
X228600000Y-246888000D03*
%TO.N,Net-(U1-PA4_A1_D1)*%
X276352000Y-248158000D03*
X332232000Y-248920000D03*
%TO.N,Net-(U1-PA02_A0_D0)*%
X335788000Y-231140000D03*
X335788000Y-248412000D03*
%TD*%
D16*
%TO.N,Net-(D1-K)*%
X327914000Y-232410000D02*
X327914000Y-236708100D01*
X328006900Y-236801000D02*
X328006900Y-237651100D01*
X327914000Y-236708100D02*
X328006900Y-236801000D01*
X337566000Y-75438000D02*
X317911000Y-55783000D01*
X317911000Y-55783000D02*
X317089000Y-55783000D01*
X334391000Y-222631000D02*
X337566000Y-219456000D01*
X337566000Y-219456000D02*
X337566000Y-75438000D01*
%TO.N,Net-(D10-K)*%
X325374000Y-234188000D02*
X325374000Y-236708100D01*
X325374000Y-236708100D02*
X325466900Y-236801000D01*
%TO.N,Net-(D13-K)*%
X322926900Y-233772900D02*
X322326000Y-233172000D01*
X322926900Y-236801000D02*
X322926900Y-233772900D01*
%TO.N,Net-(D19-K)*%
X320802000Y-246888000D02*
X320802000Y-251714000D01*
X315341000Y-241427000D02*
X320802000Y-246888000D01*
X320386900Y-252129100D02*
X320386900Y-252966000D01*
X320802000Y-251714000D02*
X320386900Y-252129100D01*
%TO.N,Net-(D25-K)*%
X312420000Y-247127000D02*
X312420000Y-241300000D01*
X313189500Y-247896500D02*
X312420000Y-247127000D01*
X316919000Y-236801000D02*
X320386900Y-236801000D01*
X312420000Y-241300000D02*
X316919000Y-236801000D01*
%TO.N,Net-(U1-PA9_A5_D5_SCL)*%
X84836000Y-182118000D02*
X84836000Y-211328000D01*
X84836000Y-114554000D02*
X80437000Y-118953000D01*
X80437000Y-126706000D02*
X80437000Y-129205000D01*
X84836000Y-211328000D02*
X80437000Y-215727000D01*
X80437000Y-78373000D02*
X80437000Y-80945000D01*
X80437000Y-118953000D02*
X80437000Y-126706000D01*
X80437000Y-215727000D02*
X80437000Y-223372000D01*
X84836000Y-85344000D02*
X84836000Y-114554000D01*
X84836000Y-162814000D02*
X80437000Y-167213000D01*
X80437000Y-177719000D02*
X84836000Y-182118000D01*
X80437000Y-175039000D02*
X80437000Y-177719000D01*
X84836000Y-133604000D02*
X84836000Y-162814000D01*
X86868000Y-245872000D02*
X85090000Y-247650000D01*
X322926900Y-252966000D02*
X322926900Y-244440900D01*
X80437000Y-167213000D02*
X80437000Y-175039000D01*
X80437000Y-80945000D02*
X84836000Y-85344000D01*
X322926900Y-244440900D02*
X320802000Y-242316000D01*
X80437000Y-264241000D02*
X80437000Y-271705000D01*
X84836000Y-230378000D02*
X84836000Y-247650000D01*
X84836000Y-247650000D02*
X84836000Y-259842000D01*
X80437000Y-129205000D02*
X84836000Y-133604000D01*
X85090000Y-247650000D02*
X84836000Y-247650000D01*
X80437000Y-223372000D02*
X80437000Y-225979000D01*
X84836000Y-259842000D02*
X80437000Y-264241000D01*
X80437000Y-225979000D02*
X84836000Y-230378000D01*
%TO.N,Net-(U1-PA8_A4_D4_SDA)*%
X128294000Y-167616000D02*
X128294000Y-175039000D01*
X132842000Y-211582000D02*
X128294000Y-216130000D01*
X132842000Y-247396000D02*
X132842000Y-259842000D01*
X128294000Y-177316000D02*
X132842000Y-181864000D01*
X128294000Y-225830000D02*
X132842000Y-230378000D01*
X128294000Y-80796000D02*
X132842000Y-85344000D01*
X128294000Y-78373000D02*
X128294000Y-80796000D01*
X325628000Y-252804900D02*
X325466900Y-252966000D01*
X325466900Y-244948900D02*
X323850000Y-243332000D01*
X132842000Y-85344000D02*
X132842000Y-114554000D01*
X128294000Y-175039000D02*
X128294000Y-177316000D01*
X132842000Y-181864000D02*
X132842000Y-211582000D01*
X128294000Y-216130000D02*
X128294000Y-223372000D01*
X128294000Y-119102000D02*
X128294000Y-126706000D01*
X132842000Y-259842000D02*
X128294000Y-264390000D01*
X325466900Y-252966000D02*
X325466900Y-244948900D01*
X134366000Y-245872000D02*
X132842000Y-247396000D01*
X132842000Y-230378000D02*
X132842000Y-247396000D01*
X128294000Y-264390000D02*
X128294000Y-271705000D01*
X128294000Y-129056000D02*
X132842000Y-133604000D01*
X128294000Y-223372000D02*
X128294000Y-225830000D01*
X132842000Y-114554000D02*
X128294000Y-119102000D01*
X132842000Y-133604000D02*
X132842000Y-163068000D01*
X132842000Y-163068000D02*
X128294000Y-167616000D01*
X128294000Y-126706000D02*
X128294000Y-129056000D01*
%TO.N,Net-(U1-PA11_A3_D3)*%
X176151000Y-225935000D02*
X180594000Y-230378000D01*
X176151000Y-126706000D02*
X176151000Y-129161000D01*
X176151000Y-264031000D02*
X176151000Y-271705000D01*
X180594000Y-114554000D02*
X176151000Y-118997000D01*
X180594000Y-85344000D02*
X180594000Y-114554000D01*
X180594000Y-182118000D02*
X180594000Y-211836000D01*
X328006900Y-252966000D02*
X328006900Y-245202900D01*
X180594000Y-230378000D02*
X180594000Y-246126000D01*
X176151000Y-129161000D02*
X180594000Y-133604000D01*
X180594000Y-246126000D02*
X180594000Y-259588000D01*
X176151000Y-118997000D02*
X176151000Y-126706000D01*
X180594000Y-211836000D02*
X176151000Y-216279000D01*
X180594000Y-133604000D02*
X180594000Y-164084000D01*
X176151000Y-216279000D02*
X176151000Y-223372000D01*
X176151000Y-175039000D02*
X176151000Y-177675000D01*
X328006900Y-245202900D02*
X327152000Y-244348000D01*
X180594000Y-164084000D02*
X176151000Y-168527000D01*
X176151000Y-80901000D02*
X180594000Y-85344000D01*
X176151000Y-223372000D02*
X176151000Y-225935000D01*
X176151000Y-177675000D02*
X180594000Y-182118000D01*
X180594000Y-259588000D02*
X176151000Y-264031000D01*
X176151000Y-168527000D02*
X176151000Y-175039000D01*
X176151000Y-78373000D02*
X176151000Y-80901000D01*
%TO.N,Net-(U1-PA10_A2_D2)*%
X224008000Y-225786000D02*
X228600000Y-230378000D01*
X228600000Y-230378000D02*
X228600000Y-246888000D01*
X228600000Y-133604000D02*
X228600000Y-163068000D01*
X330546900Y-246218900D02*
X329692000Y-245364000D01*
X224008000Y-78373000D02*
X224008000Y-80752000D01*
X224008000Y-80752000D02*
X228600000Y-85344000D01*
X228600000Y-114808000D02*
X224008000Y-119400000D01*
X224008000Y-223372000D02*
X224008000Y-225786000D01*
X224008000Y-167660000D02*
X224008000Y-175039000D01*
X224008000Y-215920000D02*
X224008000Y-223372000D01*
X228600000Y-259842000D02*
X224008000Y-264434000D01*
X224008000Y-129012000D02*
X228600000Y-133604000D01*
X228600000Y-246888000D02*
X228600000Y-259842000D01*
X224008000Y-177526000D02*
X228600000Y-182118000D01*
X224008000Y-175039000D02*
X224008000Y-177526000D01*
X228600000Y-85344000D02*
X228600000Y-114808000D01*
X228600000Y-163068000D02*
X224008000Y-167660000D01*
X330546900Y-252966000D02*
X330546900Y-246218900D01*
X224008000Y-126706000D02*
X224008000Y-129012000D01*
X228600000Y-211328000D02*
X224008000Y-215920000D01*
X224008000Y-119400000D02*
X224008000Y-126706000D01*
X224008000Y-264434000D02*
X224008000Y-271705000D01*
X228600000Y-182118000D02*
X228600000Y-211328000D01*
%TO.N,Net-(U1-PA4_A1_D1)*%
X276352000Y-115570000D02*
X271865000Y-120057000D01*
X271865000Y-80857000D02*
X276352000Y-85344000D01*
X333086900Y-249774900D02*
X332232000Y-248920000D01*
X271865000Y-167555000D02*
X271865000Y-175039000D01*
X276352000Y-211328000D02*
X271865000Y-215815000D01*
X271865000Y-223372000D02*
X271865000Y-225891000D01*
X271865000Y-126706000D02*
X271865000Y-129117000D01*
X276352000Y-248158000D02*
X276352000Y-259842000D01*
X271865000Y-129117000D02*
X276352000Y-133604000D01*
X271865000Y-175039000D02*
X271865000Y-177631000D01*
X276352000Y-133604000D02*
X276352000Y-163068000D01*
X276352000Y-230378000D02*
X276352000Y-248158000D01*
X276352000Y-259842000D02*
X271865000Y-264329000D01*
X276352000Y-85344000D02*
X276352000Y-115570000D01*
X271865000Y-177631000D02*
X276352000Y-182118000D01*
X271865000Y-215815000D02*
X271865000Y-223372000D01*
X276352000Y-182118000D02*
X276352000Y-211328000D01*
X271865000Y-264329000D02*
X271865000Y-271705000D01*
X333086900Y-252966000D02*
X333086900Y-249774900D01*
X271865000Y-225891000D02*
X276352000Y-230378000D01*
X271865000Y-78373000D02*
X271865000Y-80857000D01*
X271865000Y-120057000D02*
X271865000Y-126706000D01*
X276352000Y-163068000D02*
X271865000Y-167555000D01*
%TO.N,Net-(U1-PA02_A0_D0)*%
X324358000Y-85344000D02*
X324358000Y-114554000D01*
X319722000Y-129222000D02*
X324104000Y-133604000D01*
X335626900Y-252966000D02*
X335626900Y-254092900D01*
X331037000Y-271705000D02*
X319722000Y-271705000D01*
X335788000Y-252804900D02*
X335626900Y-252966000D01*
X319722000Y-119190000D02*
X319722000Y-126706000D01*
X319722000Y-215710000D02*
X319722000Y-223372000D01*
X319722000Y-177736000D02*
X324104000Y-182118000D01*
X324104000Y-211328000D02*
X319722000Y-215710000D01*
X319722000Y-80708000D02*
X324358000Y-85344000D01*
X319722000Y-126706000D02*
X319722000Y-129222000D01*
X324104000Y-182118000D02*
X324104000Y-211328000D01*
X338074000Y-264668000D02*
X331037000Y-271705000D01*
X319722000Y-225996000D02*
X319722000Y-223372000D01*
X324358000Y-114554000D02*
X319722000Y-119190000D01*
X322580000Y-228854000D02*
X319722000Y-225996000D01*
X333502000Y-228854000D02*
X322580000Y-228854000D01*
X319722000Y-78373000D02*
X319722000Y-80708000D01*
X319722000Y-167450000D02*
X319722000Y-175039000D01*
X335788000Y-231140000D02*
X333502000Y-228854000D01*
X335788000Y-248412000D02*
X335788000Y-252804900D01*
X335626900Y-252966000D02*
X338074000Y-255413100D01*
X319722000Y-175039000D02*
X319722000Y-177736000D01*
X338074000Y-255413100D02*
X338074000Y-264668000D01*
X324104000Y-133604000D02*
X324104000Y-163068000D01*
X324104000Y-163068000D02*
X319722000Y-167450000D01*
%TO.N,unconnected-(U1-5V-Pad14)*%
X335026000Y-236819000D02*
X335788000Y-236057000D01*
%TO.N,unconnected-(U1-3V3-Pad12)*%
X329946000Y-237744000D02*
X329946000Y-236819000D01*
%TD*%
M02*
