%TF.GenerationSoftware,KiCad,Pcbnew,8.0.6*%
%TF.CreationDate,2025-03-22T17:54:38-05:00*%
%TF.ProjectId,Smartboard,536d6172-7462-46f6-9172-642e6b696361,rev?*%
%TF.SameCoordinates,Original*%
%TF.FileFunction,Legend,Top*%
%TF.FilePolarity,Positive*%
%FSLAX46Y46*%
G04 Gerber Fmt 4.6, Leading zero omitted, Abs format (unit mm)*
G04 Created by KiCad (PCBNEW 8.0.6) date 2025-03-22 17:54:38*
%MOMM*%
%LPD*%
G01*
G04 APERTURE LIST*
G04 Aperture macros list*
%AMRoundRect*
0 Rectangle with rounded corners*
0 $1 Rounding radius*
0 $2 $3 $4 $5 $6 $7 $8 $9 X,Y pos of 4 corners*
0 Add a 4 corners polygon primitive as box body*
4,1,4,$2,$3,$4,$5,$6,$7,$8,$9,$2,$3,0*
0 Add four circle primitives for the rounded corners*
1,1,$1+$1,$2,$3*
1,1,$1+$1,$4,$5*
1,1,$1+$1,$6,$7*
1,1,$1+$1,$8,$9*
0 Add four rect primitives between the rounded corners*
20,1,$1+$1,$2,$3,$4,$5,0*
20,1,$1+$1,$4,$5,$6,$7,0*
20,1,$1+$1,$6,$7,$8,$9,0*
20,1,$1+$1,$8,$9,$2,$3,0*%
G04 Aperture macros list end*
%ADD10C,0.250000*%
%ADD11C,0.150000*%
%ADD12C,0.120000*%
%ADD13C,0.100000*%
%ADD14C,0.127000*%
%ADD15C,0.504000*%
%ADD16C,4.000000*%
%ADD17C,2.200000*%
%ADD18RoundRect,0.225000X-0.375000X0.225000X-0.375000X-0.225000X0.375000X-0.225000X0.375000X0.225000X0*%
%ADD19C,3.050000*%
%ADD20C,3.000000*%
G04 APERTURE END LIST*
D10*
X230878758Y-290619857D02*
X230878758Y-287619857D01*
X230878758Y-288762714D02*
X231164473Y-288619857D01*
X231164473Y-288619857D02*
X231735901Y-288619857D01*
X231735901Y-288619857D02*
X232021615Y-288762714D01*
X232021615Y-288762714D02*
X232164473Y-288905571D01*
X232164473Y-288905571D02*
X232307330Y-289191285D01*
X232307330Y-289191285D02*
X232307330Y-290048428D01*
X232307330Y-290048428D02*
X232164473Y-290334142D01*
X232164473Y-290334142D02*
X232021615Y-290477000D01*
X232021615Y-290477000D02*
X231735901Y-290619857D01*
X231735901Y-290619857D02*
X231164473Y-290619857D01*
X231164473Y-290619857D02*
X230878758Y-290477000D01*
X233307330Y-288619857D02*
X234021616Y-290619857D01*
X234735901Y-288619857D02*
X234021616Y-290619857D01*
X234021616Y-290619857D02*
X233735901Y-291334142D01*
X233735901Y-291334142D02*
X233593044Y-291477000D01*
X233593044Y-291477000D02*
X233307330Y-291619857D01*
X239878758Y-290334142D02*
X239735901Y-290477000D01*
X239735901Y-290477000D02*
X239307329Y-290619857D01*
X239307329Y-290619857D02*
X239021615Y-290619857D01*
X239021615Y-290619857D02*
X238593044Y-290477000D01*
X238593044Y-290477000D02*
X238307329Y-290191285D01*
X238307329Y-290191285D02*
X238164472Y-289905571D01*
X238164472Y-289905571D02*
X238021615Y-289334142D01*
X238021615Y-289334142D02*
X238021615Y-288905571D01*
X238021615Y-288905571D02*
X238164472Y-288334142D01*
X238164472Y-288334142D02*
X238307329Y-288048428D01*
X238307329Y-288048428D02*
X238593044Y-287762714D01*
X238593044Y-287762714D02*
X239021615Y-287619857D01*
X239021615Y-287619857D02*
X239307329Y-287619857D01*
X239307329Y-287619857D02*
X239735901Y-287762714D01*
X239735901Y-287762714D02*
X239878758Y-287905571D01*
X241164472Y-290334142D02*
X241307329Y-290477000D01*
X241307329Y-290477000D02*
X241164472Y-290619857D01*
X241164472Y-290619857D02*
X241021615Y-290477000D01*
X241021615Y-290477000D02*
X241164472Y-290334142D01*
X241164472Y-290334142D02*
X241164472Y-290619857D01*
X244878757Y-290619857D02*
X244878757Y-287619857D01*
X246593043Y-290619857D02*
X245307329Y-288905571D01*
X246593043Y-287619857D02*
X244878757Y-289334142D01*
X249164472Y-290619857D02*
X249164472Y-289048428D01*
X249164472Y-289048428D02*
X249021614Y-288762714D01*
X249021614Y-288762714D02*
X248735900Y-288619857D01*
X248735900Y-288619857D02*
X248164472Y-288619857D01*
X248164472Y-288619857D02*
X247878757Y-288762714D01*
X249164472Y-290477000D02*
X248878757Y-290619857D01*
X248878757Y-290619857D02*
X248164472Y-290619857D01*
X248164472Y-290619857D02*
X247878757Y-290477000D01*
X247878757Y-290477000D02*
X247735900Y-290191285D01*
X247735900Y-290191285D02*
X247735900Y-289905571D01*
X247735900Y-289905571D02*
X247878757Y-289619857D01*
X247878757Y-289619857D02*
X248164472Y-289477000D01*
X248164472Y-289477000D02*
X248878757Y-289477000D01*
X248878757Y-289477000D02*
X249164472Y-289334142D01*
X251021615Y-290619857D02*
X250735900Y-290477000D01*
X250735900Y-290477000D02*
X250593043Y-290191285D01*
X250593043Y-290191285D02*
X250593043Y-287619857D01*
X253450187Y-290619857D02*
X253450187Y-289048428D01*
X253450187Y-289048428D02*
X253307329Y-288762714D01*
X253307329Y-288762714D02*
X253021615Y-288619857D01*
X253021615Y-288619857D02*
X252450187Y-288619857D01*
X252450187Y-288619857D02*
X252164472Y-288762714D01*
X253450187Y-290477000D02*
X253164472Y-290619857D01*
X253164472Y-290619857D02*
X252450187Y-290619857D01*
X252450187Y-290619857D02*
X252164472Y-290477000D01*
X252164472Y-290477000D02*
X252021615Y-290191285D01*
X252021615Y-290191285D02*
X252021615Y-289905571D01*
X252021615Y-289905571D02*
X252164472Y-289619857D01*
X252164472Y-289619857D02*
X252450187Y-289477000D01*
X252450187Y-289477000D02*
X253164472Y-289477000D01*
X253164472Y-289477000D02*
X253450187Y-289334142D01*
X254878758Y-288619857D02*
X254878758Y-291619857D01*
X254878758Y-288762714D02*
X255164473Y-288619857D01*
X255164473Y-288619857D02*
X255735901Y-288619857D01*
X255735901Y-288619857D02*
X256021615Y-288762714D01*
X256021615Y-288762714D02*
X256164473Y-288905571D01*
X256164473Y-288905571D02*
X256307330Y-289191285D01*
X256307330Y-289191285D02*
X256307330Y-290048428D01*
X256307330Y-290048428D02*
X256164473Y-290334142D01*
X256164473Y-290334142D02*
X256021615Y-290477000D01*
X256021615Y-290477000D02*
X255735901Y-290619857D01*
X255735901Y-290619857D02*
X255164473Y-290619857D01*
X255164473Y-290619857D02*
X254878758Y-290477000D01*
X258878759Y-290619857D02*
X258878759Y-289048428D01*
X258878759Y-289048428D02*
X258735901Y-288762714D01*
X258735901Y-288762714D02*
X258450187Y-288619857D01*
X258450187Y-288619857D02*
X257878759Y-288619857D01*
X257878759Y-288619857D02*
X257593044Y-288762714D01*
X258878759Y-290477000D02*
X258593044Y-290619857D01*
X258593044Y-290619857D02*
X257878759Y-290619857D01*
X257878759Y-290619857D02*
X257593044Y-290477000D01*
X257593044Y-290477000D02*
X257450187Y-290191285D01*
X257450187Y-290191285D02*
X257450187Y-289905571D01*
X257450187Y-289905571D02*
X257593044Y-289619857D01*
X257593044Y-289619857D02*
X257878759Y-289477000D01*
X257878759Y-289477000D02*
X258593044Y-289477000D01*
X258593044Y-289477000D02*
X258878759Y-289334142D01*
X259878759Y-288619857D02*
X261021616Y-288619857D01*
X260307330Y-287619857D02*
X260307330Y-290191285D01*
X260307330Y-290191285D02*
X260450187Y-290477000D01*
X260450187Y-290477000D02*
X260735902Y-290619857D01*
X260735902Y-290619857D02*
X261021616Y-290619857D01*
X262021616Y-290619857D02*
X262021616Y-288619857D01*
X262021616Y-287619857D02*
X261878759Y-287762714D01*
X261878759Y-287762714D02*
X262021616Y-287905571D01*
X262021616Y-287905571D02*
X262164473Y-287762714D01*
X262164473Y-287762714D02*
X262021616Y-287619857D01*
X262021616Y-287619857D02*
X262021616Y-287905571D01*
X75735901Y-290477000D02*
X76164473Y-290619857D01*
X76164473Y-290619857D02*
X76878758Y-290619857D01*
X76878758Y-290619857D02*
X77164473Y-290477000D01*
X77164473Y-290477000D02*
X77307330Y-290334142D01*
X77307330Y-290334142D02*
X77450187Y-290048428D01*
X77450187Y-290048428D02*
X77450187Y-289762714D01*
X77450187Y-289762714D02*
X77307330Y-289477000D01*
X77307330Y-289477000D02*
X77164473Y-289334142D01*
X77164473Y-289334142D02*
X76878758Y-289191285D01*
X76878758Y-289191285D02*
X76307330Y-289048428D01*
X76307330Y-289048428D02*
X76021615Y-288905571D01*
X76021615Y-288905571D02*
X75878758Y-288762714D01*
X75878758Y-288762714D02*
X75735901Y-288477000D01*
X75735901Y-288477000D02*
X75735901Y-288191285D01*
X75735901Y-288191285D02*
X75878758Y-287905571D01*
X75878758Y-287905571D02*
X76021615Y-287762714D01*
X76021615Y-287762714D02*
X76307330Y-287619857D01*
X76307330Y-287619857D02*
X77021615Y-287619857D01*
X77021615Y-287619857D02*
X77450187Y-287762714D01*
X78735901Y-290619857D02*
X78735901Y-288619857D01*
X78735901Y-288905571D02*
X78878758Y-288762714D01*
X78878758Y-288762714D02*
X79164473Y-288619857D01*
X79164473Y-288619857D02*
X79593044Y-288619857D01*
X79593044Y-288619857D02*
X79878758Y-288762714D01*
X79878758Y-288762714D02*
X80021616Y-289048428D01*
X80021616Y-289048428D02*
X80021616Y-290619857D01*
X80021616Y-289048428D02*
X80164473Y-288762714D01*
X80164473Y-288762714D02*
X80450187Y-288619857D01*
X80450187Y-288619857D02*
X80878758Y-288619857D01*
X80878758Y-288619857D02*
X81164473Y-288762714D01*
X81164473Y-288762714D02*
X81307330Y-289048428D01*
X81307330Y-289048428D02*
X81307330Y-290619857D01*
X84021616Y-290619857D02*
X84021616Y-289048428D01*
X84021616Y-289048428D02*
X83878758Y-288762714D01*
X83878758Y-288762714D02*
X83593044Y-288619857D01*
X83593044Y-288619857D02*
X83021616Y-288619857D01*
X83021616Y-288619857D02*
X82735901Y-288762714D01*
X84021616Y-290477000D02*
X83735901Y-290619857D01*
X83735901Y-290619857D02*
X83021616Y-290619857D01*
X83021616Y-290619857D02*
X82735901Y-290477000D01*
X82735901Y-290477000D02*
X82593044Y-290191285D01*
X82593044Y-290191285D02*
X82593044Y-289905571D01*
X82593044Y-289905571D02*
X82735901Y-289619857D01*
X82735901Y-289619857D02*
X83021616Y-289477000D01*
X83021616Y-289477000D02*
X83735901Y-289477000D01*
X83735901Y-289477000D02*
X84021616Y-289334142D01*
X85450187Y-290619857D02*
X85450187Y-288619857D01*
X85450187Y-289191285D02*
X85593044Y-288905571D01*
X85593044Y-288905571D02*
X85735902Y-288762714D01*
X85735902Y-288762714D02*
X86021616Y-288619857D01*
X86021616Y-288619857D02*
X86307330Y-288619857D01*
X86878759Y-288619857D02*
X88021616Y-288619857D01*
X87307330Y-287619857D02*
X87307330Y-290191285D01*
X87307330Y-290191285D02*
X87450187Y-290477000D01*
X87450187Y-290477000D02*
X87735902Y-290619857D01*
X87735902Y-290619857D02*
X88021616Y-290619857D01*
X89021616Y-290619857D02*
X89021616Y-287619857D01*
X89021616Y-288762714D02*
X89307331Y-288619857D01*
X89307331Y-288619857D02*
X89878759Y-288619857D01*
X89878759Y-288619857D02*
X90164473Y-288762714D01*
X90164473Y-288762714D02*
X90307331Y-288905571D01*
X90307331Y-288905571D02*
X90450188Y-289191285D01*
X90450188Y-289191285D02*
X90450188Y-290048428D01*
X90450188Y-290048428D02*
X90307331Y-290334142D01*
X90307331Y-290334142D02*
X90164473Y-290477000D01*
X90164473Y-290477000D02*
X89878759Y-290619857D01*
X89878759Y-290619857D02*
X89307331Y-290619857D01*
X89307331Y-290619857D02*
X89021616Y-290477000D01*
X92164474Y-290619857D02*
X91878759Y-290477000D01*
X91878759Y-290477000D02*
X91735902Y-290334142D01*
X91735902Y-290334142D02*
X91593045Y-290048428D01*
X91593045Y-290048428D02*
X91593045Y-289191285D01*
X91593045Y-289191285D02*
X91735902Y-288905571D01*
X91735902Y-288905571D02*
X91878759Y-288762714D01*
X91878759Y-288762714D02*
X92164474Y-288619857D01*
X92164474Y-288619857D02*
X92593045Y-288619857D01*
X92593045Y-288619857D02*
X92878759Y-288762714D01*
X92878759Y-288762714D02*
X93021617Y-288905571D01*
X93021617Y-288905571D02*
X93164474Y-289191285D01*
X93164474Y-289191285D02*
X93164474Y-290048428D01*
X93164474Y-290048428D02*
X93021617Y-290334142D01*
X93021617Y-290334142D02*
X92878759Y-290477000D01*
X92878759Y-290477000D02*
X92593045Y-290619857D01*
X92593045Y-290619857D02*
X92164474Y-290619857D01*
X95735903Y-290619857D02*
X95735903Y-289048428D01*
X95735903Y-289048428D02*
X95593045Y-288762714D01*
X95593045Y-288762714D02*
X95307331Y-288619857D01*
X95307331Y-288619857D02*
X94735903Y-288619857D01*
X94735903Y-288619857D02*
X94450188Y-288762714D01*
X95735903Y-290477000D02*
X95450188Y-290619857D01*
X95450188Y-290619857D02*
X94735903Y-290619857D01*
X94735903Y-290619857D02*
X94450188Y-290477000D01*
X94450188Y-290477000D02*
X94307331Y-290191285D01*
X94307331Y-290191285D02*
X94307331Y-289905571D01*
X94307331Y-289905571D02*
X94450188Y-289619857D01*
X94450188Y-289619857D02*
X94735903Y-289477000D01*
X94735903Y-289477000D02*
X95450188Y-289477000D01*
X95450188Y-289477000D02*
X95735903Y-289334142D01*
X97164474Y-290619857D02*
X97164474Y-288619857D01*
X97164474Y-289191285D02*
X97307331Y-288905571D01*
X97307331Y-288905571D02*
X97450189Y-288762714D01*
X97450189Y-288762714D02*
X97735903Y-288619857D01*
X97735903Y-288619857D02*
X98021617Y-288619857D01*
X100307332Y-290619857D02*
X100307332Y-287619857D01*
X100307332Y-290477000D02*
X100021617Y-290619857D01*
X100021617Y-290619857D02*
X99450189Y-290619857D01*
X99450189Y-290619857D02*
X99164474Y-290477000D01*
X99164474Y-290477000D02*
X99021617Y-290334142D01*
X99021617Y-290334142D02*
X98878760Y-290048428D01*
X98878760Y-290048428D02*
X98878760Y-289191285D01*
X98878760Y-289191285D02*
X99021617Y-288905571D01*
X99021617Y-288905571D02*
X99164474Y-288762714D01*
X99164474Y-288762714D02*
X99450189Y-288619857D01*
X99450189Y-288619857D02*
X100021617Y-288619857D01*
X100021617Y-288619857D02*
X100307332Y-288762714D01*
X103735903Y-288619857D02*
X104450189Y-290619857D01*
X104450189Y-290619857D02*
X105164474Y-288619857D01*
X107878760Y-290619857D02*
X106164474Y-290619857D01*
X107021617Y-290619857D02*
X107021617Y-287619857D01*
X107021617Y-287619857D02*
X106735903Y-288048428D01*
X106735903Y-288048428D02*
X106450188Y-288334142D01*
X106450188Y-288334142D02*
X106164474Y-288477000D01*
X109164474Y-290334142D02*
X109307331Y-290477000D01*
X109307331Y-290477000D02*
X109164474Y-290619857D01*
X109164474Y-290619857D02*
X109021617Y-290477000D01*
X109021617Y-290477000D02*
X109164474Y-290334142D01*
X109164474Y-290334142D02*
X109164474Y-290619857D01*
X111164474Y-287619857D02*
X111450188Y-287619857D01*
X111450188Y-287619857D02*
X111735902Y-287762714D01*
X111735902Y-287762714D02*
X111878760Y-287905571D01*
X111878760Y-287905571D02*
X112021617Y-288191285D01*
X112021617Y-288191285D02*
X112164474Y-288762714D01*
X112164474Y-288762714D02*
X112164474Y-289477000D01*
X112164474Y-289477000D02*
X112021617Y-290048428D01*
X112021617Y-290048428D02*
X111878760Y-290334142D01*
X111878760Y-290334142D02*
X111735902Y-290477000D01*
X111735902Y-290477000D02*
X111450188Y-290619857D01*
X111450188Y-290619857D02*
X111164474Y-290619857D01*
X111164474Y-290619857D02*
X110878760Y-290477000D01*
X110878760Y-290477000D02*
X110735902Y-290334142D01*
X110735902Y-290334142D02*
X110593045Y-290048428D01*
X110593045Y-290048428D02*
X110450188Y-289477000D01*
X110450188Y-289477000D02*
X110450188Y-288762714D01*
X110450188Y-288762714D02*
X110593045Y-288191285D01*
X110593045Y-288191285D02*
X110735902Y-287905571D01*
X110735902Y-287905571D02*
X110878760Y-287762714D01*
X110878760Y-287762714D02*
X111164474Y-287619857D01*
X291450187Y-287619857D02*
X291735901Y-287619857D01*
X291735901Y-287619857D02*
X292021615Y-287762714D01*
X292021615Y-287762714D02*
X292164473Y-287905571D01*
X292164473Y-287905571D02*
X292307330Y-288191285D01*
X292307330Y-288191285D02*
X292450187Y-288762714D01*
X292450187Y-288762714D02*
X292450187Y-289477000D01*
X292450187Y-289477000D02*
X292307330Y-290048428D01*
X292307330Y-290048428D02*
X292164473Y-290334142D01*
X292164473Y-290334142D02*
X292021615Y-290477000D01*
X292021615Y-290477000D02*
X291735901Y-290619857D01*
X291735901Y-290619857D02*
X291450187Y-290619857D01*
X291450187Y-290619857D02*
X291164473Y-290477000D01*
X291164473Y-290477000D02*
X291021615Y-290334142D01*
X291021615Y-290334142D02*
X290878758Y-290048428D01*
X290878758Y-290048428D02*
X290735901Y-289477000D01*
X290735901Y-289477000D02*
X290735901Y-288762714D01*
X290735901Y-288762714D02*
X290878758Y-288191285D01*
X290878758Y-288191285D02*
X291021615Y-287905571D01*
X291021615Y-287905571D02*
X291164473Y-287762714D01*
X291164473Y-287762714D02*
X291450187Y-287619857D01*
X293450187Y-287619857D02*
X295307330Y-287619857D01*
X295307330Y-287619857D02*
X294307330Y-288762714D01*
X294307330Y-288762714D02*
X294735901Y-288762714D01*
X294735901Y-288762714D02*
X295021616Y-288905571D01*
X295021616Y-288905571D02*
X295164473Y-289048428D01*
X295164473Y-289048428D02*
X295307330Y-289334142D01*
X295307330Y-289334142D02*
X295307330Y-290048428D01*
X295307330Y-290048428D02*
X295164473Y-290334142D01*
X295164473Y-290334142D02*
X295021616Y-290477000D01*
X295021616Y-290477000D02*
X294735901Y-290619857D01*
X294735901Y-290619857D02*
X293878758Y-290619857D01*
X293878758Y-290619857D02*
X293593044Y-290477000D01*
X293593044Y-290477000D02*
X293450187Y-290334142D01*
X296593044Y-290334142D02*
X296735901Y-290477000D01*
X296735901Y-290477000D02*
X296593044Y-290619857D01*
X296593044Y-290619857D02*
X296450187Y-290477000D01*
X296450187Y-290477000D02*
X296593044Y-290334142D01*
X296593044Y-290334142D02*
X296593044Y-290619857D01*
X297878758Y-287905571D02*
X298021615Y-287762714D01*
X298021615Y-287762714D02*
X298307330Y-287619857D01*
X298307330Y-287619857D02*
X299021615Y-287619857D01*
X299021615Y-287619857D02*
X299307330Y-287762714D01*
X299307330Y-287762714D02*
X299450187Y-287905571D01*
X299450187Y-287905571D02*
X299593044Y-288191285D01*
X299593044Y-288191285D02*
X299593044Y-288477000D01*
X299593044Y-288477000D02*
X299450187Y-288905571D01*
X299450187Y-288905571D02*
X297735901Y-290619857D01*
X297735901Y-290619857D02*
X299593044Y-290619857D01*
X300735901Y-287905571D02*
X300878758Y-287762714D01*
X300878758Y-287762714D02*
X301164473Y-287619857D01*
X301164473Y-287619857D02*
X301878758Y-287619857D01*
X301878758Y-287619857D02*
X302164473Y-287762714D01*
X302164473Y-287762714D02*
X302307330Y-287905571D01*
X302307330Y-287905571D02*
X302450187Y-288191285D01*
X302450187Y-288191285D02*
X302450187Y-288477000D01*
X302450187Y-288477000D02*
X302307330Y-288905571D01*
X302307330Y-288905571D02*
X300593044Y-290619857D01*
X300593044Y-290619857D02*
X302450187Y-290619857D01*
X303735901Y-290334142D02*
X303878758Y-290477000D01*
X303878758Y-290477000D02*
X303735901Y-290619857D01*
X303735901Y-290619857D02*
X303593044Y-290477000D01*
X303593044Y-290477000D02*
X303735901Y-290334142D01*
X303735901Y-290334142D02*
X303735901Y-290619857D01*
X305021615Y-287905571D02*
X305164472Y-287762714D01*
X305164472Y-287762714D02*
X305450187Y-287619857D01*
X305450187Y-287619857D02*
X306164472Y-287619857D01*
X306164472Y-287619857D02*
X306450187Y-287762714D01*
X306450187Y-287762714D02*
X306593044Y-287905571D01*
X306593044Y-287905571D02*
X306735901Y-288191285D01*
X306735901Y-288191285D02*
X306735901Y-288477000D01*
X306735901Y-288477000D02*
X306593044Y-288905571D01*
X306593044Y-288905571D02*
X304878758Y-290619857D01*
X304878758Y-290619857D02*
X306735901Y-290619857D01*
X308593044Y-287619857D02*
X308878758Y-287619857D01*
X308878758Y-287619857D02*
X309164472Y-287762714D01*
X309164472Y-287762714D02*
X309307330Y-287905571D01*
X309307330Y-287905571D02*
X309450187Y-288191285D01*
X309450187Y-288191285D02*
X309593044Y-288762714D01*
X309593044Y-288762714D02*
X309593044Y-289477000D01*
X309593044Y-289477000D02*
X309450187Y-290048428D01*
X309450187Y-290048428D02*
X309307330Y-290334142D01*
X309307330Y-290334142D02*
X309164472Y-290477000D01*
X309164472Y-290477000D02*
X308878758Y-290619857D01*
X308878758Y-290619857D02*
X308593044Y-290619857D01*
X308593044Y-290619857D02*
X308307330Y-290477000D01*
X308307330Y-290477000D02*
X308164472Y-290334142D01*
X308164472Y-290334142D02*
X308021615Y-290048428D01*
X308021615Y-290048428D02*
X307878758Y-289477000D01*
X307878758Y-289477000D02*
X307878758Y-288762714D01*
X307878758Y-288762714D02*
X308021615Y-288191285D01*
X308021615Y-288191285D02*
X308164472Y-287905571D01*
X308164472Y-287905571D02*
X308307330Y-287762714D01*
X308307330Y-287762714D02*
X308593044Y-287619857D01*
X310735901Y-287905571D02*
X310878758Y-287762714D01*
X310878758Y-287762714D02*
X311164473Y-287619857D01*
X311164473Y-287619857D02*
X311878758Y-287619857D01*
X311878758Y-287619857D02*
X312164473Y-287762714D01*
X312164473Y-287762714D02*
X312307330Y-287905571D01*
X312307330Y-287905571D02*
X312450187Y-288191285D01*
X312450187Y-288191285D02*
X312450187Y-288477000D01*
X312450187Y-288477000D02*
X312307330Y-288905571D01*
X312307330Y-288905571D02*
X310593044Y-290619857D01*
X310593044Y-290619857D02*
X312450187Y-290619857D01*
X315164473Y-287619857D02*
X313735901Y-287619857D01*
X313735901Y-287619857D02*
X313593044Y-289048428D01*
X313593044Y-289048428D02*
X313735901Y-288905571D01*
X313735901Y-288905571D02*
X314021616Y-288762714D01*
X314021616Y-288762714D02*
X314735901Y-288762714D01*
X314735901Y-288762714D02*
X315021616Y-288905571D01*
X315021616Y-288905571D02*
X315164473Y-289048428D01*
X315164473Y-289048428D02*
X315307330Y-289334142D01*
X315307330Y-289334142D02*
X315307330Y-290048428D01*
X315307330Y-290048428D02*
X315164473Y-290334142D01*
X315164473Y-290334142D02*
X315021616Y-290477000D01*
X315021616Y-290477000D02*
X314735901Y-290619857D01*
X314735901Y-290619857D02*
X314021616Y-290619857D01*
X314021616Y-290619857D02*
X313735901Y-290477000D01*
X313735901Y-290477000D02*
X313593044Y-290334142D01*
D11*
X121856667Y-133249200D02*
X121999524Y-133296819D01*
X121999524Y-133296819D02*
X122237619Y-133296819D01*
X122237619Y-133296819D02*
X122332857Y-133249200D01*
X122332857Y-133249200D02*
X122380476Y-133201580D01*
X122380476Y-133201580D02*
X122428095Y-133106342D01*
X122428095Y-133106342D02*
X122428095Y-133011104D01*
X122428095Y-133011104D02*
X122380476Y-132915866D01*
X122380476Y-132915866D02*
X122332857Y-132868247D01*
X122332857Y-132868247D02*
X122237619Y-132820628D01*
X122237619Y-132820628D02*
X122047143Y-132773009D01*
X122047143Y-132773009D02*
X121951905Y-132725390D01*
X121951905Y-132725390D02*
X121904286Y-132677771D01*
X121904286Y-132677771D02*
X121856667Y-132582533D01*
X121856667Y-132582533D02*
X121856667Y-132487295D01*
X121856667Y-132487295D02*
X121904286Y-132392057D01*
X121904286Y-132392057D02*
X121951905Y-132344438D01*
X121951905Y-132344438D02*
X122047143Y-132296819D01*
X122047143Y-132296819D02*
X122285238Y-132296819D01*
X122285238Y-132296819D02*
X122428095Y-132344438D01*
X122761429Y-132296819D02*
X122999524Y-133296819D01*
X122999524Y-133296819D02*
X123190000Y-132582533D01*
X123190000Y-132582533D02*
X123380476Y-133296819D01*
X123380476Y-133296819D02*
X123618572Y-132296819D01*
X124142381Y-132725390D02*
X124047143Y-132677771D01*
X124047143Y-132677771D02*
X123999524Y-132630152D01*
X123999524Y-132630152D02*
X123951905Y-132534914D01*
X123951905Y-132534914D02*
X123951905Y-132487295D01*
X123951905Y-132487295D02*
X123999524Y-132392057D01*
X123999524Y-132392057D02*
X124047143Y-132344438D01*
X124047143Y-132344438D02*
X124142381Y-132296819D01*
X124142381Y-132296819D02*
X124332857Y-132296819D01*
X124332857Y-132296819D02*
X124428095Y-132344438D01*
X124428095Y-132344438D02*
X124475714Y-132392057D01*
X124475714Y-132392057D02*
X124523333Y-132487295D01*
X124523333Y-132487295D02*
X124523333Y-132534914D01*
X124523333Y-132534914D02*
X124475714Y-132630152D01*
X124475714Y-132630152D02*
X124428095Y-132677771D01*
X124428095Y-132677771D02*
X124332857Y-132725390D01*
X124332857Y-132725390D02*
X124142381Y-132725390D01*
X124142381Y-132725390D02*
X124047143Y-132773009D01*
X124047143Y-132773009D02*
X123999524Y-132820628D01*
X123999524Y-132820628D02*
X123951905Y-132915866D01*
X123951905Y-132915866D02*
X123951905Y-133106342D01*
X123951905Y-133106342D02*
X123999524Y-133201580D01*
X123999524Y-133201580D02*
X124047143Y-133249200D01*
X124047143Y-133249200D02*
X124142381Y-133296819D01*
X124142381Y-133296819D02*
X124332857Y-133296819D01*
X124332857Y-133296819D02*
X124428095Y-133249200D01*
X124428095Y-133249200D02*
X124475714Y-133201580D01*
X124475714Y-133201580D02*
X124523333Y-133106342D01*
X124523333Y-133106342D02*
X124523333Y-132915866D01*
X124523333Y-132915866D02*
X124475714Y-132820628D01*
X124475714Y-132820628D02*
X124428095Y-132773009D01*
X124428095Y-132773009D02*
X124332857Y-132725390D01*
X125495819Y-155266285D02*
X124495819Y-155266285D01*
X124495819Y-155266285D02*
X124495819Y-155028190D01*
X124495819Y-155028190D02*
X124543438Y-154885333D01*
X124543438Y-154885333D02*
X124638676Y-154790095D01*
X124638676Y-154790095D02*
X124733914Y-154742476D01*
X124733914Y-154742476D02*
X124924390Y-154694857D01*
X124924390Y-154694857D02*
X125067247Y-154694857D01*
X125067247Y-154694857D02*
X125257723Y-154742476D01*
X125257723Y-154742476D02*
X125352961Y-154790095D01*
X125352961Y-154790095D02*
X125448200Y-154885333D01*
X125448200Y-154885333D02*
X125495819Y-155028190D01*
X125495819Y-155028190D02*
X125495819Y-155266285D01*
X125495819Y-153742476D02*
X125495819Y-154313904D01*
X125495819Y-154028190D02*
X124495819Y-154028190D01*
X124495819Y-154028190D02*
X124638676Y-154123428D01*
X124638676Y-154123428D02*
X124733914Y-154218666D01*
X124733914Y-154218666D02*
X124781533Y-154313904D01*
X124829152Y-152885333D02*
X125495819Y-152885333D01*
X124448200Y-153123428D02*
X125162485Y-153361523D01*
X125162485Y-153361523D02*
X125162485Y-152742476D01*
X125495819Y-106402094D02*
X124495819Y-106402094D01*
X124495819Y-106402094D02*
X124495819Y-106163999D01*
X124495819Y-106163999D02*
X124543438Y-106021142D01*
X124543438Y-106021142D02*
X124638676Y-105925904D01*
X124638676Y-105925904D02*
X124733914Y-105878285D01*
X124733914Y-105878285D02*
X124924390Y-105830666D01*
X124924390Y-105830666D02*
X125067247Y-105830666D01*
X125067247Y-105830666D02*
X125257723Y-105878285D01*
X125257723Y-105878285D02*
X125352961Y-105925904D01*
X125352961Y-105925904D02*
X125448200Y-106021142D01*
X125448200Y-106021142D02*
X125495819Y-106163999D01*
X125495819Y-106163999D02*
X125495819Y-106402094D01*
X124924390Y-105259237D02*
X124876771Y-105354475D01*
X124876771Y-105354475D02*
X124829152Y-105402094D01*
X124829152Y-105402094D02*
X124733914Y-105449713D01*
X124733914Y-105449713D02*
X124686295Y-105449713D01*
X124686295Y-105449713D02*
X124591057Y-105402094D01*
X124591057Y-105402094D02*
X124543438Y-105354475D01*
X124543438Y-105354475D02*
X124495819Y-105259237D01*
X124495819Y-105259237D02*
X124495819Y-105068761D01*
X124495819Y-105068761D02*
X124543438Y-104973523D01*
X124543438Y-104973523D02*
X124591057Y-104925904D01*
X124591057Y-104925904D02*
X124686295Y-104878285D01*
X124686295Y-104878285D02*
X124733914Y-104878285D01*
X124733914Y-104878285D02*
X124829152Y-104925904D01*
X124829152Y-104925904D02*
X124876771Y-104973523D01*
X124876771Y-104973523D02*
X124924390Y-105068761D01*
X124924390Y-105068761D02*
X124924390Y-105259237D01*
X124924390Y-105259237D02*
X124972009Y-105354475D01*
X124972009Y-105354475D02*
X125019628Y-105402094D01*
X125019628Y-105402094D02*
X125114866Y-105449713D01*
X125114866Y-105449713D02*
X125305342Y-105449713D01*
X125305342Y-105449713D02*
X125400580Y-105402094D01*
X125400580Y-105402094D02*
X125448200Y-105354475D01*
X125448200Y-105354475D02*
X125495819Y-105259237D01*
X125495819Y-105259237D02*
X125495819Y-105068761D01*
X125495819Y-105068761D02*
X125448200Y-104973523D01*
X125448200Y-104973523D02*
X125400580Y-104925904D01*
X125400580Y-104925904D02*
X125305342Y-104878285D01*
X125305342Y-104878285D02*
X125114866Y-104878285D01*
X125114866Y-104878285D02*
X125019628Y-104925904D01*
X125019628Y-104925904D02*
X124972009Y-104973523D01*
X124972009Y-104973523D02*
X124924390Y-105068761D01*
X269066819Y-58142094D02*
X268066819Y-58142094D01*
X268066819Y-58142094D02*
X268066819Y-57903999D01*
X268066819Y-57903999D02*
X268114438Y-57761142D01*
X268114438Y-57761142D02*
X268209676Y-57665904D01*
X268209676Y-57665904D02*
X268304914Y-57618285D01*
X268304914Y-57618285D02*
X268495390Y-57570666D01*
X268495390Y-57570666D02*
X268638247Y-57570666D01*
X268638247Y-57570666D02*
X268828723Y-57618285D01*
X268828723Y-57618285D02*
X268923961Y-57665904D01*
X268923961Y-57665904D02*
X269019200Y-57761142D01*
X269019200Y-57761142D02*
X269066819Y-57903999D01*
X269066819Y-57903999D02*
X269066819Y-58142094D01*
X268066819Y-56665904D02*
X268066819Y-57142094D01*
X268066819Y-57142094D02*
X268543009Y-57189713D01*
X268543009Y-57189713D02*
X268495390Y-57142094D01*
X268495390Y-57142094D02*
X268447771Y-57046856D01*
X268447771Y-57046856D02*
X268447771Y-56808761D01*
X268447771Y-56808761D02*
X268495390Y-56713523D01*
X268495390Y-56713523D02*
X268543009Y-56665904D01*
X268543009Y-56665904D02*
X268638247Y-56618285D01*
X268638247Y-56618285D02*
X268876342Y-56618285D01*
X268876342Y-56618285D02*
X268971580Y-56665904D01*
X268971580Y-56665904D02*
X269019200Y-56713523D01*
X269019200Y-56713523D02*
X269066819Y-56808761D01*
X269066819Y-56808761D02*
X269066819Y-57046856D01*
X269066819Y-57046856D02*
X269019200Y-57142094D01*
X269019200Y-57142094D02*
X268971580Y-57189713D01*
X169386476Y-278283200D02*
X169529333Y-278330819D01*
X169529333Y-278330819D02*
X169767428Y-278330819D01*
X169767428Y-278330819D02*
X169862666Y-278283200D01*
X169862666Y-278283200D02*
X169910285Y-278235580D01*
X169910285Y-278235580D02*
X169957904Y-278140342D01*
X169957904Y-278140342D02*
X169957904Y-278045104D01*
X169957904Y-278045104D02*
X169910285Y-277949866D01*
X169910285Y-277949866D02*
X169862666Y-277902247D01*
X169862666Y-277902247D02*
X169767428Y-277854628D01*
X169767428Y-277854628D02*
X169576952Y-277807009D01*
X169576952Y-277807009D02*
X169481714Y-277759390D01*
X169481714Y-277759390D02*
X169434095Y-277711771D01*
X169434095Y-277711771D02*
X169386476Y-277616533D01*
X169386476Y-277616533D02*
X169386476Y-277521295D01*
X169386476Y-277521295D02*
X169434095Y-277426057D01*
X169434095Y-277426057D02*
X169481714Y-277378438D01*
X169481714Y-277378438D02*
X169576952Y-277330819D01*
X169576952Y-277330819D02*
X169815047Y-277330819D01*
X169815047Y-277330819D02*
X169957904Y-277378438D01*
X170291238Y-277330819D02*
X170529333Y-278330819D01*
X170529333Y-278330819D02*
X170719809Y-277616533D01*
X170719809Y-277616533D02*
X170910285Y-278330819D01*
X170910285Y-278330819D02*
X171148381Y-277330819D01*
X171481714Y-277426057D02*
X171529333Y-277378438D01*
X171529333Y-277378438D02*
X171624571Y-277330819D01*
X171624571Y-277330819D02*
X171862666Y-277330819D01*
X171862666Y-277330819D02*
X171957904Y-277378438D01*
X171957904Y-277378438D02*
X172005523Y-277426057D01*
X172005523Y-277426057D02*
X172053142Y-277521295D01*
X172053142Y-277521295D02*
X172053142Y-277616533D01*
X172053142Y-277616533D02*
X172005523Y-277759390D01*
X172005523Y-277759390D02*
X171434095Y-278330819D01*
X171434095Y-278330819D02*
X172053142Y-278330819D01*
X172386476Y-277330819D02*
X173053142Y-277330819D01*
X173053142Y-277330819D02*
X172624571Y-278330819D01*
X316906819Y-203652285D02*
X315906819Y-203652285D01*
X315906819Y-203652285D02*
X315906819Y-203414190D01*
X315906819Y-203414190D02*
X315954438Y-203271333D01*
X315954438Y-203271333D02*
X316049676Y-203176095D01*
X316049676Y-203176095D02*
X316144914Y-203128476D01*
X316144914Y-203128476D02*
X316335390Y-203080857D01*
X316335390Y-203080857D02*
X316478247Y-203080857D01*
X316478247Y-203080857D02*
X316668723Y-203128476D01*
X316668723Y-203128476D02*
X316763961Y-203176095D01*
X316763961Y-203176095D02*
X316859200Y-203271333D01*
X316859200Y-203271333D02*
X316906819Y-203414190D01*
X316906819Y-203414190D02*
X316906819Y-203652285D01*
X316002057Y-202699904D02*
X315954438Y-202652285D01*
X315954438Y-202652285D02*
X315906819Y-202557047D01*
X315906819Y-202557047D02*
X315906819Y-202318952D01*
X315906819Y-202318952D02*
X315954438Y-202223714D01*
X315954438Y-202223714D02*
X316002057Y-202176095D01*
X316002057Y-202176095D02*
X316097295Y-202128476D01*
X316097295Y-202128476D02*
X316192533Y-202128476D01*
X316192533Y-202128476D02*
X316335390Y-202176095D01*
X316335390Y-202176095D02*
X316906819Y-202747523D01*
X316906819Y-202747523D02*
X316906819Y-202128476D01*
X316240152Y-201271333D02*
X316906819Y-201271333D01*
X315859200Y-201509428D02*
X316573485Y-201747523D01*
X316573485Y-201747523D02*
X316573485Y-201128476D01*
X265144476Y-181509200D02*
X265287333Y-181556819D01*
X265287333Y-181556819D02*
X265525428Y-181556819D01*
X265525428Y-181556819D02*
X265620666Y-181509200D01*
X265620666Y-181509200D02*
X265668285Y-181461580D01*
X265668285Y-181461580D02*
X265715904Y-181366342D01*
X265715904Y-181366342D02*
X265715904Y-181271104D01*
X265715904Y-181271104D02*
X265668285Y-181175866D01*
X265668285Y-181175866D02*
X265620666Y-181128247D01*
X265620666Y-181128247D02*
X265525428Y-181080628D01*
X265525428Y-181080628D02*
X265334952Y-181033009D01*
X265334952Y-181033009D02*
X265239714Y-180985390D01*
X265239714Y-180985390D02*
X265192095Y-180937771D01*
X265192095Y-180937771D02*
X265144476Y-180842533D01*
X265144476Y-180842533D02*
X265144476Y-180747295D01*
X265144476Y-180747295D02*
X265192095Y-180652057D01*
X265192095Y-180652057D02*
X265239714Y-180604438D01*
X265239714Y-180604438D02*
X265334952Y-180556819D01*
X265334952Y-180556819D02*
X265573047Y-180556819D01*
X265573047Y-180556819D02*
X265715904Y-180604438D01*
X266049238Y-180556819D02*
X266287333Y-181556819D01*
X266287333Y-181556819D02*
X266477809Y-180842533D01*
X266477809Y-180842533D02*
X266668285Y-181556819D01*
X266668285Y-181556819D02*
X266906381Y-180556819D01*
X267811142Y-181556819D02*
X267239714Y-181556819D01*
X267525428Y-181556819D02*
X267525428Y-180556819D01*
X267525428Y-180556819D02*
X267430190Y-180699676D01*
X267430190Y-180699676D02*
X267334952Y-180794914D01*
X267334952Y-180794914D02*
X267239714Y-180842533D01*
X268144476Y-180556819D02*
X268811142Y-180556819D01*
X268811142Y-180556819D02*
X268382571Y-181556819D01*
X312896476Y-278283200D02*
X313039333Y-278330819D01*
X313039333Y-278330819D02*
X313277428Y-278330819D01*
X313277428Y-278330819D02*
X313372666Y-278283200D01*
X313372666Y-278283200D02*
X313420285Y-278235580D01*
X313420285Y-278235580D02*
X313467904Y-278140342D01*
X313467904Y-278140342D02*
X313467904Y-278045104D01*
X313467904Y-278045104D02*
X313420285Y-277949866D01*
X313420285Y-277949866D02*
X313372666Y-277902247D01*
X313372666Y-277902247D02*
X313277428Y-277854628D01*
X313277428Y-277854628D02*
X313086952Y-277807009D01*
X313086952Y-277807009D02*
X312991714Y-277759390D01*
X312991714Y-277759390D02*
X312944095Y-277711771D01*
X312944095Y-277711771D02*
X312896476Y-277616533D01*
X312896476Y-277616533D02*
X312896476Y-277521295D01*
X312896476Y-277521295D02*
X312944095Y-277426057D01*
X312944095Y-277426057D02*
X312991714Y-277378438D01*
X312991714Y-277378438D02*
X313086952Y-277330819D01*
X313086952Y-277330819D02*
X313325047Y-277330819D01*
X313325047Y-277330819D02*
X313467904Y-277378438D01*
X313801238Y-277330819D02*
X314039333Y-278330819D01*
X314039333Y-278330819D02*
X314229809Y-277616533D01*
X314229809Y-277616533D02*
X314420285Y-278330819D01*
X314420285Y-278330819D02*
X314658381Y-277330819D01*
X314944095Y-277330819D02*
X315563142Y-277330819D01*
X315563142Y-277330819D02*
X315229809Y-277711771D01*
X315229809Y-277711771D02*
X315372666Y-277711771D01*
X315372666Y-277711771D02*
X315467904Y-277759390D01*
X315467904Y-277759390D02*
X315515523Y-277807009D01*
X315515523Y-277807009D02*
X315563142Y-277902247D01*
X315563142Y-277902247D02*
X315563142Y-278140342D01*
X315563142Y-278140342D02*
X315515523Y-278235580D01*
X315515523Y-278235580D02*
X315467904Y-278283200D01*
X315467904Y-278283200D02*
X315372666Y-278330819D01*
X315372666Y-278330819D02*
X315086952Y-278330819D01*
X315086952Y-278330819D02*
X314991714Y-278283200D01*
X314991714Y-278283200D02*
X314944095Y-278235580D01*
X316182190Y-277330819D02*
X316277428Y-277330819D01*
X316277428Y-277330819D02*
X316372666Y-277378438D01*
X316372666Y-277378438D02*
X316420285Y-277426057D01*
X316420285Y-277426057D02*
X316467904Y-277521295D01*
X316467904Y-277521295D02*
X316515523Y-277711771D01*
X316515523Y-277711771D02*
X316515523Y-277949866D01*
X316515523Y-277949866D02*
X316467904Y-278140342D01*
X316467904Y-278140342D02*
X316420285Y-278235580D01*
X316420285Y-278235580D02*
X316372666Y-278283200D01*
X316372666Y-278283200D02*
X316277428Y-278330819D01*
X316277428Y-278330819D02*
X316182190Y-278330819D01*
X316182190Y-278330819D02*
X316086952Y-278283200D01*
X316086952Y-278283200D02*
X316039333Y-278235580D01*
X316039333Y-278235580D02*
X315991714Y-278140342D01*
X315991714Y-278140342D02*
X315944095Y-277949866D01*
X315944095Y-277949866D02*
X315944095Y-277711771D01*
X315944095Y-277711771D02*
X315991714Y-277521295D01*
X315991714Y-277521295D02*
X316039333Y-277426057D01*
X316039333Y-277426057D02*
X316086952Y-277378438D01*
X316086952Y-277378438D02*
X316182190Y-277330819D01*
X121380476Y-230023200D02*
X121523333Y-230070819D01*
X121523333Y-230070819D02*
X121761428Y-230070819D01*
X121761428Y-230070819D02*
X121856666Y-230023200D01*
X121856666Y-230023200D02*
X121904285Y-229975580D01*
X121904285Y-229975580D02*
X121951904Y-229880342D01*
X121951904Y-229880342D02*
X121951904Y-229785104D01*
X121951904Y-229785104D02*
X121904285Y-229689866D01*
X121904285Y-229689866D02*
X121856666Y-229642247D01*
X121856666Y-229642247D02*
X121761428Y-229594628D01*
X121761428Y-229594628D02*
X121570952Y-229547009D01*
X121570952Y-229547009D02*
X121475714Y-229499390D01*
X121475714Y-229499390D02*
X121428095Y-229451771D01*
X121428095Y-229451771D02*
X121380476Y-229356533D01*
X121380476Y-229356533D02*
X121380476Y-229261295D01*
X121380476Y-229261295D02*
X121428095Y-229166057D01*
X121428095Y-229166057D02*
X121475714Y-229118438D01*
X121475714Y-229118438D02*
X121570952Y-229070819D01*
X121570952Y-229070819D02*
X121809047Y-229070819D01*
X121809047Y-229070819D02*
X121951904Y-229118438D01*
X122285238Y-229070819D02*
X122523333Y-230070819D01*
X122523333Y-230070819D02*
X122713809Y-229356533D01*
X122713809Y-229356533D02*
X122904285Y-230070819D01*
X122904285Y-230070819D02*
X123142381Y-229070819D01*
X123475714Y-229166057D02*
X123523333Y-229118438D01*
X123523333Y-229118438D02*
X123618571Y-229070819D01*
X123618571Y-229070819D02*
X123856666Y-229070819D01*
X123856666Y-229070819D02*
X123951904Y-229118438D01*
X123951904Y-229118438D02*
X123999523Y-229166057D01*
X123999523Y-229166057D02*
X124047142Y-229261295D01*
X124047142Y-229261295D02*
X124047142Y-229356533D01*
X124047142Y-229356533D02*
X123999523Y-229499390D01*
X123999523Y-229499390D02*
X123428095Y-230070819D01*
X123428095Y-230070819D02*
X124047142Y-230070819D01*
X124666190Y-229070819D02*
X124761428Y-229070819D01*
X124761428Y-229070819D02*
X124856666Y-229118438D01*
X124856666Y-229118438D02*
X124904285Y-229166057D01*
X124904285Y-229166057D02*
X124951904Y-229261295D01*
X124951904Y-229261295D02*
X124999523Y-229451771D01*
X124999523Y-229451771D02*
X124999523Y-229689866D01*
X124999523Y-229689866D02*
X124951904Y-229880342D01*
X124951904Y-229880342D02*
X124904285Y-229975580D01*
X124904285Y-229975580D02*
X124856666Y-230023200D01*
X124856666Y-230023200D02*
X124761428Y-230070819D01*
X124761428Y-230070819D02*
X124666190Y-230070819D01*
X124666190Y-230070819D02*
X124570952Y-230023200D01*
X124570952Y-230023200D02*
X124523333Y-229975580D01*
X124523333Y-229975580D02*
X124475714Y-229880342D01*
X124475714Y-229880342D02*
X124428095Y-229689866D01*
X124428095Y-229689866D02*
X124428095Y-229451771D01*
X124428095Y-229451771D02*
X124475714Y-229261295D01*
X124475714Y-229261295D02*
X124523333Y-229166057D01*
X124523333Y-229166057D02*
X124570952Y-229118438D01*
X124570952Y-229118438D02*
X124666190Y-229070819D01*
X73628476Y-278283200D02*
X73771333Y-278330819D01*
X73771333Y-278330819D02*
X74009428Y-278330819D01*
X74009428Y-278330819D02*
X74104666Y-278283200D01*
X74104666Y-278283200D02*
X74152285Y-278235580D01*
X74152285Y-278235580D02*
X74199904Y-278140342D01*
X74199904Y-278140342D02*
X74199904Y-278045104D01*
X74199904Y-278045104D02*
X74152285Y-277949866D01*
X74152285Y-277949866D02*
X74104666Y-277902247D01*
X74104666Y-277902247D02*
X74009428Y-277854628D01*
X74009428Y-277854628D02*
X73818952Y-277807009D01*
X73818952Y-277807009D02*
X73723714Y-277759390D01*
X73723714Y-277759390D02*
X73676095Y-277711771D01*
X73676095Y-277711771D02*
X73628476Y-277616533D01*
X73628476Y-277616533D02*
X73628476Y-277521295D01*
X73628476Y-277521295D02*
X73676095Y-277426057D01*
X73676095Y-277426057D02*
X73723714Y-277378438D01*
X73723714Y-277378438D02*
X73818952Y-277330819D01*
X73818952Y-277330819D02*
X74057047Y-277330819D01*
X74057047Y-277330819D02*
X74199904Y-277378438D01*
X74533238Y-277330819D02*
X74771333Y-278330819D01*
X74771333Y-278330819D02*
X74961809Y-277616533D01*
X74961809Y-277616533D02*
X75152285Y-278330819D01*
X75152285Y-278330819D02*
X75390381Y-277330819D01*
X75723714Y-277426057D02*
X75771333Y-277378438D01*
X75771333Y-277378438D02*
X75866571Y-277330819D01*
X75866571Y-277330819D02*
X76104666Y-277330819D01*
X76104666Y-277330819D02*
X76199904Y-277378438D01*
X76199904Y-277378438D02*
X76247523Y-277426057D01*
X76247523Y-277426057D02*
X76295142Y-277521295D01*
X76295142Y-277521295D02*
X76295142Y-277616533D01*
X76295142Y-277616533D02*
X76247523Y-277759390D01*
X76247523Y-277759390D02*
X75676095Y-278330819D01*
X75676095Y-278330819D02*
X76295142Y-278330819D01*
X77199904Y-277330819D02*
X76723714Y-277330819D01*
X76723714Y-277330819D02*
X76676095Y-277807009D01*
X76676095Y-277807009D02*
X76723714Y-277759390D01*
X76723714Y-277759390D02*
X76818952Y-277711771D01*
X76818952Y-277711771D02*
X77057047Y-277711771D01*
X77057047Y-277711771D02*
X77152285Y-277759390D01*
X77152285Y-277759390D02*
X77199904Y-277807009D01*
X77199904Y-277807009D02*
X77247523Y-277902247D01*
X77247523Y-277902247D02*
X77247523Y-278140342D01*
X77247523Y-278140342D02*
X77199904Y-278235580D01*
X77199904Y-278235580D02*
X77152285Y-278283200D01*
X77152285Y-278283200D02*
X77057047Y-278330819D01*
X77057047Y-278330819D02*
X76818952Y-278330819D01*
X76818952Y-278330819D02*
X76723714Y-278283200D01*
X76723714Y-278283200D02*
X76676095Y-278235580D01*
X169862667Y-84989200D02*
X170005524Y-85036819D01*
X170005524Y-85036819D02*
X170243619Y-85036819D01*
X170243619Y-85036819D02*
X170338857Y-84989200D01*
X170338857Y-84989200D02*
X170386476Y-84941580D01*
X170386476Y-84941580D02*
X170434095Y-84846342D01*
X170434095Y-84846342D02*
X170434095Y-84751104D01*
X170434095Y-84751104D02*
X170386476Y-84655866D01*
X170386476Y-84655866D02*
X170338857Y-84608247D01*
X170338857Y-84608247D02*
X170243619Y-84560628D01*
X170243619Y-84560628D02*
X170053143Y-84513009D01*
X170053143Y-84513009D02*
X169957905Y-84465390D01*
X169957905Y-84465390D02*
X169910286Y-84417771D01*
X169910286Y-84417771D02*
X169862667Y-84322533D01*
X169862667Y-84322533D02*
X169862667Y-84227295D01*
X169862667Y-84227295D02*
X169910286Y-84132057D01*
X169910286Y-84132057D02*
X169957905Y-84084438D01*
X169957905Y-84084438D02*
X170053143Y-84036819D01*
X170053143Y-84036819D02*
X170291238Y-84036819D01*
X170291238Y-84036819D02*
X170434095Y-84084438D01*
X170767429Y-84036819D02*
X171005524Y-85036819D01*
X171005524Y-85036819D02*
X171196000Y-84322533D01*
X171196000Y-84322533D02*
X171386476Y-85036819D01*
X171386476Y-85036819D02*
X171624572Y-84036819D01*
X171910286Y-84036819D02*
X172529333Y-84036819D01*
X172529333Y-84036819D02*
X172196000Y-84417771D01*
X172196000Y-84417771D02*
X172338857Y-84417771D01*
X172338857Y-84417771D02*
X172434095Y-84465390D01*
X172434095Y-84465390D02*
X172481714Y-84513009D01*
X172481714Y-84513009D02*
X172529333Y-84608247D01*
X172529333Y-84608247D02*
X172529333Y-84846342D01*
X172529333Y-84846342D02*
X172481714Y-84941580D01*
X172481714Y-84941580D02*
X172434095Y-84989200D01*
X172434095Y-84989200D02*
X172338857Y-85036819D01*
X172338857Y-85036819D02*
X172053143Y-85036819D01*
X172053143Y-85036819D02*
X171957905Y-84989200D01*
X171957905Y-84989200D02*
X171910286Y-84941580D01*
X264890476Y-133249200D02*
X265033333Y-133296819D01*
X265033333Y-133296819D02*
X265271428Y-133296819D01*
X265271428Y-133296819D02*
X265366666Y-133249200D01*
X265366666Y-133249200D02*
X265414285Y-133201580D01*
X265414285Y-133201580D02*
X265461904Y-133106342D01*
X265461904Y-133106342D02*
X265461904Y-133011104D01*
X265461904Y-133011104D02*
X265414285Y-132915866D01*
X265414285Y-132915866D02*
X265366666Y-132868247D01*
X265366666Y-132868247D02*
X265271428Y-132820628D01*
X265271428Y-132820628D02*
X265080952Y-132773009D01*
X265080952Y-132773009D02*
X264985714Y-132725390D01*
X264985714Y-132725390D02*
X264938095Y-132677771D01*
X264938095Y-132677771D02*
X264890476Y-132582533D01*
X264890476Y-132582533D02*
X264890476Y-132487295D01*
X264890476Y-132487295D02*
X264938095Y-132392057D01*
X264938095Y-132392057D02*
X264985714Y-132344438D01*
X264985714Y-132344438D02*
X265080952Y-132296819D01*
X265080952Y-132296819D02*
X265319047Y-132296819D01*
X265319047Y-132296819D02*
X265461904Y-132344438D01*
X265795238Y-132296819D02*
X266033333Y-133296819D01*
X266033333Y-133296819D02*
X266223809Y-132582533D01*
X266223809Y-132582533D02*
X266414285Y-133296819D01*
X266414285Y-133296819D02*
X266652381Y-132296819D01*
X267557142Y-133296819D02*
X266985714Y-133296819D01*
X267271428Y-133296819D02*
X267271428Y-132296819D01*
X267271428Y-132296819D02*
X267176190Y-132439676D01*
X267176190Y-132439676D02*
X267080952Y-132534914D01*
X267080952Y-132534914D02*
X266985714Y-132582533D01*
X268509523Y-133296819D02*
X267938095Y-133296819D01*
X268223809Y-133296819D02*
X268223809Y-132296819D01*
X268223809Y-132296819D02*
X268128571Y-132439676D01*
X268128571Y-132439676D02*
X268033333Y-132534914D01*
X268033333Y-132534914D02*
X267938095Y-132582533D01*
X312896476Y-181509200D02*
X313039333Y-181556819D01*
X313039333Y-181556819D02*
X313277428Y-181556819D01*
X313277428Y-181556819D02*
X313372666Y-181509200D01*
X313372666Y-181509200D02*
X313420285Y-181461580D01*
X313420285Y-181461580D02*
X313467904Y-181366342D01*
X313467904Y-181366342D02*
X313467904Y-181271104D01*
X313467904Y-181271104D02*
X313420285Y-181175866D01*
X313420285Y-181175866D02*
X313372666Y-181128247D01*
X313372666Y-181128247D02*
X313277428Y-181080628D01*
X313277428Y-181080628D02*
X313086952Y-181033009D01*
X313086952Y-181033009D02*
X312991714Y-180985390D01*
X312991714Y-180985390D02*
X312944095Y-180937771D01*
X312944095Y-180937771D02*
X312896476Y-180842533D01*
X312896476Y-180842533D02*
X312896476Y-180747295D01*
X312896476Y-180747295D02*
X312944095Y-180652057D01*
X312944095Y-180652057D02*
X312991714Y-180604438D01*
X312991714Y-180604438D02*
X313086952Y-180556819D01*
X313086952Y-180556819D02*
X313325047Y-180556819D01*
X313325047Y-180556819D02*
X313467904Y-180604438D01*
X313801238Y-180556819D02*
X314039333Y-181556819D01*
X314039333Y-181556819D02*
X314229809Y-180842533D01*
X314229809Y-180842533D02*
X314420285Y-181556819D01*
X314420285Y-181556819D02*
X314658381Y-180556819D01*
X315563142Y-181556819D02*
X314991714Y-181556819D01*
X315277428Y-181556819D02*
X315277428Y-180556819D01*
X315277428Y-180556819D02*
X315182190Y-180699676D01*
X315182190Y-180699676D02*
X315086952Y-180794914D01*
X315086952Y-180794914D02*
X314991714Y-180842533D01*
X316134571Y-180985390D02*
X316039333Y-180937771D01*
X316039333Y-180937771D02*
X315991714Y-180890152D01*
X315991714Y-180890152D02*
X315944095Y-180794914D01*
X315944095Y-180794914D02*
X315944095Y-180747295D01*
X315944095Y-180747295D02*
X315991714Y-180652057D01*
X315991714Y-180652057D02*
X316039333Y-180604438D01*
X316039333Y-180604438D02*
X316134571Y-180556819D01*
X316134571Y-180556819D02*
X316325047Y-180556819D01*
X316325047Y-180556819D02*
X316420285Y-180604438D01*
X316420285Y-180604438D02*
X316467904Y-180652057D01*
X316467904Y-180652057D02*
X316515523Y-180747295D01*
X316515523Y-180747295D02*
X316515523Y-180794914D01*
X316515523Y-180794914D02*
X316467904Y-180890152D01*
X316467904Y-180890152D02*
X316420285Y-180937771D01*
X316420285Y-180937771D02*
X316325047Y-180985390D01*
X316325047Y-180985390D02*
X316134571Y-180985390D01*
X316134571Y-180985390D02*
X316039333Y-181033009D01*
X316039333Y-181033009D02*
X315991714Y-181080628D01*
X315991714Y-181080628D02*
X315944095Y-181175866D01*
X315944095Y-181175866D02*
X315944095Y-181366342D01*
X315944095Y-181366342D02*
X315991714Y-181461580D01*
X315991714Y-181461580D02*
X316039333Y-181509200D01*
X316039333Y-181509200D02*
X316134571Y-181556819D01*
X316134571Y-181556819D02*
X316325047Y-181556819D01*
X316325047Y-181556819D02*
X316420285Y-181509200D01*
X316420285Y-181509200D02*
X316467904Y-181461580D01*
X316467904Y-181461580D02*
X316515523Y-181366342D01*
X316515523Y-181366342D02*
X316515523Y-181175866D01*
X316515523Y-181175866D02*
X316467904Y-181080628D01*
X316467904Y-181080628D02*
X316420285Y-181033009D01*
X316420285Y-181033009D02*
X316325047Y-180985390D01*
X221209819Y-106878285D02*
X220209819Y-106878285D01*
X220209819Y-106878285D02*
X220209819Y-106640190D01*
X220209819Y-106640190D02*
X220257438Y-106497333D01*
X220257438Y-106497333D02*
X220352676Y-106402095D01*
X220352676Y-106402095D02*
X220447914Y-106354476D01*
X220447914Y-106354476D02*
X220638390Y-106306857D01*
X220638390Y-106306857D02*
X220781247Y-106306857D01*
X220781247Y-106306857D02*
X220971723Y-106354476D01*
X220971723Y-106354476D02*
X221066961Y-106402095D01*
X221066961Y-106402095D02*
X221162200Y-106497333D01*
X221162200Y-106497333D02*
X221209819Y-106640190D01*
X221209819Y-106640190D02*
X221209819Y-106878285D01*
X221209819Y-105354476D02*
X221209819Y-105925904D01*
X221209819Y-105640190D02*
X220209819Y-105640190D01*
X220209819Y-105640190D02*
X220352676Y-105735428D01*
X220352676Y-105735428D02*
X220447914Y-105830666D01*
X220447914Y-105830666D02*
X220495533Y-105925904D01*
X220209819Y-104735428D02*
X220209819Y-104640190D01*
X220209819Y-104640190D02*
X220257438Y-104544952D01*
X220257438Y-104544952D02*
X220305057Y-104497333D01*
X220305057Y-104497333D02*
X220400295Y-104449714D01*
X220400295Y-104449714D02*
X220590771Y-104402095D01*
X220590771Y-104402095D02*
X220828866Y-104402095D01*
X220828866Y-104402095D02*
X221019342Y-104449714D01*
X221019342Y-104449714D02*
X221114580Y-104497333D01*
X221114580Y-104497333D02*
X221162200Y-104544952D01*
X221162200Y-104544952D02*
X221209819Y-104640190D01*
X221209819Y-104640190D02*
X221209819Y-104735428D01*
X221209819Y-104735428D02*
X221162200Y-104830666D01*
X221162200Y-104830666D02*
X221114580Y-104878285D01*
X221114580Y-104878285D02*
X221019342Y-104925904D01*
X221019342Y-104925904D02*
X220828866Y-104973523D01*
X220828866Y-104973523D02*
X220590771Y-104973523D01*
X220590771Y-104973523D02*
X220400295Y-104925904D01*
X220400295Y-104925904D02*
X220305057Y-104878285D01*
X220305057Y-104878285D02*
X220257438Y-104830666D01*
X220257438Y-104830666D02*
X220209819Y-104735428D01*
X217614667Y-84989200D02*
X217757524Y-85036819D01*
X217757524Y-85036819D02*
X217995619Y-85036819D01*
X217995619Y-85036819D02*
X218090857Y-84989200D01*
X218090857Y-84989200D02*
X218138476Y-84941580D01*
X218138476Y-84941580D02*
X218186095Y-84846342D01*
X218186095Y-84846342D02*
X218186095Y-84751104D01*
X218186095Y-84751104D02*
X218138476Y-84655866D01*
X218138476Y-84655866D02*
X218090857Y-84608247D01*
X218090857Y-84608247D02*
X217995619Y-84560628D01*
X217995619Y-84560628D02*
X217805143Y-84513009D01*
X217805143Y-84513009D02*
X217709905Y-84465390D01*
X217709905Y-84465390D02*
X217662286Y-84417771D01*
X217662286Y-84417771D02*
X217614667Y-84322533D01*
X217614667Y-84322533D02*
X217614667Y-84227295D01*
X217614667Y-84227295D02*
X217662286Y-84132057D01*
X217662286Y-84132057D02*
X217709905Y-84084438D01*
X217709905Y-84084438D02*
X217805143Y-84036819D01*
X217805143Y-84036819D02*
X218043238Y-84036819D01*
X218043238Y-84036819D02*
X218186095Y-84084438D01*
X218519429Y-84036819D02*
X218757524Y-85036819D01*
X218757524Y-85036819D02*
X218948000Y-84322533D01*
X218948000Y-84322533D02*
X219138476Y-85036819D01*
X219138476Y-85036819D02*
X219376572Y-84036819D01*
X220186095Y-84370152D02*
X220186095Y-85036819D01*
X219948000Y-83989200D02*
X219709905Y-84703485D01*
X219709905Y-84703485D02*
X220328952Y-84703485D01*
X173352819Y-155266285D02*
X172352819Y-155266285D01*
X172352819Y-155266285D02*
X172352819Y-155028190D01*
X172352819Y-155028190D02*
X172400438Y-154885333D01*
X172400438Y-154885333D02*
X172495676Y-154790095D01*
X172495676Y-154790095D02*
X172590914Y-154742476D01*
X172590914Y-154742476D02*
X172781390Y-154694857D01*
X172781390Y-154694857D02*
X172924247Y-154694857D01*
X172924247Y-154694857D02*
X173114723Y-154742476D01*
X173114723Y-154742476D02*
X173209961Y-154790095D01*
X173209961Y-154790095D02*
X173305200Y-154885333D01*
X173305200Y-154885333D02*
X173352819Y-155028190D01*
X173352819Y-155028190D02*
X173352819Y-155266285D01*
X173352819Y-153742476D02*
X173352819Y-154313904D01*
X173352819Y-154028190D02*
X172352819Y-154028190D01*
X172352819Y-154028190D02*
X172495676Y-154123428D01*
X172495676Y-154123428D02*
X172590914Y-154218666D01*
X172590914Y-154218666D02*
X172638533Y-154313904D01*
X172352819Y-152837714D02*
X172352819Y-153313904D01*
X172352819Y-153313904D02*
X172829009Y-153361523D01*
X172829009Y-153361523D02*
X172781390Y-153313904D01*
X172781390Y-153313904D02*
X172733771Y-153218666D01*
X172733771Y-153218666D02*
X172733771Y-152980571D01*
X172733771Y-152980571D02*
X172781390Y-152885333D01*
X172781390Y-152885333D02*
X172829009Y-152837714D01*
X172829009Y-152837714D02*
X172924247Y-152790095D01*
X172924247Y-152790095D02*
X173162342Y-152790095D01*
X173162342Y-152790095D02*
X173257580Y-152837714D01*
X173257580Y-152837714D02*
X173305200Y-152885333D01*
X173305200Y-152885333D02*
X173352819Y-152980571D01*
X173352819Y-152980571D02*
X173352819Y-153218666D01*
X173352819Y-153218666D02*
X173305200Y-153313904D01*
X173305200Y-153313904D02*
X173257580Y-153361523D01*
X173352819Y-251912285D02*
X172352819Y-251912285D01*
X172352819Y-251912285D02*
X172352819Y-251674190D01*
X172352819Y-251674190D02*
X172400438Y-251531333D01*
X172400438Y-251531333D02*
X172495676Y-251436095D01*
X172495676Y-251436095D02*
X172590914Y-251388476D01*
X172590914Y-251388476D02*
X172781390Y-251340857D01*
X172781390Y-251340857D02*
X172924247Y-251340857D01*
X172924247Y-251340857D02*
X173114723Y-251388476D01*
X173114723Y-251388476D02*
X173209961Y-251436095D01*
X173209961Y-251436095D02*
X173305200Y-251531333D01*
X173305200Y-251531333D02*
X173352819Y-251674190D01*
X173352819Y-251674190D02*
X173352819Y-251912285D01*
X172448057Y-250959904D02*
X172400438Y-250912285D01*
X172400438Y-250912285D02*
X172352819Y-250817047D01*
X172352819Y-250817047D02*
X172352819Y-250578952D01*
X172352819Y-250578952D02*
X172400438Y-250483714D01*
X172400438Y-250483714D02*
X172448057Y-250436095D01*
X172448057Y-250436095D02*
X172543295Y-250388476D01*
X172543295Y-250388476D02*
X172638533Y-250388476D01*
X172638533Y-250388476D02*
X172781390Y-250436095D01*
X172781390Y-250436095D02*
X173352819Y-251007523D01*
X173352819Y-251007523D02*
X173352819Y-250388476D01*
X172352819Y-250055142D02*
X172352819Y-249388476D01*
X172352819Y-249388476D02*
X173352819Y-249817047D01*
X74104667Y-133249200D02*
X74247524Y-133296819D01*
X74247524Y-133296819D02*
X74485619Y-133296819D01*
X74485619Y-133296819D02*
X74580857Y-133249200D01*
X74580857Y-133249200D02*
X74628476Y-133201580D01*
X74628476Y-133201580D02*
X74676095Y-133106342D01*
X74676095Y-133106342D02*
X74676095Y-133011104D01*
X74676095Y-133011104D02*
X74628476Y-132915866D01*
X74628476Y-132915866D02*
X74580857Y-132868247D01*
X74580857Y-132868247D02*
X74485619Y-132820628D01*
X74485619Y-132820628D02*
X74295143Y-132773009D01*
X74295143Y-132773009D02*
X74199905Y-132725390D01*
X74199905Y-132725390D02*
X74152286Y-132677771D01*
X74152286Y-132677771D02*
X74104667Y-132582533D01*
X74104667Y-132582533D02*
X74104667Y-132487295D01*
X74104667Y-132487295D02*
X74152286Y-132392057D01*
X74152286Y-132392057D02*
X74199905Y-132344438D01*
X74199905Y-132344438D02*
X74295143Y-132296819D01*
X74295143Y-132296819D02*
X74533238Y-132296819D01*
X74533238Y-132296819D02*
X74676095Y-132344438D01*
X75009429Y-132296819D02*
X75247524Y-133296819D01*
X75247524Y-133296819D02*
X75438000Y-132582533D01*
X75438000Y-132582533D02*
X75628476Y-133296819D01*
X75628476Y-133296819D02*
X75866572Y-132296819D01*
X76152286Y-132296819D02*
X76818952Y-132296819D01*
X76818952Y-132296819D02*
X76390381Y-133296819D01*
X77638819Y-58142094D02*
X76638819Y-58142094D01*
X76638819Y-58142094D02*
X76638819Y-57903999D01*
X76638819Y-57903999D02*
X76686438Y-57761142D01*
X76686438Y-57761142D02*
X76781676Y-57665904D01*
X76781676Y-57665904D02*
X76876914Y-57618285D01*
X76876914Y-57618285D02*
X77067390Y-57570666D01*
X77067390Y-57570666D02*
X77210247Y-57570666D01*
X77210247Y-57570666D02*
X77400723Y-57618285D01*
X77400723Y-57618285D02*
X77495961Y-57665904D01*
X77495961Y-57665904D02*
X77591200Y-57761142D01*
X77591200Y-57761142D02*
X77638819Y-57903999D01*
X77638819Y-57903999D02*
X77638819Y-58142094D01*
X77638819Y-56618285D02*
X77638819Y-57189713D01*
X77638819Y-56903999D02*
X76638819Y-56903999D01*
X76638819Y-56903999D02*
X76781676Y-56999237D01*
X76781676Y-56999237D02*
X76876914Y-57094475D01*
X76876914Y-57094475D02*
X76924533Y-57189713D01*
X73628476Y-181509200D02*
X73771333Y-181556819D01*
X73771333Y-181556819D02*
X74009428Y-181556819D01*
X74009428Y-181556819D02*
X74104666Y-181509200D01*
X74104666Y-181509200D02*
X74152285Y-181461580D01*
X74152285Y-181461580D02*
X74199904Y-181366342D01*
X74199904Y-181366342D02*
X74199904Y-181271104D01*
X74199904Y-181271104D02*
X74152285Y-181175866D01*
X74152285Y-181175866D02*
X74104666Y-181128247D01*
X74104666Y-181128247D02*
X74009428Y-181080628D01*
X74009428Y-181080628D02*
X73818952Y-181033009D01*
X73818952Y-181033009D02*
X73723714Y-180985390D01*
X73723714Y-180985390D02*
X73676095Y-180937771D01*
X73676095Y-180937771D02*
X73628476Y-180842533D01*
X73628476Y-180842533D02*
X73628476Y-180747295D01*
X73628476Y-180747295D02*
X73676095Y-180652057D01*
X73676095Y-180652057D02*
X73723714Y-180604438D01*
X73723714Y-180604438D02*
X73818952Y-180556819D01*
X73818952Y-180556819D02*
X74057047Y-180556819D01*
X74057047Y-180556819D02*
X74199904Y-180604438D01*
X74533238Y-180556819D02*
X74771333Y-181556819D01*
X74771333Y-181556819D02*
X74961809Y-180842533D01*
X74961809Y-180842533D02*
X75152285Y-181556819D01*
X75152285Y-181556819D02*
X75390381Y-180556819D01*
X76295142Y-181556819D02*
X75723714Y-181556819D01*
X76009428Y-181556819D02*
X76009428Y-180556819D01*
X76009428Y-180556819D02*
X75914190Y-180699676D01*
X75914190Y-180699676D02*
X75818952Y-180794914D01*
X75818952Y-180794914D02*
X75723714Y-180842533D01*
X76628476Y-180556819D02*
X77247523Y-180556819D01*
X77247523Y-180556819D02*
X76914190Y-180937771D01*
X76914190Y-180937771D02*
X77057047Y-180937771D01*
X77057047Y-180937771D02*
X77152285Y-180985390D01*
X77152285Y-180985390D02*
X77199904Y-181033009D01*
X77199904Y-181033009D02*
X77247523Y-181128247D01*
X77247523Y-181128247D02*
X77247523Y-181366342D01*
X77247523Y-181366342D02*
X77199904Y-181461580D01*
X77199904Y-181461580D02*
X77152285Y-181509200D01*
X77152285Y-181509200D02*
X77057047Y-181556819D01*
X77057047Y-181556819D02*
X76771333Y-181556819D01*
X76771333Y-181556819D02*
X76676095Y-181509200D01*
X76676095Y-181509200D02*
X76628476Y-181461580D01*
X121634476Y-181509200D02*
X121777333Y-181556819D01*
X121777333Y-181556819D02*
X122015428Y-181556819D01*
X122015428Y-181556819D02*
X122110666Y-181509200D01*
X122110666Y-181509200D02*
X122158285Y-181461580D01*
X122158285Y-181461580D02*
X122205904Y-181366342D01*
X122205904Y-181366342D02*
X122205904Y-181271104D01*
X122205904Y-181271104D02*
X122158285Y-181175866D01*
X122158285Y-181175866D02*
X122110666Y-181128247D01*
X122110666Y-181128247D02*
X122015428Y-181080628D01*
X122015428Y-181080628D02*
X121824952Y-181033009D01*
X121824952Y-181033009D02*
X121729714Y-180985390D01*
X121729714Y-180985390D02*
X121682095Y-180937771D01*
X121682095Y-180937771D02*
X121634476Y-180842533D01*
X121634476Y-180842533D02*
X121634476Y-180747295D01*
X121634476Y-180747295D02*
X121682095Y-180652057D01*
X121682095Y-180652057D02*
X121729714Y-180604438D01*
X121729714Y-180604438D02*
X121824952Y-180556819D01*
X121824952Y-180556819D02*
X122063047Y-180556819D01*
X122063047Y-180556819D02*
X122205904Y-180604438D01*
X122539238Y-180556819D02*
X122777333Y-181556819D01*
X122777333Y-181556819D02*
X122967809Y-180842533D01*
X122967809Y-180842533D02*
X123158285Y-181556819D01*
X123158285Y-181556819D02*
X123396381Y-180556819D01*
X124301142Y-181556819D02*
X123729714Y-181556819D01*
X124015428Y-181556819D02*
X124015428Y-180556819D01*
X124015428Y-180556819D02*
X123920190Y-180699676D01*
X123920190Y-180699676D02*
X123824952Y-180794914D01*
X123824952Y-180794914D02*
X123729714Y-180842533D01*
X125158285Y-180890152D02*
X125158285Y-181556819D01*
X124920190Y-180509200D02*
X124682095Y-181223485D01*
X124682095Y-181223485D02*
X125301142Y-181223485D01*
X264890476Y-278283200D02*
X265033333Y-278330819D01*
X265033333Y-278330819D02*
X265271428Y-278330819D01*
X265271428Y-278330819D02*
X265366666Y-278283200D01*
X265366666Y-278283200D02*
X265414285Y-278235580D01*
X265414285Y-278235580D02*
X265461904Y-278140342D01*
X265461904Y-278140342D02*
X265461904Y-278045104D01*
X265461904Y-278045104D02*
X265414285Y-277949866D01*
X265414285Y-277949866D02*
X265366666Y-277902247D01*
X265366666Y-277902247D02*
X265271428Y-277854628D01*
X265271428Y-277854628D02*
X265080952Y-277807009D01*
X265080952Y-277807009D02*
X264985714Y-277759390D01*
X264985714Y-277759390D02*
X264938095Y-277711771D01*
X264938095Y-277711771D02*
X264890476Y-277616533D01*
X264890476Y-277616533D02*
X264890476Y-277521295D01*
X264890476Y-277521295D02*
X264938095Y-277426057D01*
X264938095Y-277426057D02*
X264985714Y-277378438D01*
X264985714Y-277378438D02*
X265080952Y-277330819D01*
X265080952Y-277330819D02*
X265319047Y-277330819D01*
X265319047Y-277330819D02*
X265461904Y-277378438D01*
X265795238Y-277330819D02*
X266033333Y-278330819D01*
X266033333Y-278330819D02*
X266223809Y-277616533D01*
X266223809Y-277616533D02*
X266414285Y-278330819D01*
X266414285Y-278330819D02*
X266652381Y-277330819D01*
X266985714Y-277426057D02*
X267033333Y-277378438D01*
X267033333Y-277378438D02*
X267128571Y-277330819D01*
X267128571Y-277330819D02*
X267366666Y-277330819D01*
X267366666Y-277330819D02*
X267461904Y-277378438D01*
X267461904Y-277378438D02*
X267509523Y-277426057D01*
X267509523Y-277426057D02*
X267557142Y-277521295D01*
X267557142Y-277521295D02*
X267557142Y-277616533D01*
X267557142Y-277616533D02*
X267509523Y-277759390D01*
X267509523Y-277759390D02*
X266938095Y-278330819D01*
X266938095Y-278330819D02*
X267557142Y-278330819D01*
X268033333Y-278330819D02*
X268223809Y-278330819D01*
X268223809Y-278330819D02*
X268319047Y-278283200D01*
X268319047Y-278283200D02*
X268366666Y-278235580D01*
X268366666Y-278235580D02*
X268461904Y-278092723D01*
X268461904Y-278092723D02*
X268509523Y-277902247D01*
X268509523Y-277902247D02*
X268509523Y-277521295D01*
X268509523Y-277521295D02*
X268461904Y-277426057D01*
X268461904Y-277426057D02*
X268414285Y-277378438D01*
X268414285Y-277378438D02*
X268319047Y-277330819D01*
X268319047Y-277330819D02*
X268128571Y-277330819D01*
X268128571Y-277330819D02*
X268033333Y-277378438D01*
X268033333Y-277378438D02*
X267985714Y-277426057D01*
X267985714Y-277426057D02*
X267938095Y-277521295D01*
X267938095Y-277521295D02*
X267938095Y-277759390D01*
X267938095Y-277759390D02*
X267985714Y-277854628D01*
X267985714Y-277854628D02*
X268033333Y-277902247D01*
X268033333Y-277902247D02*
X268128571Y-277949866D01*
X268128571Y-277949866D02*
X268319047Y-277949866D01*
X268319047Y-277949866D02*
X268414285Y-277902247D01*
X268414285Y-277902247D02*
X268461904Y-277854628D01*
X268461904Y-277854628D02*
X268509523Y-277759390D01*
X221209819Y-155392285D02*
X220209819Y-155392285D01*
X220209819Y-155392285D02*
X220209819Y-155154190D01*
X220209819Y-155154190D02*
X220257438Y-155011333D01*
X220257438Y-155011333D02*
X220352676Y-154916095D01*
X220352676Y-154916095D02*
X220447914Y-154868476D01*
X220447914Y-154868476D02*
X220638390Y-154820857D01*
X220638390Y-154820857D02*
X220781247Y-154820857D01*
X220781247Y-154820857D02*
X220971723Y-154868476D01*
X220971723Y-154868476D02*
X221066961Y-154916095D01*
X221066961Y-154916095D02*
X221162200Y-155011333D01*
X221162200Y-155011333D02*
X221209819Y-155154190D01*
X221209819Y-155154190D02*
X221209819Y-155392285D01*
X221209819Y-153868476D02*
X221209819Y-154439904D01*
X221209819Y-154154190D02*
X220209819Y-154154190D01*
X220209819Y-154154190D02*
X220352676Y-154249428D01*
X220352676Y-154249428D02*
X220447914Y-154344666D01*
X220447914Y-154344666D02*
X220495533Y-154439904D01*
X220209819Y-153011333D02*
X220209819Y-153201809D01*
X220209819Y-153201809D02*
X220257438Y-153297047D01*
X220257438Y-153297047D02*
X220305057Y-153344666D01*
X220305057Y-153344666D02*
X220447914Y-153439904D01*
X220447914Y-153439904D02*
X220638390Y-153487523D01*
X220638390Y-153487523D02*
X221019342Y-153487523D01*
X221019342Y-153487523D02*
X221114580Y-153439904D01*
X221114580Y-153439904D02*
X221162200Y-153392285D01*
X221162200Y-153392285D02*
X221209819Y-153297047D01*
X221209819Y-153297047D02*
X221209819Y-153106571D01*
X221209819Y-153106571D02*
X221162200Y-153011333D01*
X221162200Y-153011333D02*
X221114580Y-152963714D01*
X221114580Y-152963714D02*
X221019342Y-152916095D01*
X221019342Y-152916095D02*
X220781247Y-152916095D01*
X220781247Y-152916095D02*
X220686009Y-152963714D01*
X220686009Y-152963714D02*
X220638390Y-153011333D01*
X220638390Y-153011333D02*
X220590771Y-153106571D01*
X220590771Y-153106571D02*
X220590771Y-153297047D01*
X220590771Y-153297047D02*
X220638390Y-153392285D01*
X220638390Y-153392285D02*
X220686009Y-153439904D01*
X220686009Y-153439904D02*
X220781247Y-153487523D01*
X121634476Y-278283200D02*
X121777333Y-278330819D01*
X121777333Y-278330819D02*
X122015428Y-278330819D01*
X122015428Y-278330819D02*
X122110666Y-278283200D01*
X122110666Y-278283200D02*
X122158285Y-278235580D01*
X122158285Y-278235580D02*
X122205904Y-278140342D01*
X122205904Y-278140342D02*
X122205904Y-278045104D01*
X122205904Y-278045104D02*
X122158285Y-277949866D01*
X122158285Y-277949866D02*
X122110666Y-277902247D01*
X122110666Y-277902247D02*
X122015428Y-277854628D01*
X122015428Y-277854628D02*
X121824952Y-277807009D01*
X121824952Y-277807009D02*
X121729714Y-277759390D01*
X121729714Y-277759390D02*
X121682095Y-277711771D01*
X121682095Y-277711771D02*
X121634476Y-277616533D01*
X121634476Y-277616533D02*
X121634476Y-277521295D01*
X121634476Y-277521295D02*
X121682095Y-277426057D01*
X121682095Y-277426057D02*
X121729714Y-277378438D01*
X121729714Y-277378438D02*
X121824952Y-277330819D01*
X121824952Y-277330819D02*
X122063047Y-277330819D01*
X122063047Y-277330819D02*
X122205904Y-277378438D01*
X122539238Y-277330819D02*
X122777333Y-278330819D01*
X122777333Y-278330819D02*
X122967809Y-277616533D01*
X122967809Y-277616533D02*
X123158285Y-278330819D01*
X123158285Y-278330819D02*
X123396381Y-277330819D01*
X123729714Y-277426057D02*
X123777333Y-277378438D01*
X123777333Y-277378438D02*
X123872571Y-277330819D01*
X123872571Y-277330819D02*
X124110666Y-277330819D01*
X124110666Y-277330819D02*
X124205904Y-277378438D01*
X124205904Y-277378438D02*
X124253523Y-277426057D01*
X124253523Y-277426057D02*
X124301142Y-277521295D01*
X124301142Y-277521295D02*
X124301142Y-277616533D01*
X124301142Y-277616533D02*
X124253523Y-277759390D01*
X124253523Y-277759390D02*
X123682095Y-278330819D01*
X123682095Y-278330819D02*
X124301142Y-278330819D01*
X125158285Y-277330819D02*
X124967809Y-277330819D01*
X124967809Y-277330819D02*
X124872571Y-277378438D01*
X124872571Y-277378438D02*
X124824952Y-277426057D01*
X124824952Y-277426057D02*
X124729714Y-277568914D01*
X124729714Y-277568914D02*
X124682095Y-277759390D01*
X124682095Y-277759390D02*
X124682095Y-278140342D01*
X124682095Y-278140342D02*
X124729714Y-278235580D01*
X124729714Y-278235580D02*
X124777333Y-278283200D01*
X124777333Y-278283200D02*
X124872571Y-278330819D01*
X124872571Y-278330819D02*
X125063047Y-278330819D01*
X125063047Y-278330819D02*
X125158285Y-278283200D01*
X125158285Y-278283200D02*
X125205904Y-278235580D01*
X125205904Y-278235580D02*
X125253523Y-278140342D01*
X125253523Y-278140342D02*
X125253523Y-277902247D01*
X125253523Y-277902247D02*
X125205904Y-277807009D01*
X125205904Y-277807009D02*
X125158285Y-277759390D01*
X125158285Y-277759390D02*
X125063047Y-277711771D01*
X125063047Y-277711771D02*
X124872571Y-277711771D01*
X124872571Y-277711771D02*
X124777333Y-277759390D01*
X124777333Y-277759390D02*
X124729714Y-277807009D01*
X124729714Y-277807009D02*
X124682095Y-277902247D01*
X173352819Y-106402094D02*
X172352819Y-106402094D01*
X172352819Y-106402094D02*
X172352819Y-106163999D01*
X172352819Y-106163999D02*
X172400438Y-106021142D01*
X172400438Y-106021142D02*
X172495676Y-105925904D01*
X172495676Y-105925904D02*
X172590914Y-105878285D01*
X172590914Y-105878285D02*
X172781390Y-105830666D01*
X172781390Y-105830666D02*
X172924247Y-105830666D01*
X172924247Y-105830666D02*
X173114723Y-105878285D01*
X173114723Y-105878285D02*
X173209961Y-105925904D01*
X173209961Y-105925904D02*
X173305200Y-106021142D01*
X173305200Y-106021142D02*
X173352819Y-106163999D01*
X173352819Y-106163999D02*
X173352819Y-106402094D01*
X173352819Y-105354475D02*
X173352819Y-105163999D01*
X173352819Y-105163999D02*
X173305200Y-105068761D01*
X173305200Y-105068761D02*
X173257580Y-105021142D01*
X173257580Y-105021142D02*
X173114723Y-104925904D01*
X173114723Y-104925904D02*
X172924247Y-104878285D01*
X172924247Y-104878285D02*
X172543295Y-104878285D01*
X172543295Y-104878285D02*
X172448057Y-104925904D01*
X172448057Y-104925904D02*
X172400438Y-104973523D01*
X172400438Y-104973523D02*
X172352819Y-105068761D01*
X172352819Y-105068761D02*
X172352819Y-105259237D01*
X172352819Y-105259237D02*
X172400438Y-105354475D01*
X172400438Y-105354475D02*
X172448057Y-105402094D01*
X172448057Y-105402094D02*
X172543295Y-105449713D01*
X172543295Y-105449713D02*
X172781390Y-105449713D01*
X172781390Y-105449713D02*
X172876628Y-105402094D01*
X172876628Y-105402094D02*
X172924247Y-105354475D01*
X172924247Y-105354475D02*
X172971866Y-105259237D01*
X172971866Y-105259237D02*
X172971866Y-105068761D01*
X172971866Y-105068761D02*
X172924247Y-104973523D01*
X172924247Y-104973523D02*
X172876628Y-104925904D01*
X172876628Y-104925904D02*
X172781390Y-104878285D01*
X265620667Y-84989200D02*
X265763524Y-85036819D01*
X265763524Y-85036819D02*
X266001619Y-85036819D01*
X266001619Y-85036819D02*
X266096857Y-84989200D01*
X266096857Y-84989200D02*
X266144476Y-84941580D01*
X266144476Y-84941580D02*
X266192095Y-84846342D01*
X266192095Y-84846342D02*
X266192095Y-84751104D01*
X266192095Y-84751104D02*
X266144476Y-84655866D01*
X266144476Y-84655866D02*
X266096857Y-84608247D01*
X266096857Y-84608247D02*
X266001619Y-84560628D01*
X266001619Y-84560628D02*
X265811143Y-84513009D01*
X265811143Y-84513009D02*
X265715905Y-84465390D01*
X265715905Y-84465390D02*
X265668286Y-84417771D01*
X265668286Y-84417771D02*
X265620667Y-84322533D01*
X265620667Y-84322533D02*
X265620667Y-84227295D01*
X265620667Y-84227295D02*
X265668286Y-84132057D01*
X265668286Y-84132057D02*
X265715905Y-84084438D01*
X265715905Y-84084438D02*
X265811143Y-84036819D01*
X265811143Y-84036819D02*
X266049238Y-84036819D01*
X266049238Y-84036819D02*
X266192095Y-84084438D01*
X266525429Y-84036819D02*
X266763524Y-85036819D01*
X266763524Y-85036819D02*
X266954000Y-84322533D01*
X266954000Y-84322533D02*
X267144476Y-85036819D01*
X267144476Y-85036819D02*
X267382572Y-84036819D01*
X268239714Y-84036819D02*
X267763524Y-84036819D01*
X267763524Y-84036819D02*
X267715905Y-84513009D01*
X267715905Y-84513009D02*
X267763524Y-84465390D01*
X267763524Y-84465390D02*
X267858762Y-84417771D01*
X267858762Y-84417771D02*
X268096857Y-84417771D01*
X268096857Y-84417771D02*
X268192095Y-84465390D01*
X268192095Y-84465390D02*
X268239714Y-84513009D01*
X268239714Y-84513009D02*
X268287333Y-84608247D01*
X268287333Y-84608247D02*
X268287333Y-84846342D01*
X268287333Y-84846342D02*
X268239714Y-84941580D01*
X268239714Y-84941580D02*
X268192095Y-84989200D01*
X268192095Y-84989200D02*
X268096857Y-85036819D01*
X268096857Y-85036819D02*
X267858762Y-85036819D01*
X267858762Y-85036819D02*
X267763524Y-84989200D01*
X267763524Y-84989200D02*
X267715905Y-84941580D01*
X312896476Y-133249200D02*
X313039333Y-133296819D01*
X313039333Y-133296819D02*
X313277428Y-133296819D01*
X313277428Y-133296819D02*
X313372666Y-133249200D01*
X313372666Y-133249200D02*
X313420285Y-133201580D01*
X313420285Y-133201580D02*
X313467904Y-133106342D01*
X313467904Y-133106342D02*
X313467904Y-133011104D01*
X313467904Y-133011104D02*
X313420285Y-132915866D01*
X313420285Y-132915866D02*
X313372666Y-132868247D01*
X313372666Y-132868247D02*
X313277428Y-132820628D01*
X313277428Y-132820628D02*
X313086952Y-132773009D01*
X313086952Y-132773009D02*
X312991714Y-132725390D01*
X312991714Y-132725390D02*
X312944095Y-132677771D01*
X312944095Y-132677771D02*
X312896476Y-132582533D01*
X312896476Y-132582533D02*
X312896476Y-132487295D01*
X312896476Y-132487295D02*
X312944095Y-132392057D01*
X312944095Y-132392057D02*
X312991714Y-132344438D01*
X312991714Y-132344438D02*
X313086952Y-132296819D01*
X313086952Y-132296819D02*
X313325047Y-132296819D01*
X313325047Y-132296819D02*
X313467904Y-132344438D01*
X313801238Y-132296819D02*
X314039333Y-133296819D01*
X314039333Y-133296819D02*
X314229809Y-132582533D01*
X314229809Y-132582533D02*
X314420285Y-133296819D01*
X314420285Y-133296819D02*
X314658381Y-132296819D01*
X315563142Y-133296819D02*
X314991714Y-133296819D01*
X315277428Y-133296819D02*
X315277428Y-132296819D01*
X315277428Y-132296819D02*
X315182190Y-132439676D01*
X315182190Y-132439676D02*
X315086952Y-132534914D01*
X315086952Y-132534914D02*
X314991714Y-132582533D01*
X315944095Y-132392057D02*
X315991714Y-132344438D01*
X315991714Y-132344438D02*
X316086952Y-132296819D01*
X316086952Y-132296819D02*
X316325047Y-132296819D01*
X316325047Y-132296819D02*
X316420285Y-132344438D01*
X316420285Y-132344438D02*
X316467904Y-132392057D01*
X316467904Y-132392057D02*
X316515523Y-132487295D01*
X316515523Y-132487295D02*
X316515523Y-132582533D01*
X316515523Y-132582533D02*
X316467904Y-132725390D01*
X316467904Y-132725390D02*
X315896476Y-133296819D01*
X315896476Y-133296819D02*
X316515523Y-133296819D01*
X269066819Y-203652285D02*
X268066819Y-203652285D01*
X268066819Y-203652285D02*
X268066819Y-203414190D01*
X268066819Y-203414190D02*
X268114438Y-203271333D01*
X268114438Y-203271333D02*
X268209676Y-203176095D01*
X268209676Y-203176095D02*
X268304914Y-203128476D01*
X268304914Y-203128476D02*
X268495390Y-203080857D01*
X268495390Y-203080857D02*
X268638247Y-203080857D01*
X268638247Y-203080857D02*
X268828723Y-203128476D01*
X268828723Y-203128476D02*
X268923961Y-203176095D01*
X268923961Y-203176095D02*
X269019200Y-203271333D01*
X269019200Y-203271333D02*
X269066819Y-203414190D01*
X269066819Y-203414190D02*
X269066819Y-203652285D01*
X268162057Y-202699904D02*
X268114438Y-202652285D01*
X268114438Y-202652285D02*
X268066819Y-202557047D01*
X268066819Y-202557047D02*
X268066819Y-202318952D01*
X268066819Y-202318952D02*
X268114438Y-202223714D01*
X268114438Y-202223714D02*
X268162057Y-202176095D01*
X268162057Y-202176095D02*
X268257295Y-202128476D01*
X268257295Y-202128476D02*
X268352533Y-202128476D01*
X268352533Y-202128476D02*
X268495390Y-202176095D01*
X268495390Y-202176095D02*
X269066819Y-202747523D01*
X269066819Y-202747523D02*
X269066819Y-202128476D01*
X268066819Y-201795142D02*
X268066819Y-201176095D01*
X268066819Y-201176095D02*
X268447771Y-201509428D01*
X268447771Y-201509428D02*
X268447771Y-201366571D01*
X268447771Y-201366571D02*
X268495390Y-201271333D01*
X268495390Y-201271333D02*
X268543009Y-201223714D01*
X268543009Y-201223714D02*
X268638247Y-201176095D01*
X268638247Y-201176095D02*
X268876342Y-201176095D01*
X268876342Y-201176095D02*
X268971580Y-201223714D01*
X268971580Y-201223714D02*
X269019200Y-201271333D01*
X269019200Y-201271333D02*
X269066819Y-201366571D01*
X269066819Y-201366571D02*
X269066819Y-201652285D01*
X269066819Y-201652285D02*
X269019200Y-201747523D01*
X269019200Y-201747523D02*
X268971580Y-201795142D01*
X77638819Y-106402094D02*
X76638819Y-106402094D01*
X76638819Y-106402094D02*
X76638819Y-106163999D01*
X76638819Y-106163999D02*
X76686438Y-106021142D01*
X76686438Y-106021142D02*
X76781676Y-105925904D01*
X76781676Y-105925904D02*
X76876914Y-105878285D01*
X76876914Y-105878285D02*
X77067390Y-105830666D01*
X77067390Y-105830666D02*
X77210247Y-105830666D01*
X77210247Y-105830666D02*
X77400723Y-105878285D01*
X77400723Y-105878285D02*
X77495961Y-105925904D01*
X77495961Y-105925904D02*
X77591200Y-106021142D01*
X77591200Y-106021142D02*
X77638819Y-106163999D01*
X77638819Y-106163999D02*
X77638819Y-106402094D01*
X76638819Y-105497332D02*
X76638819Y-104830666D01*
X76638819Y-104830666D02*
X77638819Y-105259237D01*
X125495819Y-58142094D02*
X124495819Y-58142094D01*
X124495819Y-58142094D02*
X124495819Y-57903999D01*
X124495819Y-57903999D02*
X124543438Y-57761142D01*
X124543438Y-57761142D02*
X124638676Y-57665904D01*
X124638676Y-57665904D02*
X124733914Y-57618285D01*
X124733914Y-57618285D02*
X124924390Y-57570666D01*
X124924390Y-57570666D02*
X125067247Y-57570666D01*
X125067247Y-57570666D02*
X125257723Y-57618285D01*
X125257723Y-57618285D02*
X125352961Y-57665904D01*
X125352961Y-57665904D02*
X125448200Y-57761142D01*
X125448200Y-57761142D02*
X125495819Y-57903999D01*
X125495819Y-57903999D02*
X125495819Y-58142094D01*
X124591057Y-57189713D02*
X124543438Y-57142094D01*
X124543438Y-57142094D02*
X124495819Y-57046856D01*
X124495819Y-57046856D02*
X124495819Y-56808761D01*
X124495819Y-56808761D02*
X124543438Y-56713523D01*
X124543438Y-56713523D02*
X124591057Y-56665904D01*
X124591057Y-56665904D02*
X124686295Y-56618285D01*
X124686295Y-56618285D02*
X124781533Y-56618285D01*
X124781533Y-56618285D02*
X124924390Y-56665904D01*
X124924390Y-56665904D02*
X125495819Y-57237332D01*
X125495819Y-57237332D02*
X125495819Y-56618285D01*
X316906819Y-58142094D02*
X315906819Y-58142094D01*
X315906819Y-58142094D02*
X315906819Y-57903999D01*
X315906819Y-57903999D02*
X315954438Y-57761142D01*
X315954438Y-57761142D02*
X316049676Y-57665904D01*
X316049676Y-57665904D02*
X316144914Y-57618285D01*
X316144914Y-57618285D02*
X316335390Y-57570666D01*
X316335390Y-57570666D02*
X316478247Y-57570666D01*
X316478247Y-57570666D02*
X316668723Y-57618285D01*
X316668723Y-57618285D02*
X316763961Y-57665904D01*
X316763961Y-57665904D02*
X316859200Y-57761142D01*
X316859200Y-57761142D02*
X316906819Y-57903999D01*
X316906819Y-57903999D02*
X316906819Y-58142094D01*
X315906819Y-56713523D02*
X315906819Y-56903999D01*
X315906819Y-56903999D02*
X315954438Y-56999237D01*
X315954438Y-56999237D02*
X316002057Y-57046856D01*
X316002057Y-57046856D02*
X316144914Y-57142094D01*
X316144914Y-57142094D02*
X316335390Y-57189713D01*
X316335390Y-57189713D02*
X316716342Y-57189713D01*
X316716342Y-57189713D02*
X316811580Y-57142094D01*
X316811580Y-57142094D02*
X316859200Y-57094475D01*
X316859200Y-57094475D02*
X316906819Y-56999237D01*
X316906819Y-56999237D02*
X316906819Y-56808761D01*
X316906819Y-56808761D02*
X316859200Y-56713523D01*
X316859200Y-56713523D02*
X316811580Y-56665904D01*
X316811580Y-56665904D02*
X316716342Y-56618285D01*
X316716342Y-56618285D02*
X316478247Y-56618285D01*
X316478247Y-56618285D02*
X316383009Y-56665904D01*
X316383009Y-56665904D02*
X316335390Y-56713523D01*
X316335390Y-56713523D02*
X316287771Y-56808761D01*
X316287771Y-56808761D02*
X316287771Y-56999237D01*
X316287771Y-56999237D02*
X316335390Y-57094475D01*
X316335390Y-57094475D02*
X316383009Y-57142094D01*
X316383009Y-57142094D02*
X316478247Y-57189713D01*
X173352819Y-203652285D02*
X172352819Y-203652285D01*
X172352819Y-203652285D02*
X172352819Y-203414190D01*
X172352819Y-203414190D02*
X172400438Y-203271333D01*
X172400438Y-203271333D02*
X172495676Y-203176095D01*
X172495676Y-203176095D02*
X172590914Y-203128476D01*
X172590914Y-203128476D02*
X172781390Y-203080857D01*
X172781390Y-203080857D02*
X172924247Y-203080857D01*
X172924247Y-203080857D02*
X173114723Y-203128476D01*
X173114723Y-203128476D02*
X173209961Y-203176095D01*
X173209961Y-203176095D02*
X173305200Y-203271333D01*
X173305200Y-203271333D02*
X173352819Y-203414190D01*
X173352819Y-203414190D02*
X173352819Y-203652285D01*
X172448057Y-202699904D02*
X172400438Y-202652285D01*
X172400438Y-202652285D02*
X172352819Y-202557047D01*
X172352819Y-202557047D02*
X172352819Y-202318952D01*
X172352819Y-202318952D02*
X172400438Y-202223714D01*
X172400438Y-202223714D02*
X172448057Y-202176095D01*
X172448057Y-202176095D02*
X172543295Y-202128476D01*
X172543295Y-202128476D02*
X172638533Y-202128476D01*
X172638533Y-202128476D02*
X172781390Y-202176095D01*
X172781390Y-202176095D02*
X173352819Y-202747523D01*
X173352819Y-202747523D02*
X173352819Y-202128476D01*
X173352819Y-201176095D02*
X173352819Y-201747523D01*
X173352819Y-201461809D02*
X172352819Y-201461809D01*
X172352819Y-201461809D02*
X172495676Y-201557047D01*
X172495676Y-201557047D02*
X172590914Y-201652285D01*
X172590914Y-201652285D02*
X172638533Y-201747523D01*
X316923819Y-107006285D02*
X315923819Y-107006285D01*
X315923819Y-107006285D02*
X315923819Y-106768190D01*
X315923819Y-106768190D02*
X315971438Y-106625333D01*
X315971438Y-106625333D02*
X316066676Y-106530095D01*
X316066676Y-106530095D02*
X316161914Y-106482476D01*
X316161914Y-106482476D02*
X316352390Y-106434857D01*
X316352390Y-106434857D02*
X316495247Y-106434857D01*
X316495247Y-106434857D02*
X316685723Y-106482476D01*
X316685723Y-106482476D02*
X316780961Y-106530095D01*
X316780961Y-106530095D02*
X316876200Y-106625333D01*
X316876200Y-106625333D02*
X316923819Y-106768190D01*
X316923819Y-106768190D02*
X316923819Y-107006285D01*
X316923819Y-105482476D02*
X316923819Y-106053904D01*
X316923819Y-105768190D02*
X315923819Y-105768190D01*
X315923819Y-105768190D02*
X316066676Y-105863428D01*
X316066676Y-105863428D02*
X316161914Y-105958666D01*
X316161914Y-105958666D02*
X316209533Y-106053904D01*
X316019057Y-105101523D02*
X315971438Y-105053904D01*
X315971438Y-105053904D02*
X315923819Y-104958666D01*
X315923819Y-104958666D02*
X315923819Y-104720571D01*
X315923819Y-104720571D02*
X315971438Y-104625333D01*
X315971438Y-104625333D02*
X316019057Y-104577714D01*
X316019057Y-104577714D02*
X316114295Y-104530095D01*
X316114295Y-104530095D02*
X316209533Y-104530095D01*
X316209533Y-104530095D02*
X316352390Y-104577714D01*
X316352390Y-104577714D02*
X316923819Y-105149142D01*
X316923819Y-105149142D02*
X316923819Y-104530095D01*
X221209819Y-203652285D02*
X220209819Y-203652285D01*
X220209819Y-203652285D02*
X220209819Y-203414190D01*
X220209819Y-203414190D02*
X220257438Y-203271333D01*
X220257438Y-203271333D02*
X220352676Y-203176095D01*
X220352676Y-203176095D02*
X220447914Y-203128476D01*
X220447914Y-203128476D02*
X220638390Y-203080857D01*
X220638390Y-203080857D02*
X220781247Y-203080857D01*
X220781247Y-203080857D02*
X220971723Y-203128476D01*
X220971723Y-203128476D02*
X221066961Y-203176095D01*
X221066961Y-203176095D02*
X221162200Y-203271333D01*
X221162200Y-203271333D02*
X221209819Y-203414190D01*
X221209819Y-203414190D02*
X221209819Y-203652285D01*
X220305057Y-202699904D02*
X220257438Y-202652285D01*
X220257438Y-202652285D02*
X220209819Y-202557047D01*
X220209819Y-202557047D02*
X220209819Y-202318952D01*
X220209819Y-202318952D02*
X220257438Y-202223714D01*
X220257438Y-202223714D02*
X220305057Y-202176095D01*
X220305057Y-202176095D02*
X220400295Y-202128476D01*
X220400295Y-202128476D02*
X220495533Y-202128476D01*
X220495533Y-202128476D02*
X220638390Y-202176095D01*
X220638390Y-202176095D02*
X221209819Y-202747523D01*
X221209819Y-202747523D02*
X221209819Y-202128476D01*
X220305057Y-201747523D02*
X220257438Y-201699904D01*
X220257438Y-201699904D02*
X220209819Y-201604666D01*
X220209819Y-201604666D02*
X220209819Y-201366571D01*
X220209819Y-201366571D02*
X220257438Y-201271333D01*
X220257438Y-201271333D02*
X220305057Y-201223714D01*
X220305057Y-201223714D02*
X220400295Y-201176095D01*
X220400295Y-201176095D02*
X220495533Y-201176095D01*
X220495533Y-201176095D02*
X220638390Y-201223714D01*
X220638390Y-201223714D02*
X221209819Y-201795142D01*
X221209819Y-201795142D02*
X221209819Y-201176095D01*
X217138476Y-230023200D02*
X217281333Y-230070819D01*
X217281333Y-230070819D02*
X217519428Y-230070819D01*
X217519428Y-230070819D02*
X217614666Y-230023200D01*
X217614666Y-230023200D02*
X217662285Y-229975580D01*
X217662285Y-229975580D02*
X217709904Y-229880342D01*
X217709904Y-229880342D02*
X217709904Y-229785104D01*
X217709904Y-229785104D02*
X217662285Y-229689866D01*
X217662285Y-229689866D02*
X217614666Y-229642247D01*
X217614666Y-229642247D02*
X217519428Y-229594628D01*
X217519428Y-229594628D02*
X217328952Y-229547009D01*
X217328952Y-229547009D02*
X217233714Y-229499390D01*
X217233714Y-229499390D02*
X217186095Y-229451771D01*
X217186095Y-229451771D02*
X217138476Y-229356533D01*
X217138476Y-229356533D02*
X217138476Y-229261295D01*
X217138476Y-229261295D02*
X217186095Y-229166057D01*
X217186095Y-229166057D02*
X217233714Y-229118438D01*
X217233714Y-229118438D02*
X217328952Y-229070819D01*
X217328952Y-229070819D02*
X217567047Y-229070819D01*
X217567047Y-229070819D02*
X217709904Y-229118438D01*
X218043238Y-229070819D02*
X218281333Y-230070819D01*
X218281333Y-230070819D02*
X218471809Y-229356533D01*
X218471809Y-229356533D02*
X218662285Y-230070819D01*
X218662285Y-230070819D02*
X218900381Y-229070819D01*
X219233714Y-229166057D02*
X219281333Y-229118438D01*
X219281333Y-229118438D02*
X219376571Y-229070819D01*
X219376571Y-229070819D02*
X219614666Y-229070819D01*
X219614666Y-229070819D02*
X219709904Y-229118438D01*
X219709904Y-229118438D02*
X219757523Y-229166057D01*
X219757523Y-229166057D02*
X219805142Y-229261295D01*
X219805142Y-229261295D02*
X219805142Y-229356533D01*
X219805142Y-229356533D02*
X219757523Y-229499390D01*
X219757523Y-229499390D02*
X219186095Y-230070819D01*
X219186095Y-230070819D02*
X219805142Y-230070819D01*
X220186095Y-229166057D02*
X220233714Y-229118438D01*
X220233714Y-229118438D02*
X220328952Y-229070819D01*
X220328952Y-229070819D02*
X220567047Y-229070819D01*
X220567047Y-229070819D02*
X220662285Y-229118438D01*
X220662285Y-229118438D02*
X220709904Y-229166057D01*
X220709904Y-229166057D02*
X220757523Y-229261295D01*
X220757523Y-229261295D02*
X220757523Y-229356533D01*
X220757523Y-229356533D02*
X220709904Y-229499390D01*
X220709904Y-229499390D02*
X220138476Y-230070819D01*
X220138476Y-230070819D02*
X220757523Y-230070819D01*
X312896476Y-230023200D02*
X313039333Y-230070819D01*
X313039333Y-230070819D02*
X313277428Y-230070819D01*
X313277428Y-230070819D02*
X313372666Y-230023200D01*
X313372666Y-230023200D02*
X313420285Y-229975580D01*
X313420285Y-229975580D02*
X313467904Y-229880342D01*
X313467904Y-229880342D02*
X313467904Y-229785104D01*
X313467904Y-229785104D02*
X313420285Y-229689866D01*
X313420285Y-229689866D02*
X313372666Y-229642247D01*
X313372666Y-229642247D02*
X313277428Y-229594628D01*
X313277428Y-229594628D02*
X313086952Y-229547009D01*
X313086952Y-229547009D02*
X312991714Y-229499390D01*
X312991714Y-229499390D02*
X312944095Y-229451771D01*
X312944095Y-229451771D02*
X312896476Y-229356533D01*
X312896476Y-229356533D02*
X312896476Y-229261295D01*
X312896476Y-229261295D02*
X312944095Y-229166057D01*
X312944095Y-229166057D02*
X312991714Y-229118438D01*
X312991714Y-229118438D02*
X313086952Y-229070819D01*
X313086952Y-229070819D02*
X313325047Y-229070819D01*
X313325047Y-229070819D02*
X313467904Y-229118438D01*
X313801238Y-229070819D02*
X314039333Y-230070819D01*
X314039333Y-230070819D02*
X314229809Y-229356533D01*
X314229809Y-229356533D02*
X314420285Y-230070819D01*
X314420285Y-230070819D02*
X314658381Y-229070819D01*
X314991714Y-229166057D02*
X315039333Y-229118438D01*
X315039333Y-229118438D02*
X315134571Y-229070819D01*
X315134571Y-229070819D02*
X315372666Y-229070819D01*
X315372666Y-229070819D02*
X315467904Y-229118438D01*
X315467904Y-229118438D02*
X315515523Y-229166057D01*
X315515523Y-229166057D02*
X315563142Y-229261295D01*
X315563142Y-229261295D02*
X315563142Y-229356533D01*
X315563142Y-229356533D02*
X315515523Y-229499390D01*
X315515523Y-229499390D02*
X314944095Y-230070819D01*
X314944095Y-230070819D02*
X315563142Y-230070819D01*
X316420285Y-229404152D02*
X316420285Y-230070819D01*
X316182190Y-229023200D02*
X315944095Y-229737485D01*
X315944095Y-229737485D02*
X316563142Y-229737485D01*
X313372667Y-84989200D02*
X313515524Y-85036819D01*
X313515524Y-85036819D02*
X313753619Y-85036819D01*
X313753619Y-85036819D02*
X313848857Y-84989200D01*
X313848857Y-84989200D02*
X313896476Y-84941580D01*
X313896476Y-84941580D02*
X313944095Y-84846342D01*
X313944095Y-84846342D02*
X313944095Y-84751104D01*
X313944095Y-84751104D02*
X313896476Y-84655866D01*
X313896476Y-84655866D02*
X313848857Y-84608247D01*
X313848857Y-84608247D02*
X313753619Y-84560628D01*
X313753619Y-84560628D02*
X313563143Y-84513009D01*
X313563143Y-84513009D02*
X313467905Y-84465390D01*
X313467905Y-84465390D02*
X313420286Y-84417771D01*
X313420286Y-84417771D02*
X313372667Y-84322533D01*
X313372667Y-84322533D02*
X313372667Y-84227295D01*
X313372667Y-84227295D02*
X313420286Y-84132057D01*
X313420286Y-84132057D02*
X313467905Y-84084438D01*
X313467905Y-84084438D02*
X313563143Y-84036819D01*
X313563143Y-84036819D02*
X313801238Y-84036819D01*
X313801238Y-84036819D02*
X313944095Y-84084438D01*
X314277429Y-84036819D02*
X314515524Y-85036819D01*
X314515524Y-85036819D02*
X314706000Y-84322533D01*
X314706000Y-84322533D02*
X314896476Y-85036819D01*
X314896476Y-85036819D02*
X315134572Y-84036819D01*
X315944095Y-84036819D02*
X315753619Y-84036819D01*
X315753619Y-84036819D02*
X315658381Y-84084438D01*
X315658381Y-84084438D02*
X315610762Y-84132057D01*
X315610762Y-84132057D02*
X315515524Y-84274914D01*
X315515524Y-84274914D02*
X315467905Y-84465390D01*
X315467905Y-84465390D02*
X315467905Y-84846342D01*
X315467905Y-84846342D02*
X315515524Y-84941580D01*
X315515524Y-84941580D02*
X315563143Y-84989200D01*
X315563143Y-84989200D02*
X315658381Y-85036819D01*
X315658381Y-85036819D02*
X315848857Y-85036819D01*
X315848857Y-85036819D02*
X315944095Y-84989200D01*
X315944095Y-84989200D02*
X315991714Y-84941580D01*
X315991714Y-84941580D02*
X316039333Y-84846342D01*
X316039333Y-84846342D02*
X316039333Y-84608247D01*
X316039333Y-84608247D02*
X315991714Y-84513009D01*
X315991714Y-84513009D02*
X315944095Y-84465390D01*
X315944095Y-84465390D02*
X315848857Y-84417771D01*
X315848857Y-84417771D02*
X315658381Y-84417771D01*
X315658381Y-84417771D02*
X315563143Y-84465390D01*
X315563143Y-84465390D02*
X315515524Y-84513009D01*
X315515524Y-84513009D02*
X315467905Y-84608247D01*
X74104667Y-84989200D02*
X74247524Y-85036819D01*
X74247524Y-85036819D02*
X74485619Y-85036819D01*
X74485619Y-85036819D02*
X74580857Y-84989200D01*
X74580857Y-84989200D02*
X74628476Y-84941580D01*
X74628476Y-84941580D02*
X74676095Y-84846342D01*
X74676095Y-84846342D02*
X74676095Y-84751104D01*
X74676095Y-84751104D02*
X74628476Y-84655866D01*
X74628476Y-84655866D02*
X74580857Y-84608247D01*
X74580857Y-84608247D02*
X74485619Y-84560628D01*
X74485619Y-84560628D02*
X74295143Y-84513009D01*
X74295143Y-84513009D02*
X74199905Y-84465390D01*
X74199905Y-84465390D02*
X74152286Y-84417771D01*
X74152286Y-84417771D02*
X74104667Y-84322533D01*
X74104667Y-84322533D02*
X74104667Y-84227295D01*
X74104667Y-84227295D02*
X74152286Y-84132057D01*
X74152286Y-84132057D02*
X74199905Y-84084438D01*
X74199905Y-84084438D02*
X74295143Y-84036819D01*
X74295143Y-84036819D02*
X74533238Y-84036819D01*
X74533238Y-84036819D02*
X74676095Y-84084438D01*
X75009429Y-84036819D02*
X75247524Y-85036819D01*
X75247524Y-85036819D02*
X75438000Y-84322533D01*
X75438000Y-84322533D02*
X75628476Y-85036819D01*
X75628476Y-85036819D02*
X75866572Y-84036819D01*
X76771333Y-85036819D02*
X76199905Y-85036819D01*
X76485619Y-85036819D02*
X76485619Y-84036819D01*
X76485619Y-84036819D02*
X76390381Y-84179676D01*
X76390381Y-84179676D02*
X76295143Y-84274914D01*
X76295143Y-84274914D02*
X76199905Y-84322533D01*
X221148819Y-251912285D02*
X220148819Y-251912285D01*
X220148819Y-251912285D02*
X220148819Y-251674190D01*
X220148819Y-251674190D02*
X220196438Y-251531333D01*
X220196438Y-251531333D02*
X220291676Y-251436095D01*
X220291676Y-251436095D02*
X220386914Y-251388476D01*
X220386914Y-251388476D02*
X220577390Y-251340857D01*
X220577390Y-251340857D02*
X220720247Y-251340857D01*
X220720247Y-251340857D02*
X220910723Y-251388476D01*
X220910723Y-251388476D02*
X221005961Y-251436095D01*
X221005961Y-251436095D02*
X221101200Y-251531333D01*
X221101200Y-251531333D02*
X221148819Y-251674190D01*
X221148819Y-251674190D02*
X221148819Y-251912285D01*
X220244057Y-250959904D02*
X220196438Y-250912285D01*
X220196438Y-250912285D02*
X220148819Y-250817047D01*
X220148819Y-250817047D02*
X220148819Y-250578952D01*
X220148819Y-250578952D02*
X220196438Y-250483714D01*
X220196438Y-250483714D02*
X220244057Y-250436095D01*
X220244057Y-250436095D02*
X220339295Y-250388476D01*
X220339295Y-250388476D02*
X220434533Y-250388476D01*
X220434533Y-250388476D02*
X220577390Y-250436095D01*
X220577390Y-250436095D02*
X221148819Y-251007523D01*
X221148819Y-251007523D02*
X221148819Y-250388476D01*
X220577390Y-249817047D02*
X220529771Y-249912285D01*
X220529771Y-249912285D02*
X220482152Y-249959904D01*
X220482152Y-249959904D02*
X220386914Y-250007523D01*
X220386914Y-250007523D02*
X220339295Y-250007523D01*
X220339295Y-250007523D02*
X220244057Y-249959904D01*
X220244057Y-249959904D02*
X220196438Y-249912285D01*
X220196438Y-249912285D02*
X220148819Y-249817047D01*
X220148819Y-249817047D02*
X220148819Y-249626571D01*
X220148819Y-249626571D02*
X220196438Y-249531333D01*
X220196438Y-249531333D02*
X220244057Y-249483714D01*
X220244057Y-249483714D02*
X220339295Y-249436095D01*
X220339295Y-249436095D02*
X220386914Y-249436095D01*
X220386914Y-249436095D02*
X220482152Y-249483714D01*
X220482152Y-249483714D02*
X220529771Y-249531333D01*
X220529771Y-249531333D02*
X220577390Y-249626571D01*
X220577390Y-249626571D02*
X220577390Y-249817047D01*
X220577390Y-249817047D02*
X220625009Y-249912285D01*
X220625009Y-249912285D02*
X220672628Y-249959904D01*
X220672628Y-249959904D02*
X220767866Y-250007523D01*
X220767866Y-250007523D02*
X220958342Y-250007523D01*
X220958342Y-250007523D02*
X221053580Y-249959904D01*
X221053580Y-249959904D02*
X221101200Y-249912285D01*
X221101200Y-249912285D02*
X221148819Y-249817047D01*
X221148819Y-249817047D02*
X221148819Y-249626571D01*
X221148819Y-249626571D02*
X221101200Y-249531333D01*
X221101200Y-249531333D02*
X221053580Y-249483714D01*
X221053580Y-249483714D02*
X220958342Y-249436095D01*
X220958342Y-249436095D02*
X220767866Y-249436095D01*
X220767866Y-249436095D02*
X220672628Y-249483714D01*
X220672628Y-249483714D02*
X220625009Y-249531333D01*
X220625009Y-249531333D02*
X220577390Y-249626571D01*
X73628476Y-230023200D02*
X73771333Y-230070819D01*
X73771333Y-230070819D02*
X74009428Y-230070819D01*
X74009428Y-230070819D02*
X74104666Y-230023200D01*
X74104666Y-230023200D02*
X74152285Y-229975580D01*
X74152285Y-229975580D02*
X74199904Y-229880342D01*
X74199904Y-229880342D02*
X74199904Y-229785104D01*
X74199904Y-229785104D02*
X74152285Y-229689866D01*
X74152285Y-229689866D02*
X74104666Y-229642247D01*
X74104666Y-229642247D02*
X74009428Y-229594628D01*
X74009428Y-229594628D02*
X73818952Y-229547009D01*
X73818952Y-229547009D02*
X73723714Y-229499390D01*
X73723714Y-229499390D02*
X73676095Y-229451771D01*
X73676095Y-229451771D02*
X73628476Y-229356533D01*
X73628476Y-229356533D02*
X73628476Y-229261295D01*
X73628476Y-229261295D02*
X73676095Y-229166057D01*
X73676095Y-229166057D02*
X73723714Y-229118438D01*
X73723714Y-229118438D02*
X73818952Y-229070819D01*
X73818952Y-229070819D02*
X74057047Y-229070819D01*
X74057047Y-229070819D02*
X74199904Y-229118438D01*
X74533238Y-229070819D02*
X74771333Y-230070819D01*
X74771333Y-230070819D02*
X74961809Y-229356533D01*
X74961809Y-229356533D02*
X75152285Y-230070819D01*
X75152285Y-230070819D02*
X75390381Y-229070819D01*
X76295142Y-230070819D02*
X75723714Y-230070819D01*
X76009428Y-230070819D02*
X76009428Y-229070819D01*
X76009428Y-229070819D02*
X75914190Y-229213676D01*
X75914190Y-229213676D02*
X75818952Y-229308914D01*
X75818952Y-229308914D02*
X75723714Y-229356533D01*
X76771333Y-230070819D02*
X76961809Y-230070819D01*
X76961809Y-230070819D02*
X77057047Y-230023200D01*
X77057047Y-230023200D02*
X77104666Y-229975580D01*
X77104666Y-229975580D02*
X77199904Y-229832723D01*
X77199904Y-229832723D02*
X77247523Y-229642247D01*
X77247523Y-229642247D02*
X77247523Y-229261295D01*
X77247523Y-229261295D02*
X77199904Y-229166057D01*
X77199904Y-229166057D02*
X77152285Y-229118438D01*
X77152285Y-229118438D02*
X77057047Y-229070819D01*
X77057047Y-229070819D02*
X76866571Y-229070819D01*
X76866571Y-229070819D02*
X76771333Y-229118438D01*
X76771333Y-229118438D02*
X76723714Y-229166057D01*
X76723714Y-229166057D02*
X76676095Y-229261295D01*
X76676095Y-229261295D02*
X76676095Y-229499390D01*
X76676095Y-229499390D02*
X76723714Y-229594628D01*
X76723714Y-229594628D02*
X76771333Y-229642247D01*
X76771333Y-229642247D02*
X76866571Y-229689866D01*
X76866571Y-229689866D02*
X77057047Y-229689866D01*
X77057047Y-229689866D02*
X77152285Y-229642247D01*
X77152285Y-229642247D02*
X77199904Y-229594628D01*
X77199904Y-229594628D02*
X77247523Y-229499390D01*
X77638819Y-251912285D02*
X76638819Y-251912285D01*
X76638819Y-251912285D02*
X76638819Y-251674190D01*
X76638819Y-251674190D02*
X76686438Y-251531333D01*
X76686438Y-251531333D02*
X76781676Y-251436095D01*
X76781676Y-251436095D02*
X76876914Y-251388476D01*
X76876914Y-251388476D02*
X77067390Y-251340857D01*
X77067390Y-251340857D02*
X77210247Y-251340857D01*
X77210247Y-251340857D02*
X77400723Y-251388476D01*
X77400723Y-251388476D02*
X77495961Y-251436095D01*
X77495961Y-251436095D02*
X77591200Y-251531333D01*
X77591200Y-251531333D02*
X77638819Y-251674190D01*
X77638819Y-251674190D02*
X77638819Y-251912285D01*
X76734057Y-250959904D02*
X76686438Y-250912285D01*
X76686438Y-250912285D02*
X76638819Y-250817047D01*
X76638819Y-250817047D02*
X76638819Y-250578952D01*
X76638819Y-250578952D02*
X76686438Y-250483714D01*
X76686438Y-250483714D02*
X76734057Y-250436095D01*
X76734057Y-250436095D02*
X76829295Y-250388476D01*
X76829295Y-250388476D02*
X76924533Y-250388476D01*
X76924533Y-250388476D02*
X77067390Y-250436095D01*
X77067390Y-250436095D02*
X77638819Y-251007523D01*
X77638819Y-251007523D02*
X77638819Y-250388476D01*
X76638819Y-249483714D02*
X76638819Y-249959904D01*
X76638819Y-249959904D02*
X77115009Y-250007523D01*
X77115009Y-250007523D02*
X77067390Y-249959904D01*
X77067390Y-249959904D02*
X77019771Y-249864666D01*
X77019771Y-249864666D02*
X77019771Y-249626571D01*
X77019771Y-249626571D02*
X77067390Y-249531333D01*
X77067390Y-249531333D02*
X77115009Y-249483714D01*
X77115009Y-249483714D02*
X77210247Y-249436095D01*
X77210247Y-249436095D02*
X77448342Y-249436095D01*
X77448342Y-249436095D02*
X77543580Y-249483714D01*
X77543580Y-249483714D02*
X77591200Y-249531333D01*
X77591200Y-249531333D02*
X77638819Y-249626571D01*
X77638819Y-249626571D02*
X77638819Y-249864666D01*
X77638819Y-249864666D02*
X77591200Y-249959904D01*
X77591200Y-249959904D02*
X77543580Y-250007523D01*
X121856667Y-84989200D02*
X121999524Y-85036819D01*
X121999524Y-85036819D02*
X122237619Y-85036819D01*
X122237619Y-85036819D02*
X122332857Y-84989200D01*
X122332857Y-84989200D02*
X122380476Y-84941580D01*
X122380476Y-84941580D02*
X122428095Y-84846342D01*
X122428095Y-84846342D02*
X122428095Y-84751104D01*
X122428095Y-84751104D02*
X122380476Y-84655866D01*
X122380476Y-84655866D02*
X122332857Y-84608247D01*
X122332857Y-84608247D02*
X122237619Y-84560628D01*
X122237619Y-84560628D02*
X122047143Y-84513009D01*
X122047143Y-84513009D02*
X121951905Y-84465390D01*
X121951905Y-84465390D02*
X121904286Y-84417771D01*
X121904286Y-84417771D02*
X121856667Y-84322533D01*
X121856667Y-84322533D02*
X121856667Y-84227295D01*
X121856667Y-84227295D02*
X121904286Y-84132057D01*
X121904286Y-84132057D02*
X121951905Y-84084438D01*
X121951905Y-84084438D02*
X122047143Y-84036819D01*
X122047143Y-84036819D02*
X122285238Y-84036819D01*
X122285238Y-84036819D02*
X122428095Y-84084438D01*
X122761429Y-84036819D02*
X122999524Y-85036819D01*
X122999524Y-85036819D02*
X123190000Y-84322533D01*
X123190000Y-84322533D02*
X123380476Y-85036819D01*
X123380476Y-85036819D02*
X123618572Y-84036819D01*
X123951905Y-84132057D02*
X123999524Y-84084438D01*
X123999524Y-84084438D02*
X124094762Y-84036819D01*
X124094762Y-84036819D02*
X124332857Y-84036819D01*
X124332857Y-84036819D02*
X124428095Y-84084438D01*
X124428095Y-84084438D02*
X124475714Y-84132057D01*
X124475714Y-84132057D02*
X124523333Y-84227295D01*
X124523333Y-84227295D02*
X124523333Y-84322533D01*
X124523333Y-84322533D02*
X124475714Y-84465390D01*
X124475714Y-84465390D02*
X123904286Y-85036819D01*
X123904286Y-85036819D02*
X124523333Y-85036819D01*
X221209819Y-58142094D02*
X220209819Y-58142094D01*
X220209819Y-58142094D02*
X220209819Y-57903999D01*
X220209819Y-57903999D02*
X220257438Y-57761142D01*
X220257438Y-57761142D02*
X220352676Y-57665904D01*
X220352676Y-57665904D02*
X220447914Y-57618285D01*
X220447914Y-57618285D02*
X220638390Y-57570666D01*
X220638390Y-57570666D02*
X220781247Y-57570666D01*
X220781247Y-57570666D02*
X220971723Y-57618285D01*
X220971723Y-57618285D02*
X221066961Y-57665904D01*
X221066961Y-57665904D02*
X221162200Y-57761142D01*
X221162200Y-57761142D02*
X221209819Y-57903999D01*
X221209819Y-57903999D02*
X221209819Y-58142094D01*
X220543152Y-56713523D02*
X221209819Y-56713523D01*
X220162200Y-56951618D02*
X220876485Y-57189713D01*
X220876485Y-57189713D02*
X220876485Y-56570666D01*
X269066819Y-106878285D02*
X268066819Y-106878285D01*
X268066819Y-106878285D02*
X268066819Y-106640190D01*
X268066819Y-106640190D02*
X268114438Y-106497333D01*
X268114438Y-106497333D02*
X268209676Y-106402095D01*
X268209676Y-106402095D02*
X268304914Y-106354476D01*
X268304914Y-106354476D02*
X268495390Y-106306857D01*
X268495390Y-106306857D02*
X268638247Y-106306857D01*
X268638247Y-106306857D02*
X268828723Y-106354476D01*
X268828723Y-106354476D02*
X268923961Y-106402095D01*
X268923961Y-106402095D02*
X269019200Y-106497333D01*
X269019200Y-106497333D02*
X269066819Y-106640190D01*
X269066819Y-106640190D02*
X269066819Y-106878285D01*
X269066819Y-105354476D02*
X269066819Y-105925904D01*
X269066819Y-105640190D02*
X268066819Y-105640190D01*
X268066819Y-105640190D02*
X268209676Y-105735428D01*
X268209676Y-105735428D02*
X268304914Y-105830666D01*
X268304914Y-105830666D02*
X268352533Y-105925904D01*
X269066819Y-104402095D02*
X269066819Y-104973523D01*
X269066819Y-104687809D02*
X268066819Y-104687809D01*
X268066819Y-104687809D02*
X268209676Y-104783047D01*
X268209676Y-104783047D02*
X268304914Y-104878285D01*
X268304914Y-104878285D02*
X268352533Y-104973523D01*
X169132476Y-230023200D02*
X169275333Y-230070819D01*
X169275333Y-230070819D02*
X169513428Y-230070819D01*
X169513428Y-230070819D02*
X169608666Y-230023200D01*
X169608666Y-230023200D02*
X169656285Y-229975580D01*
X169656285Y-229975580D02*
X169703904Y-229880342D01*
X169703904Y-229880342D02*
X169703904Y-229785104D01*
X169703904Y-229785104D02*
X169656285Y-229689866D01*
X169656285Y-229689866D02*
X169608666Y-229642247D01*
X169608666Y-229642247D02*
X169513428Y-229594628D01*
X169513428Y-229594628D02*
X169322952Y-229547009D01*
X169322952Y-229547009D02*
X169227714Y-229499390D01*
X169227714Y-229499390D02*
X169180095Y-229451771D01*
X169180095Y-229451771D02*
X169132476Y-229356533D01*
X169132476Y-229356533D02*
X169132476Y-229261295D01*
X169132476Y-229261295D02*
X169180095Y-229166057D01*
X169180095Y-229166057D02*
X169227714Y-229118438D01*
X169227714Y-229118438D02*
X169322952Y-229070819D01*
X169322952Y-229070819D02*
X169561047Y-229070819D01*
X169561047Y-229070819D02*
X169703904Y-229118438D01*
X170037238Y-229070819D02*
X170275333Y-230070819D01*
X170275333Y-230070819D02*
X170465809Y-229356533D01*
X170465809Y-229356533D02*
X170656285Y-230070819D01*
X170656285Y-230070819D02*
X170894381Y-229070819D01*
X171227714Y-229166057D02*
X171275333Y-229118438D01*
X171275333Y-229118438D02*
X171370571Y-229070819D01*
X171370571Y-229070819D02*
X171608666Y-229070819D01*
X171608666Y-229070819D02*
X171703904Y-229118438D01*
X171703904Y-229118438D02*
X171751523Y-229166057D01*
X171751523Y-229166057D02*
X171799142Y-229261295D01*
X171799142Y-229261295D02*
X171799142Y-229356533D01*
X171799142Y-229356533D02*
X171751523Y-229499390D01*
X171751523Y-229499390D02*
X171180095Y-230070819D01*
X171180095Y-230070819D02*
X171799142Y-230070819D01*
X172751523Y-230070819D02*
X172180095Y-230070819D01*
X172465809Y-230070819D02*
X172465809Y-229070819D01*
X172465809Y-229070819D02*
X172370571Y-229213676D01*
X172370571Y-229213676D02*
X172275333Y-229308914D01*
X172275333Y-229308914D02*
X172180095Y-229356533D01*
X269066819Y-155392285D02*
X268066819Y-155392285D01*
X268066819Y-155392285D02*
X268066819Y-155154190D01*
X268066819Y-155154190D02*
X268114438Y-155011333D01*
X268114438Y-155011333D02*
X268209676Y-154916095D01*
X268209676Y-154916095D02*
X268304914Y-154868476D01*
X268304914Y-154868476D02*
X268495390Y-154820857D01*
X268495390Y-154820857D02*
X268638247Y-154820857D01*
X268638247Y-154820857D02*
X268828723Y-154868476D01*
X268828723Y-154868476D02*
X268923961Y-154916095D01*
X268923961Y-154916095D02*
X269019200Y-155011333D01*
X269019200Y-155011333D02*
X269066819Y-155154190D01*
X269066819Y-155154190D02*
X269066819Y-155392285D01*
X269066819Y-153868476D02*
X269066819Y-154439904D01*
X269066819Y-154154190D02*
X268066819Y-154154190D01*
X268066819Y-154154190D02*
X268209676Y-154249428D01*
X268209676Y-154249428D02*
X268304914Y-154344666D01*
X268304914Y-154344666D02*
X268352533Y-154439904D01*
X268066819Y-153535142D02*
X268066819Y-152868476D01*
X268066819Y-152868476D02*
X269066819Y-153297047D01*
X217138476Y-278283200D02*
X217281333Y-278330819D01*
X217281333Y-278330819D02*
X217519428Y-278330819D01*
X217519428Y-278330819D02*
X217614666Y-278283200D01*
X217614666Y-278283200D02*
X217662285Y-278235580D01*
X217662285Y-278235580D02*
X217709904Y-278140342D01*
X217709904Y-278140342D02*
X217709904Y-278045104D01*
X217709904Y-278045104D02*
X217662285Y-277949866D01*
X217662285Y-277949866D02*
X217614666Y-277902247D01*
X217614666Y-277902247D02*
X217519428Y-277854628D01*
X217519428Y-277854628D02*
X217328952Y-277807009D01*
X217328952Y-277807009D02*
X217233714Y-277759390D01*
X217233714Y-277759390D02*
X217186095Y-277711771D01*
X217186095Y-277711771D02*
X217138476Y-277616533D01*
X217138476Y-277616533D02*
X217138476Y-277521295D01*
X217138476Y-277521295D02*
X217186095Y-277426057D01*
X217186095Y-277426057D02*
X217233714Y-277378438D01*
X217233714Y-277378438D02*
X217328952Y-277330819D01*
X217328952Y-277330819D02*
X217567047Y-277330819D01*
X217567047Y-277330819D02*
X217709904Y-277378438D01*
X218043238Y-277330819D02*
X218281333Y-278330819D01*
X218281333Y-278330819D02*
X218471809Y-277616533D01*
X218471809Y-277616533D02*
X218662285Y-278330819D01*
X218662285Y-278330819D02*
X218900381Y-277330819D01*
X219233714Y-277426057D02*
X219281333Y-277378438D01*
X219281333Y-277378438D02*
X219376571Y-277330819D01*
X219376571Y-277330819D02*
X219614666Y-277330819D01*
X219614666Y-277330819D02*
X219709904Y-277378438D01*
X219709904Y-277378438D02*
X219757523Y-277426057D01*
X219757523Y-277426057D02*
X219805142Y-277521295D01*
X219805142Y-277521295D02*
X219805142Y-277616533D01*
X219805142Y-277616533D02*
X219757523Y-277759390D01*
X219757523Y-277759390D02*
X219186095Y-278330819D01*
X219186095Y-278330819D02*
X219805142Y-278330819D01*
X220376571Y-277759390D02*
X220281333Y-277711771D01*
X220281333Y-277711771D02*
X220233714Y-277664152D01*
X220233714Y-277664152D02*
X220186095Y-277568914D01*
X220186095Y-277568914D02*
X220186095Y-277521295D01*
X220186095Y-277521295D02*
X220233714Y-277426057D01*
X220233714Y-277426057D02*
X220281333Y-277378438D01*
X220281333Y-277378438D02*
X220376571Y-277330819D01*
X220376571Y-277330819D02*
X220567047Y-277330819D01*
X220567047Y-277330819D02*
X220662285Y-277378438D01*
X220662285Y-277378438D02*
X220709904Y-277426057D01*
X220709904Y-277426057D02*
X220757523Y-277521295D01*
X220757523Y-277521295D02*
X220757523Y-277568914D01*
X220757523Y-277568914D02*
X220709904Y-277664152D01*
X220709904Y-277664152D02*
X220662285Y-277711771D01*
X220662285Y-277711771D02*
X220567047Y-277759390D01*
X220567047Y-277759390D02*
X220376571Y-277759390D01*
X220376571Y-277759390D02*
X220281333Y-277807009D01*
X220281333Y-277807009D02*
X220233714Y-277854628D01*
X220233714Y-277854628D02*
X220186095Y-277949866D01*
X220186095Y-277949866D02*
X220186095Y-278140342D01*
X220186095Y-278140342D02*
X220233714Y-278235580D01*
X220233714Y-278235580D02*
X220281333Y-278283200D01*
X220281333Y-278283200D02*
X220376571Y-278330819D01*
X220376571Y-278330819D02*
X220567047Y-278330819D01*
X220567047Y-278330819D02*
X220662285Y-278283200D01*
X220662285Y-278283200D02*
X220709904Y-278235580D01*
X220709904Y-278235580D02*
X220757523Y-278140342D01*
X220757523Y-278140342D02*
X220757523Y-277949866D01*
X220757523Y-277949866D02*
X220709904Y-277854628D01*
X220709904Y-277854628D02*
X220662285Y-277807009D01*
X220662285Y-277807009D02*
X220567047Y-277759390D01*
X169862667Y-133249200D02*
X170005524Y-133296819D01*
X170005524Y-133296819D02*
X170243619Y-133296819D01*
X170243619Y-133296819D02*
X170338857Y-133249200D01*
X170338857Y-133249200D02*
X170386476Y-133201580D01*
X170386476Y-133201580D02*
X170434095Y-133106342D01*
X170434095Y-133106342D02*
X170434095Y-133011104D01*
X170434095Y-133011104D02*
X170386476Y-132915866D01*
X170386476Y-132915866D02*
X170338857Y-132868247D01*
X170338857Y-132868247D02*
X170243619Y-132820628D01*
X170243619Y-132820628D02*
X170053143Y-132773009D01*
X170053143Y-132773009D02*
X169957905Y-132725390D01*
X169957905Y-132725390D02*
X169910286Y-132677771D01*
X169910286Y-132677771D02*
X169862667Y-132582533D01*
X169862667Y-132582533D02*
X169862667Y-132487295D01*
X169862667Y-132487295D02*
X169910286Y-132392057D01*
X169910286Y-132392057D02*
X169957905Y-132344438D01*
X169957905Y-132344438D02*
X170053143Y-132296819D01*
X170053143Y-132296819D02*
X170291238Y-132296819D01*
X170291238Y-132296819D02*
X170434095Y-132344438D01*
X170767429Y-132296819D02*
X171005524Y-133296819D01*
X171005524Y-133296819D02*
X171196000Y-132582533D01*
X171196000Y-132582533D02*
X171386476Y-133296819D01*
X171386476Y-133296819D02*
X171624572Y-132296819D01*
X172053143Y-133296819D02*
X172243619Y-133296819D01*
X172243619Y-133296819D02*
X172338857Y-133249200D01*
X172338857Y-133249200D02*
X172386476Y-133201580D01*
X172386476Y-133201580D02*
X172481714Y-133058723D01*
X172481714Y-133058723D02*
X172529333Y-132868247D01*
X172529333Y-132868247D02*
X172529333Y-132487295D01*
X172529333Y-132487295D02*
X172481714Y-132392057D01*
X172481714Y-132392057D02*
X172434095Y-132344438D01*
X172434095Y-132344438D02*
X172338857Y-132296819D01*
X172338857Y-132296819D02*
X172148381Y-132296819D01*
X172148381Y-132296819D02*
X172053143Y-132344438D01*
X172053143Y-132344438D02*
X172005524Y-132392057D01*
X172005524Y-132392057D02*
X171957905Y-132487295D01*
X171957905Y-132487295D02*
X171957905Y-132725390D01*
X171957905Y-132725390D02*
X172005524Y-132820628D01*
X172005524Y-132820628D02*
X172053143Y-132868247D01*
X172053143Y-132868247D02*
X172148381Y-132915866D01*
X172148381Y-132915866D02*
X172338857Y-132915866D01*
X172338857Y-132915866D02*
X172434095Y-132868247D01*
X172434095Y-132868247D02*
X172481714Y-132820628D01*
X172481714Y-132820628D02*
X172529333Y-132725390D01*
X77638819Y-203652285D02*
X76638819Y-203652285D01*
X76638819Y-203652285D02*
X76638819Y-203414190D01*
X76638819Y-203414190D02*
X76686438Y-203271333D01*
X76686438Y-203271333D02*
X76781676Y-203176095D01*
X76781676Y-203176095D02*
X76876914Y-203128476D01*
X76876914Y-203128476D02*
X77067390Y-203080857D01*
X77067390Y-203080857D02*
X77210247Y-203080857D01*
X77210247Y-203080857D02*
X77400723Y-203128476D01*
X77400723Y-203128476D02*
X77495961Y-203176095D01*
X77495961Y-203176095D02*
X77591200Y-203271333D01*
X77591200Y-203271333D02*
X77638819Y-203414190D01*
X77638819Y-203414190D02*
X77638819Y-203652285D01*
X77638819Y-202128476D02*
X77638819Y-202699904D01*
X77638819Y-202414190D02*
X76638819Y-202414190D01*
X76638819Y-202414190D02*
X76781676Y-202509428D01*
X76781676Y-202509428D02*
X76876914Y-202604666D01*
X76876914Y-202604666D02*
X76924533Y-202699904D01*
X77638819Y-201652285D02*
X77638819Y-201461809D01*
X77638819Y-201461809D02*
X77591200Y-201366571D01*
X77591200Y-201366571D02*
X77543580Y-201318952D01*
X77543580Y-201318952D02*
X77400723Y-201223714D01*
X77400723Y-201223714D02*
X77210247Y-201176095D01*
X77210247Y-201176095D02*
X76829295Y-201176095D01*
X76829295Y-201176095D02*
X76734057Y-201223714D01*
X76734057Y-201223714D02*
X76686438Y-201271333D01*
X76686438Y-201271333D02*
X76638819Y-201366571D01*
X76638819Y-201366571D02*
X76638819Y-201557047D01*
X76638819Y-201557047D02*
X76686438Y-201652285D01*
X76686438Y-201652285D02*
X76734057Y-201699904D01*
X76734057Y-201699904D02*
X76829295Y-201747523D01*
X76829295Y-201747523D02*
X77067390Y-201747523D01*
X77067390Y-201747523D02*
X77162628Y-201699904D01*
X77162628Y-201699904D02*
X77210247Y-201652285D01*
X77210247Y-201652285D02*
X77257866Y-201557047D01*
X77257866Y-201557047D02*
X77257866Y-201366571D01*
X77257866Y-201366571D02*
X77210247Y-201271333D01*
X77210247Y-201271333D02*
X77162628Y-201223714D01*
X77162628Y-201223714D02*
X77067390Y-201176095D01*
X77638819Y-155266285D02*
X76638819Y-155266285D01*
X76638819Y-155266285D02*
X76638819Y-155028190D01*
X76638819Y-155028190D02*
X76686438Y-154885333D01*
X76686438Y-154885333D02*
X76781676Y-154790095D01*
X76781676Y-154790095D02*
X76876914Y-154742476D01*
X76876914Y-154742476D02*
X77067390Y-154694857D01*
X77067390Y-154694857D02*
X77210247Y-154694857D01*
X77210247Y-154694857D02*
X77400723Y-154742476D01*
X77400723Y-154742476D02*
X77495961Y-154790095D01*
X77495961Y-154790095D02*
X77591200Y-154885333D01*
X77591200Y-154885333D02*
X77638819Y-155028190D01*
X77638819Y-155028190D02*
X77638819Y-155266285D01*
X77638819Y-153742476D02*
X77638819Y-154313904D01*
X77638819Y-154028190D02*
X76638819Y-154028190D01*
X76638819Y-154028190D02*
X76781676Y-154123428D01*
X76781676Y-154123428D02*
X76876914Y-154218666D01*
X76876914Y-154218666D02*
X76924533Y-154313904D01*
X76638819Y-153409142D02*
X76638819Y-152790095D01*
X76638819Y-152790095D02*
X77019771Y-153123428D01*
X77019771Y-153123428D02*
X77019771Y-152980571D01*
X77019771Y-152980571D02*
X77067390Y-152885333D01*
X77067390Y-152885333D02*
X77115009Y-152837714D01*
X77115009Y-152837714D02*
X77210247Y-152790095D01*
X77210247Y-152790095D02*
X77448342Y-152790095D01*
X77448342Y-152790095D02*
X77543580Y-152837714D01*
X77543580Y-152837714D02*
X77591200Y-152885333D01*
X77591200Y-152885333D02*
X77638819Y-152980571D01*
X77638819Y-152980571D02*
X77638819Y-153266285D01*
X77638819Y-153266285D02*
X77591200Y-153361523D01*
X77591200Y-153361523D02*
X77543580Y-153409142D01*
X173352819Y-58142094D02*
X172352819Y-58142094D01*
X172352819Y-58142094D02*
X172352819Y-57903999D01*
X172352819Y-57903999D02*
X172400438Y-57761142D01*
X172400438Y-57761142D02*
X172495676Y-57665904D01*
X172495676Y-57665904D02*
X172590914Y-57618285D01*
X172590914Y-57618285D02*
X172781390Y-57570666D01*
X172781390Y-57570666D02*
X172924247Y-57570666D01*
X172924247Y-57570666D02*
X173114723Y-57618285D01*
X173114723Y-57618285D02*
X173209961Y-57665904D01*
X173209961Y-57665904D02*
X173305200Y-57761142D01*
X173305200Y-57761142D02*
X173352819Y-57903999D01*
X173352819Y-57903999D02*
X173352819Y-58142094D01*
X172352819Y-57237332D02*
X172352819Y-56618285D01*
X172352819Y-56618285D02*
X172733771Y-56951618D01*
X172733771Y-56951618D02*
X172733771Y-56808761D01*
X172733771Y-56808761D02*
X172781390Y-56713523D01*
X172781390Y-56713523D02*
X172829009Y-56665904D01*
X172829009Y-56665904D02*
X172924247Y-56618285D01*
X172924247Y-56618285D02*
X173162342Y-56618285D01*
X173162342Y-56618285D02*
X173257580Y-56665904D01*
X173257580Y-56665904D02*
X173305200Y-56713523D01*
X173305200Y-56713523D02*
X173352819Y-56808761D01*
X173352819Y-56808761D02*
X173352819Y-57094475D01*
X173352819Y-57094475D02*
X173305200Y-57189713D01*
X173305200Y-57189713D02*
X173257580Y-57237332D01*
X316923819Y-252040285D02*
X315923819Y-252040285D01*
X315923819Y-252040285D02*
X315923819Y-251802190D01*
X315923819Y-251802190D02*
X315971438Y-251659333D01*
X315971438Y-251659333D02*
X316066676Y-251564095D01*
X316066676Y-251564095D02*
X316161914Y-251516476D01*
X316161914Y-251516476D02*
X316352390Y-251468857D01*
X316352390Y-251468857D02*
X316495247Y-251468857D01*
X316495247Y-251468857D02*
X316685723Y-251516476D01*
X316685723Y-251516476D02*
X316780961Y-251564095D01*
X316780961Y-251564095D02*
X316876200Y-251659333D01*
X316876200Y-251659333D02*
X316923819Y-251802190D01*
X316923819Y-251802190D02*
X316923819Y-252040285D01*
X315923819Y-251135523D02*
X315923819Y-250516476D01*
X315923819Y-250516476D02*
X316304771Y-250849809D01*
X316304771Y-250849809D02*
X316304771Y-250706952D01*
X316304771Y-250706952D02*
X316352390Y-250611714D01*
X316352390Y-250611714D02*
X316400009Y-250564095D01*
X316400009Y-250564095D02*
X316495247Y-250516476D01*
X316495247Y-250516476D02*
X316733342Y-250516476D01*
X316733342Y-250516476D02*
X316828580Y-250564095D01*
X316828580Y-250564095D02*
X316876200Y-250611714D01*
X316876200Y-250611714D02*
X316923819Y-250706952D01*
X316923819Y-250706952D02*
X316923819Y-250992666D01*
X316923819Y-250992666D02*
X316876200Y-251087904D01*
X316876200Y-251087904D02*
X316828580Y-251135523D01*
X315923819Y-249897428D02*
X315923819Y-249802190D01*
X315923819Y-249802190D02*
X315971438Y-249706952D01*
X315971438Y-249706952D02*
X316019057Y-249659333D01*
X316019057Y-249659333D02*
X316114295Y-249611714D01*
X316114295Y-249611714D02*
X316304771Y-249564095D01*
X316304771Y-249564095D02*
X316542866Y-249564095D01*
X316542866Y-249564095D02*
X316733342Y-249611714D01*
X316733342Y-249611714D02*
X316828580Y-249659333D01*
X316828580Y-249659333D02*
X316876200Y-249706952D01*
X316876200Y-249706952D02*
X316923819Y-249802190D01*
X316923819Y-249802190D02*
X316923819Y-249897428D01*
X316923819Y-249897428D02*
X316876200Y-249992666D01*
X316876200Y-249992666D02*
X316828580Y-250040285D01*
X316828580Y-250040285D02*
X316733342Y-250087904D01*
X316733342Y-250087904D02*
X316542866Y-250135523D01*
X316542866Y-250135523D02*
X316304771Y-250135523D01*
X316304771Y-250135523D02*
X316114295Y-250087904D01*
X316114295Y-250087904D02*
X316019057Y-250040285D01*
X316019057Y-250040285D02*
X315971438Y-249992666D01*
X315971438Y-249992666D02*
X315923819Y-249897428D01*
X125495819Y-203652285D02*
X124495819Y-203652285D01*
X124495819Y-203652285D02*
X124495819Y-203414190D01*
X124495819Y-203414190D02*
X124543438Y-203271333D01*
X124543438Y-203271333D02*
X124638676Y-203176095D01*
X124638676Y-203176095D02*
X124733914Y-203128476D01*
X124733914Y-203128476D02*
X124924390Y-203080857D01*
X124924390Y-203080857D02*
X125067247Y-203080857D01*
X125067247Y-203080857D02*
X125257723Y-203128476D01*
X125257723Y-203128476D02*
X125352961Y-203176095D01*
X125352961Y-203176095D02*
X125448200Y-203271333D01*
X125448200Y-203271333D02*
X125495819Y-203414190D01*
X125495819Y-203414190D02*
X125495819Y-203652285D01*
X124591057Y-202699904D02*
X124543438Y-202652285D01*
X124543438Y-202652285D02*
X124495819Y-202557047D01*
X124495819Y-202557047D02*
X124495819Y-202318952D01*
X124495819Y-202318952D02*
X124543438Y-202223714D01*
X124543438Y-202223714D02*
X124591057Y-202176095D01*
X124591057Y-202176095D02*
X124686295Y-202128476D01*
X124686295Y-202128476D02*
X124781533Y-202128476D01*
X124781533Y-202128476D02*
X124924390Y-202176095D01*
X124924390Y-202176095D02*
X125495819Y-202747523D01*
X125495819Y-202747523D02*
X125495819Y-202128476D01*
X124495819Y-201509428D02*
X124495819Y-201414190D01*
X124495819Y-201414190D02*
X124543438Y-201318952D01*
X124543438Y-201318952D02*
X124591057Y-201271333D01*
X124591057Y-201271333D02*
X124686295Y-201223714D01*
X124686295Y-201223714D02*
X124876771Y-201176095D01*
X124876771Y-201176095D02*
X125114866Y-201176095D01*
X125114866Y-201176095D02*
X125305342Y-201223714D01*
X125305342Y-201223714D02*
X125400580Y-201271333D01*
X125400580Y-201271333D02*
X125448200Y-201318952D01*
X125448200Y-201318952D02*
X125495819Y-201414190D01*
X125495819Y-201414190D02*
X125495819Y-201509428D01*
X125495819Y-201509428D02*
X125448200Y-201604666D01*
X125448200Y-201604666D02*
X125400580Y-201652285D01*
X125400580Y-201652285D02*
X125305342Y-201699904D01*
X125305342Y-201699904D02*
X125114866Y-201747523D01*
X125114866Y-201747523D02*
X124876771Y-201747523D01*
X124876771Y-201747523D02*
X124686295Y-201699904D01*
X124686295Y-201699904D02*
X124591057Y-201652285D01*
X124591057Y-201652285D02*
X124543438Y-201604666D01*
X124543438Y-201604666D02*
X124495819Y-201509428D01*
X316923819Y-155266285D02*
X315923819Y-155266285D01*
X315923819Y-155266285D02*
X315923819Y-155028190D01*
X315923819Y-155028190D02*
X315971438Y-154885333D01*
X315971438Y-154885333D02*
X316066676Y-154790095D01*
X316066676Y-154790095D02*
X316161914Y-154742476D01*
X316161914Y-154742476D02*
X316352390Y-154694857D01*
X316352390Y-154694857D02*
X316495247Y-154694857D01*
X316495247Y-154694857D02*
X316685723Y-154742476D01*
X316685723Y-154742476D02*
X316780961Y-154790095D01*
X316780961Y-154790095D02*
X316876200Y-154885333D01*
X316876200Y-154885333D02*
X316923819Y-155028190D01*
X316923819Y-155028190D02*
X316923819Y-155266285D01*
X316923819Y-153742476D02*
X316923819Y-154313904D01*
X316923819Y-154028190D02*
X315923819Y-154028190D01*
X315923819Y-154028190D02*
X316066676Y-154123428D01*
X316066676Y-154123428D02*
X316161914Y-154218666D01*
X316161914Y-154218666D02*
X316209533Y-154313904D01*
X316352390Y-153171047D02*
X316304771Y-153266285D01*
X316304771Y-153266285D02*
X316257152Y-153313904D01*
X316257152Y-153313904D02*
X316161914Y-153361523D01*
X316161914Y-153361523D02*
X316114295Y-153361523D01*
X316114295Y-153361523D02*
X316019057Y-153313904D01*
X316019057Y-153313904D02*
X315971438Y-153266285D01*
X315971438Y-153266285D02*
X315923819Y-153171047D01*
X315923819Y-153171047D02*
X315923819Y-152980571D01*
X315923819Y-152980571D02*
X315971438Y-152885333D01*
X315971438Y-152885333D02*
X316019057Y-152837714D01*
X316019057Y-152837714D02*
X316114295Y-152790095D01*
X316114295Y-152790095D02*
X316161914Y-152790095D01*
X316161914Y-152790095D02*
X316257152Y-152837714D01*
X316257152Y-152837714D02*
X316304771Y-152885333D01*
X316304771Y-152885333D02*
X316352390Y-152980571D01*
X316352390Y-152980571D02*
X316352390Y-153171047D01*
X316352390Y-153171047D02*
X316400009Y-153266285D01*
X316400009Y-153266285D02*
X316447628Y-153313904D01*
X316447628Y-153313904D02*
X316542866Y-153361523D01*
X316542866Y-153361523D02*
X316733342Y-153361523D01*
X316733342Y-153361523D02*
X316828580Y-153313904D01*
X316828580Y-153313904D02*
X316876200Y-153266285D01*
X316876200Y-153266285D02*
X316923819Y-153171047D01*
X316923819Y-153171047D02*
X316923819Y-152980571D01*
X316923819Y-152980571D02*
X316876200Y-152885333D01*
X316876200Y-152885333D02*
X316828580Y-152837714D01*
X316828580Y-152837714D02*
X316733342Y-152790095D01*
X316733342Y-152790095D02*
X316542866Y-152790095D01*
X316542866Y-152790095D02*
X316447628Y-152837714D01*
X316447628Y-152837714D02*
X316400009Y-152885333D01*
X316400009Y-152885333D02*
X316352390Y-152980571D01*
X169386476Y-181509200D02*
X169529333Y-181556819D01*
X169529333Y-181556819D02*
X169767428Y-181556819D01*
X169767428Y-181556819D02*
X169862666Y-181509200D01*
X169862666Y-181509200D02*
X169910285Y-181461580D01*
X169910285Y-181461580D02*
X169957904Y-181366342D01*
X169957904Y-181366342D02*
X169957904Y-181271104D01*
X169957904Y-181271104D02*
X169910285Y-181175866D01*
X169910285Y-181175866D02*
X169862666Y-181128247D01*
X169862666Y-181128247D02*
X169767428Y-181080628D01*
X169767428Y-181080628D02*
X169576952Y-181033009D01*
X169576952Y-181033009D02*
X169481714Y-180985390D01*
X169481714Y-180985390D02*
X169434095Y-180937771D01*
X169434095Y-180937771D02*
X169386476Y-180842533D01*
X169386476Y-180842533D02*
X169386476Y-180747295D01*
X169386476Y-180747295D02*
X169434095Y-180652057D01*
X169434095Y-180652057D02*
X169481714Y-180604438D01*
X169481714Y-180604438D02*
X169576952Y-180556819D01*
X169576952Y-180556819D02*
X169815047Y-180556819D01*
X169815047Y-180556819D02*
X169957904Y-180604438D01*
X170291238Y-180556819D02*
X170529333Y-181556819D01*
X170529333Y-181556819D02*
X170719809Y-180842533D01*
X170719809Y-180842533D02*
X170910285Y-181556819D01*
X170910285Y-181556819D02*
X171148381Y-180556819D01*
X172053142Y-181556819D02*
X171481714Y-181556819D01*
X171767428Y-181556819D02*
X171767428Y-180556819D01*
X171767428Y-180556819D02*
X171672190Y-180699676D01*
X171672190Y-180699676D02*
X171576952Y-180794914D01*
X171576952Y-180794914D02*
X171481714Y-180842533D01*
X172957904Y-180556819D02*
X172481714Y-180556819D01*
X172481714Y-180556819D02*
X172434095Y-181033009D01*
X172434095Y-181033009D02*
X172481714Y-180985390D01*
X172481714Y-180985390D02*
X172576952Y-180937771D01*
X172576952Y-180937771D02*
X172815047Y-180937771D01*
X172815047Y-180937771D02*
X172910285Y-180985390D01*
X172910285Y-180985390D02*
X172957904Y-181033009D01*
X172957904Y-181033009D02*
X173005523Y-181128247D01*
X173005523Y-181128247D02*
X173005523Y-181366342D01*
X173005523Y-181366342D02*
X172957904Y-181461580D01*
X172957904Y-181461580D02*
X172910285Y-181509200D01*
X172910285Y-181509200D02*
X172815047Y-181556819D01*
X172815047Y-181556819D02*
X172576952Y-181556819D01*
X172576952Y-181556819D02*
X172481714Y-181509200D01*
X172481714Y-181509200D02*
X172434095Y-181461580D01*
X217138476Y-133249200D02*
X217281333Y-133296819D01*
X217281333Y-133296819D02*
X217519428Y-133296819D01*
X217519428Y-133296819D02*
X217614666Y-133249200D01*
X217614666Y-133249200D02*
X217662285Y-133201580D01*
X217662285Y-133201580D02*
X217709904Y-133106342D01*
X217709904Y-133106342D02*
X217709904Y-133011104D01*
X217709904Y-133011104D02*
X217662285Y-132915866D01*
X217662285Y-132915866D02*
X217614666Y-132868247D01*
X217614666Y-132868247D02*
X217519428Y-132820628D01*
X217519428Y-132820628D02*
X217328952Y-132773009D01*
X217328952Y-132773009D02*
X217233714Y-132725390D01*
X217233714Y-132725390D02*
X217186095Y-132677771D01*
X217186095Y-132677771D02*
X217138476Y-132582533D01*
X217138476Y-132582533D02*
X217138476Y-132487295D01*
X217138476Y-132487295D02*
X217186095Y-132392057D01*
X217186095Y-132392057D02*
X217233714Y-132344438D01*
X217233714Y-132344438D02*
X217328952Y-132296819D01*
X217328952Y-132296819D02*
X217567047Y-132296819D01*
X217567047Y-132296819D02*
X217709904Y-132344438D01*
X218043238Y-132296819D02*
X218281333Y-133296819D01*
X218281333Y-133296819D02*
X218471809Y-132582533D01*
X218471809Y-132582533D02*
X218662285Y-133296819D01*
X218662285Y-133296819D02*
X218900381Y-132296819D01*
X219805142Y-133296819D02*
X219233714Y-133296819D01*
X219519428Y-133296819D02*
X219519428Y-132296819D01*
X219519428Y-132296819D02*
X219424190Y-132439676D01*
X219424190Y-132439676D02*
X219328952Y-132534914D01*
X219328952Y-132534914D02*
X219233714Y-132582533D01*
X220424190Y-132296819D02*
X220519428Y-132296819D01*
X220519428Y-132296819D02*
X220614666Y-132344438D01*
X220614666Y-132344438D02*
X220662285Y-132392057D01*
X220662285Y-132392057D02*
X220709904Y-132487295D01*
X220709904Y-132487295D02*
X220757523Y-132677771D01*
X220757523Y-132677771D02*
X220757523Y-132915866D01*
X220757523Y-132915866D02*
X220709904Y-133106342D01*
X220709904Y-133106342D02*
X220662285Y-133201580D01*
X220662285Y-133201580D02*
X220614666Y-133249200D01*
X220614666Y-133249200D02*
X220519428Y-133296819D01*
X220519428Y-133296819D02*
X220424190Y-133296819D01*
X220424190Y-133296819D02*
X220328952Y-133249200D01*
X220328952Y-133249200D02*
X220281333Y-133201580D01*
X220281333Y-133201580D02*
X220233714Y-133106342D01*
X220233714Y-133106342D02*
X220186095Y-132915866D01*
X220186095Y-132915866D02*
X220186095Y-132677771D01*
X220186095Y-132677771D02*
X220233714Y-132487295D01*
X220233714Y-132487295D02*
X220281333Y-132392057D01*
X220281333Y-132392057D02*
X220328952Y-132344438D01*
X220328952Y-132344438D02*
X220424190Y-132296819D01*
X269066819Y-251912285D02*
X268066819Y-251912285D01*
X268066819Y-251912285D02*
X268066819Y-251674190D01*
X268066819Y-251674190D02*
X268114438Y-251531333D01*
X268114438Y-251531333D02*
X268209676Y-251436095D01*
X268209676Y-251436095D02*
X268304914Y-251388476D01*
X268304914Y-251388476D02*
X268495390Y-251340857D01*
X268495390Y-251340857D02*
X268638247Y-251340857D01*
X268638247Y-251340857D02*
X268828723Y-251388476D01*
X268828723Y-251388476D02*
X268923961Y-251436095D01*
X268923961Y-251436095D02*
X269019200Y-251531333D01*
X269019200Y-251531333D02*
X269066819Y-251674190D01*
X269066819Y-251674190D02*
X269066819Y-251912285D01*
X268162057Y-250959904D02*
X268114438Y-250912285D01*
X268114438Y-250912285D02*
X268066819Y-250817047D01*
X268066819Y-250817047D02*
X268066819Y-250578952D01*
X268066819Y-250578952D02*
X268114438Y-250483714D01*
X268114438Y-250483714D02*
X268162057Y-250436095D01*
X268162057Y-250436095D02*
X268257295Y-250388476D01*
X268257295Y-250388476D02*
X268352533Y-250388476D01*
X268352533Y-250388476D02*
X268495390Y-250436095D01*
X268495390Y-250436095D02*
X269066819Y-251007523D01*
X269066819Y-251007523D02*
X269066819Y-250388476D01*
X269066819Y-249912285D02*
X269066819Y-249721809D01*
X269066819Y-249721809D02*
X269019200Y-249626571D01*
X269019200Y-249626571D02*
X268971580Y-249578952D01*
X268971580Y-249578952D02*
X268828723Y-249483714D01*
X268828723Y-249483714D02*
X268638247Y-249436095D01*
X268638247Y-249436095D02*
X268257295Y-249436095D01*
X268257295Y-249436095D02*
X268162057Y-249483714D01*
X268162057Y-249483714D02*
X268114438Y-249531333D01*
X268114438Y-249531333D02*
X268066819Y-249626571D01*
X268066819Y-249626571D02*
X268066819Y-249817047D01*
X268066819Y-249817047D02*
X268114438Y-249912285D01*
X268114438Y-249912285D02*
X268162057Y-249959904D01*
X268162057Y-249959904D02*
X268257295Y-250007523D01*
X268257295Y-250007523D02*
X268495390Y-250007523D01*
X268495390Y-250007523D02*
X268590628Y-249959904D01*
X268590628Y-249959904D02*
X268638247Y-249912285D01*
X268638247Y-249912285D02*
X268685866Y-249817047D01*
X268685866Y-249817047D02*
X268685866Y-249626571D01*
X268685866Y-249626571D02*
X268638247Y-249531333D01*
X268638247Y-249531333D02*
X268590628Y-249483714D01*
X268590628Y-249483714D02*
X268495390Y-249436095D01*
X125495819Y-251912285D02*
X124495819Y-251912285D01*
X124495819Y-251912285D02*
X124495819Y-251674190D01*
X124495819Y-251674190D02*
X124543438Y-251531333D01*
X124543438Y-251531333D02*
X124638676Y-251436095D01*
X124638676Y-251436095D02*
X124733914Y-251388476D01*
X124733914Y-251388476D02*
X124924390Y-251340857D01*
X124924390Y-251340857D02*
X125067247Y-251340857D01*
X125067247Y-251340857D02*
X125257723Y-251388476D01*
X125257723Y-251388476D02*
X125352961Y-251436095D01*
X125352961Y-251436095D02*
X125448200Y-251531333D01*
X125448200Y-251531333D02*
X125495819Y-251674190D01*
X125495819Y-251674190D02*
X125495819Y-251912285D01*
X124591057Y-250959904D02*
X124543438Y-250912285D01*
X124543438Y-250912285D02*
X124495819Y-250817047D01*
X124495819Y-250817047D02*
X124495819Y-250578952D01*
X124495819Y-250578952D02*
X124543438Y-250483714D01*
X124543438Y-250483714D02*
X124591057Y-250436095D01*
X124591057Y-250436095D02*
X124686295Y-250388476D01*
X124686295Y-250388476D02*
X124781533Y-250388476D01*
X124781533Y-250388476D02*
X124924390Y-250436095D01*
X124924390Y-250436095D02*
X125495819Y-251007523D01*
X125495819Y-251007523D02*
X125495819Y-250388476D01*
X124495819Y-249531333D02*
X124495819Y-249721809D01*
X124495819Y-249721809D02*
X124543438Y-249817047D01*
X124543438Y-249817047D02*
X124591057Y-249864666D01*
X124591057Y-249864666D02*
X124733914Y-249959904D01*
X124733914Y-249959904D02*
X124924390Y-250007523D01*
X124924390Y-250007523D02*
X125305342Y-250007523D01*
X125305342Y-250007523D02*
X125400580Y-249959904D01*
X125400580Y-249959904D02*
X125448200Y-249912285D01*
X125448200Y-249912285D02*
X125495819Y-249817047D01*
X125495819Y-249817047D02*
X125495819Y-249626571D01*
X125495819Y-249626571D02*
X125448200Y-249531333D01*
X125448200Y-249531333D02*
X125400580Y-249483714D01*
X125400580Y-249483714D02*
X125305342Y-249436095D01*
X125305342Y-249436095D02*
X125067247Y-249436095D01*
X125067247Y-249436095D02*
X124972009Y-249483714D01*
X124972009Y-249483714D02*
X124924390Y-249531333D01*
X124924390Y-249531333D02*
X124876771Y-249626571D01*
X124876771Y-249626571D02*
X124876771Y-249817047D01*
X124876771Y-249817047D02*
X124924390Y-249912285D01*
X124924390Y-249912285D02*
X124972009Y-249959904D01*
X124972009Y-249959904D02*
X125067247Y-250007523D01*
X265144476Y-230023200D02*
X265287333Y-230070819D01*
X265287333Y-230070819D02*
X265525428Y-230070819D01*
X265525428Y-230070819D02*
X265620666Y-230023200D01*
X265620666Y-230023200D02*
X265668285Y-229975580D01*
X265668285Y-229975580D02*
X265715904Y-229880342D01*
X265715904Y-229880342D02*
X265715904Y-229785104D01*
X265715904Y-229785104D02*
X265668285Y-229689866D01*
X265668285Y-229689866D02*
X265620666Y-229642247D01*
X265620666Y-229642247D02*
X265525428Y-229594628D01*
X265525428Y-229594628D02*
X265334952Y-229547009D01*
X265334952Y-229547009D02*
X265239714Y-229499390D01*
X265239714Y-229499390D02*
X265192095Y-229451771D01*
X265192095Y-229451771D02*
X265144476Y-229356533D01*
X265144476Y-229356533D02*
X265144476Y-229261295D01*
X265144476Y-229261295D02*
X265192095Y-229166057D01*
X265192095Y-229166057D02*
X265239714Y-229118438D01*
X265239714Y-229118438D02*
X265334952Y-229070819D01*
X265334952Y-229070819D02*
X265573047Y-229070819D01*
X265573047Y-229070819D02*
X265715904Y-229118438D01*
X266049238Y-229070819D02*
X266287333Y-230070819D01*
X266287333Y-230070819D02*
X266477809Y-229356533D01*
X266477809Y-229356533D02*
X266668285Y-230070819D01*
X266668285Y-230070819D02*
X266906381Y-229070819D01*
X267239714Y-229166057D02*
X267287333Y-229118438D01*
X267287333Y-229118438D02*
X267382571Y-229070819D01*
X267382571Y-229070819D02*
X267620666Y-229070819D01*
X267620666Y-229070819D02*
X267715904Y-229118438D01*
X267715904Y-229118438D02*
X267763523Y-229166057D01*
X267763523Y-229166057D02*
X267811142Y-229261295D01*
X267811142Y-229261295D02*
X267811142Y-229356533D01*
X267811142Y-229356533D02*
X267763523Y-229499390D01*
X267763523Y-229499390D02*
X267192095Y-230070819D01*
X267192095Y-230070819D02*
X267811142Y-230070819D01*
X268144476Y-229070819D02*
X268763523Y-229070819D01*
X268763523Y-229070819D02*
X268430190Y-229451771D01*
X268430190Y-229451771D02*
X268573047Y-229451771D01*
X268573047Y-229451771D02*
X268668285Y-229499390D01*
X268668285Y-229499390D02*
X268715904Y-229547009D01*
X268715904Y-229547009D02*
X268763523Y-229642247D01*
X268763523Y-229642247D02*
X268763523Y-229880342D01*
X268763523Y-229880342D02*
X268715904Y-229975580D01*
X268715904Y-229975580D02*
X268668285Y-230023200D01*
X268668285Y-230023200D02*
X268573047Y-230070819D01*
X268573047Y-230070819D02*
X268287333Y-230070819D01*
X268287333Y-230070819D02*
X268192095Y-230023200D01*
X268192095Y-230023200D02*
X268144476Y-229975580D01*
X227997700Y-174308523D02*
X228045319Y-174165666D01*
X228045319Y-174165666D02*
X228045319Y-173927571D01*
X228045319Y-173927571D02*
X227997700Y-173832333D01*
X227997700Y-173832333D02*
X227950080Y-173784714D01*
X227950080Y-173784714D02*
X227854842Y-173737095D01*
X227854842Y-173737095D02*
X227759604Y-173737095D01*
X227759604Y-173737095D02*
X227664366Y-173784714D01*
X227664366Y-173784714D02*
X227616747Y-173832333D01*
X227616747Y-173832333D02*
X227569128Y-173927571D01*
X227569128Y-173927571D02*
X227521509Y-174118047D01*
X227521509Y-174118047D02*
X227473890Y-174213285D01*
X227473890Y-174213285D02*
X227426271Y-174260904D01*
X227426271Y-174260904D02*
X227331033Y-174308523D01*
X227331033Y-174308523D02*
X227235795Y-174308523D01*
X227235795Y-174308523D02*
X227140557Y-174260904D01*
X227140557Y-174260904D02*
X227092938Y-174213285D01*
X227092938Y-174213285D02*
X227045319Y-174118047D01*
X227045319Y-174118047D02*
X227045319Y-173879952D01*
X227045319Y-173879952D02*
X227092938Y-173737095D01*
X227045319Y-173403761D02*
X228045319Y-173165666D01*
X228045319Y-173165666D02*
X227331033Y-172975190D01*
X227331033Y-172975190D02*
X228045319Y-172784714D01*
X228045319Y-172784714D02*
X227045319Y-172546619D01*
X228045319Y-171641857D02*
X228045319Y-172213285D01*
X228045319Y-171927571D02*
X227045319Y-171927571D01*
X227045319Y-171927571D02*
X227188176Y-172022809D01*
X227188176Y-172022809D02*
X227283414Y-172118047D01*
X227283414Y-172118047D02*
X227331033Y-172213285D01*
X227045319Y-170784714D02*
X227045319Y-170975190D01*
X227045319Y-170975190D02*
X227092938Y-171070428D01*
X227092938Y-171070428D02*
X227140557Y-171118047D01*
X227140557Y-171118047D02*
X227283414Y-171213285D01*
X227283414Y-171213285D02*
X227473890Y-171260904D01*
X227473890Y-171260904D02*
X227854842Y-171260904D01*
X227854842Y-171260904D02*
X227950080Y-171213285D01*
X227950080Y-171213285D02*
X227997700Y-171165666D01*
X227997700Y-171165666D02*
X228045319Y-171070428D01*
X228045319Y-171070428D02*
X228045319Y-170879952D01*
X228045319Y-170879952D02*
X227997700Y-170784714D01*
X227997700Y-170784714D02*
X227950080Y-170737095D01*
X227950080Y-170737095D02*
X227854842Y-170689476D01*
X227854842Y-170689476D02*
X227616747Y-170689476D01*
X227616747Y-170689476D02*
X227521509Y-170737095D01*
X227521509Y-170737095D02*
X227473890Y-170784714D01*
X227473890Y-170784714D02*
X227426271Y-170879952D01*
X227426271Y-170879952D02*
X227426271Y-171070428D01*
X227426271Y-171070428D02*
X227473890Y-171165666D01*
X227473890Y-171165666D02*
X227521509Y-171213285D01*
X227521509Y-171213285D02*
X227616747Y-171260904D01*
D12*
%TO.C,SW8*%
X116214000Y-131166000D02*
X116214000Y-117166000D01*
X130214000Y-117166000D02*
X116214000Y-117166000D01*
X130214000Y-117166000D02*
X130214000Y-131166000D01*
X130214000Y-131166000D02*
X116214000Y-131166000D01*
%TO.C,D14*%
X122041000Y-151692000D02*
X122041000Y-155702000D01*
X124041000Y-151692000D02*
X122041000Y-151692000D01*
X124041000Y-151692000D02*
X124041000Y-155702000D01*
%TO.C,D8*%
X122041000Y-103304000D02*
X122041000Y-107314000D01*
X124041000Y-103304000D02*
X122041000Y-103304000D01*
X124041000Y-103304000D02*
X124041000Y-107314000D01*
%TO.C,D5*%
X265612000Y-55044000D02*
X265612000Y-59054000D01*
X267612000Y-55044000D02*
X265612000Y-55044000D01*
X267612000Y-55044000D02*
X267612000Y-59054000D01*
%TO.C,SW27*%
X164071000Y-276165000D02*
X164071000Y-262165000D01*
X178071000Y-262165000D02*
X164071000Y-262165000D01*
X178071000Y-262165000D02*
X178071000Y-276165000D01*
X178071000Y-276165000D02*
X164071000Y-276165000D01*
%TO.C,D24*%
X313452000Y-200078000D02*
X313452000Y-204088000D01*
X315452000Y-200078000D02*
X313452000Y-200078000D01*
X315452000Y-200078000D02*
X315452000Y-204088000D01*
%TO.C,SW17*%
X259785000Y-179499000D02*
X259785000Y-165499000D01*
X273785000Y-165499000D02*
X259785000Y-165499000D01*
X273785000Y-165499000D02*
X273785000Y-179499000D01*
X273785000Y-179499000D02*
X259785000Y-179499000D01*
%TO.C,SW30*%
X307642000Y-276165000D02*
X307642000Y-262165000D01*
X321642000Y-262165000D02*
X307642000Y-262165000D01*
X321642000Y-262165000D02*
X321642000Y-276165000D01*
X321642000Y-276165000D02*
X307642000Y-276165000D01*
%TO.C,SW20*%
X116214000Y-227832000D02*
X116214000Y-213832000D01*
X130214000Y-213832000D02*
X116214000Y-213832000D01*
X130214000Y-213832000D02*
X130214000Y-227832000D01*
X130214000Y-227832000D02*
X116214000Y-227832000D01*
%TO.C,SW25*%
X68357000Y-276165000D02*
X68357000Y-262165000D01*
X82357000Y-262165000D02*
X68357000Y-262165000D01*
X82357000Y-262165000D02*
X82357000Y-276165000D01*
X82357000Y-276165000D02*
X68357000Y-276165000D01*
%TO.C,SW3*%
X164071000Y-82833000D02*
X164071000Y-68833000D01*
X178071000Y-68833000D02*
X164071000Y-68833000D01*
X178071000Y-68833000D02*
X178071000Y-82833000D01*
X178071000Y-82833000D02*
X164071000Y-82833000D01*
%TO.C,SW11*%
X259785000Y-131166000D02*
X259785000Y-117166000D01*
X273785000Y-117166000D02*
X259785000Y-117166000D01*
X273785000Y-117166000D02*
X273785000Y-131166000D01*
X273785000Y-131166000D02*
X259785000Y-131166000D01*
%TO.C,SW18*%
X307642000Y-179499000D02*
X307642000Y-165499000D01*
X321642000Y-165499000D02*
X307642000Y-165499000D01*
X321642000Y-165499000D02*
X321642000Y-179499000D01*
X321642000Y-179499000D02*
X307642000Y-179499000D01*
%TO.C,D10*%
X217755000Y-103304000D02*
X217755000Y-107314000D01*
X219755000Y-103304000D02*
X217755000Y-103304000D01*
X219755000Y-103304000D02*
X219755000Y-107314000D01*
%TO.C,SW4*%
X211928000Y-82833000D02*
X211928000Y-68833000D01*
X225928000Y-68833000D02*
X211928000Y-68833000D01*
X225928000Y-68833000D02*
X225928000Y-82833000D01*
X225928000Y-82833000D02*
X211928000Y-82833000D01*
%TO.C,D15*%
X169898000Y-151692000D02*
X169898000Y-155702000D01*
X171898000Y-151692000D02*
X169898000Y-151692000D01*
X171898000Y-151692000D02*
X171898000Y-155702000D01*
%TO.C,D27*%
X169898000Y-248338000D02*
X169898000Y-252348000D01*
X171898000Y-248338000D02*
X169898000Y-248338000D01*
X171898000Y-248338000D02*
X171898000Y-252348000D01*
%TO.C,SW7*%
X68357000Y-131166000D02*
X68357000Y-117166000D01*
X82357000Y-117166000D02*
X68357000Y-117166000D01*
X82357000Y-117166000D02*
X82357000Y-131166000D01*
X82357000Y-131166000D02*
X68357000Y-131166000D01*
%TO.C,D1*%
X74184000Y-55044000D02*
X74184000Y-59054000D01*
X76184000Y-55044000D02*
X74184000Y-55044000D01*
X76184000Y-55044000D02*
X76184000Y-59054000D01*
%TO.C,SW13*%
X68357000Y-179499000D02*
X68357000Y-165499000D01*
X82357000Y-165499000D02*
X68357000Y-165499000D01*
X82357000Y-165499000D02*
X82357000Y-179499000D01*
X82357000Y-179499000D02*
X68357000Y-179499000D01*
%TO.C,SW14*%
X116214000Y-179499000D02*
X116214000Y-165499000D01*
X130214000Y-165499000D02*
X116214000Y-165499000D01*
X130214000Y-165499000D02*
X130214000Y-179499000D01*
X130214000Y-179499000D02*
X116214000Y-179499000D01*
%TO.C,SW29*%
X259785000Y-276165000D02*
X259785000Y-262165000D01*
X273785000Y-262165000D02*
X259785000Y-262165000D01*
X273785000Y-262165000D02*
X273785000Y-276165000D01*
X273785000Y-276165000D02*
X259785000Y-276165000D01*
%TO.C,D16*%
X217755000Y-151818000D02*
X217755000Y-155828000D01*
X219755000Y-151818000D02*
X217755000Y-151818000D01*
X219755000Y-151818000D02*
X219755000Y-155828000D01*
%TO.C,SW26*%
X116214000Y-276165000D02*
X116214000Y-262165000D01*
X130214000Y-262165000D02*
X116214000Y-262165000D01*
X130214000Y-262165000D02*
X130214000Y-276165000D01*
X130214000Y-276165000D02*
X116214000Y-276165000D01*
%TO.C,D9*%
X169898000Y-103304000D02*
X169898000Y-107314000D01*
X171898000Y-103304000D02*
X169898000Y-103304000D01*
X171898000Y-103304000D02*
X171898000Y-107314000D01*
%TO.C,SW5*%
X259785000Y-82833000D02*
X259785000Y-68833000D01*
X273785000Y-68833000D02*
X259785000Y-68833000D01*
X273785000Y-68833000D02*
X273785000Y-82833000D01*
X273785000Y-82833000D02*
X259785000Y-82833000D01*
%TO.C,SW12*%
X307642000Y-131166000D02*
X307642000Y-117166000D01*
X321642000Y-117166000D02*
X307642000Y-117166000D01*
X321642000Y-117166000D02*
X321642000Y-131166000D01*
X321642000Y-131166000D02*
X307642000Y-131166000D01*
%TO.C,D23*%
X265612000Y-200078000D02*
X265612000Y-204088000D01*
X267612000Y-200078000D02*
X265612000Y-200078000D01*
X267612000Y-200078000D02*
X267612000Y-204088000D01*
%TO.C,D7*%
X74184000Y-103304000D02*
X74184000Y-107314000D01*
X76184000Y-103304000D02*
X74184000Y-103304000D01*
X76184000Y-103304000D02*
X76184000Y-107314000D01*
%TO.C,D2*%
X122041000Y-55044000D02*
X122041000Y-59054000D01*
X124041000Y-55044000D02*
X122041000Y-55044000D01*
X124041000Y-55044000D02*
X124041000Y-59054000D01*
%TO.C,D6*%
X313452000Y-55044000D02*
X313452000Y-59054000D01*
X315452000Y-55044000D02*
X313452000Y-55044000D01*
X315452000Y-55044000D02*
X315452000Y-59054000D01*
%TO.C,D21*%
X169898000Y-200078000D02*
X169898000Y-204088000D01*
X171898000Y-200078000D02*
X169898000Y-200078000D01*
X171898000Y-200078000D02*
X171898000Y-204088000D01*
%TO.C,D12*%
X313469000Y-103432000D02*
X313469000Y-107442000D01*
X315469000Y-103432000D02*
X313469000Y-103432000D01*
X315469000Y-103432000D02*
X315469000Y-107442000D01*
%TO.C,D22*%
X217755000Y-200078000D02*
X217755000Y-204088000D01*
X219755000Y-200078000D02*
X217755000Y-200078000D01*
X219755000Y-200078000D02*
X219755000Y-204088000D01*
%TO.C,SW22*%
X211928000Y-227832000D02*
X211928000Y-213832000D01*
X225928000Y-213832000D02*
X211928000Y-213832000D01*
X225928000Y-213832000D02*
X225928000Y-227832000D01*
X225928000Y-227832000D02*
X211928000Y-227832000D01*
%TO.C,SW24*%
X307642000Y-227832000D02*
X307642000Y-213832000D01*
X321642000Y-213832000D02*
X307642000Y-213832000D01*
X321642000Y-213832000D02*
X321642000Y-227832000D01*
X321642000Y-227832000D02*
X307642000Y-227832000D01*
%TO.C,SW6*%
X307642000Y-82833000D02*
X307642000Y-68833000D01*
X321642000Y-68833000D02*
X307642000Y-68833000D01*
X321642000Y-68833000D02*
X321642000Y-82833000D01*
X321642000Y-82833000D02*
X307642000Y-82833000D01*
%TO.C,SW1*%
X68357000Y-82833000D02*
X68357000Y-68833000D01*
X82357000Y-68833000D02*
X68357000Y-68833000D01*
X82357000Y-68833000D02*
X82357000Y-82833000D01*
X82357000Y-82833000D02*
X68357000Y-82833000D01*
%TO.C,D28*%
X217694000Y-248338000D02*
X217694000Y-252348000D01*
X219694000Y-248338000D02*
X217694000Y-248338000D01*
X219694000Y-248338000D02*
X219694000Y-252348000D01*
%TO.C,SW19*%
X68357000Y-227832000D02*
X68357000Y-213832000D01*
X82357000Y-213832000D02*
X68357000Y-213832000D01*
X82357000Y-213832000D02*
X82357000Y-227832000D01*
X82357000Y-227832000D02*
X68357000Y-227832000D01*
%TO.C,D25*%
X74184000Y-248338000D02*
X74184000Y-252348000D01*
X76184000Y-248338000D02*
X74184000Y-248338000D01*
X76184000Y-248338000D02*
X76184000Y-252348000D01*
%TO.C,SW2*%
X116214000Y-82833000D02*
X116214000Y-68833000D01*
X130214000Y-68833000D02*
X116214000Y-68833000D01*
X130214000Y-68833000D02*
X130214000Y-82833000D01*
X130214000Y-82833000D02*
X116214000Y-82833000D01*
%TO.C,D4*%
X217755000Y-55044000D02*
X217755000Y-59054000D01*
X219755000Y-55044000D02*
X217755000Y-55044000D01*
X219755000Y-55044000D02*
X219755000Y-59054000D01*
%TO.C,D11*%
X265612000Y-103304000D02*
X265612000Y-107314000D01*
X267612000Y-103304000D02*
X265612000Y-103304000D01*
X267612000Y-103304000D02*
X267612000Y-107314000D01*
%TO.C,SW21*%
X164071000Y-227832000D02*
X164071000Y-213832000D01*
X178071000Y-213832000D02*
X164071000Y-213832000D01*
X178071000Y-213832000D02*
X178071000Y-227832000D01*
X178071000Y-227832000D02*
X164071000Y-227832000D01*
%TO.C,D17*%
X265612000Y-151818000D02*
X265612000Y-155828000D01*
X267612000Y-151818000D02*
X265612000Y-151818000D01*
X267612000Y-151818000D02*
X267612000Y-155828000D01*
%TO.C,SW28*%
X211928000Y-276165000D02*
X211928000Y-262165000D01*
X225928000Y-262165000D02*
X211928000Y-262165000D01*
X225928000Y-262165000D02*
X225928000Y-276165000D01*
X225928000Y-276165000D02*
X211928000Y-276165000D01*
%TO.C,SW9*%
X164071000Y-131166000D02*
X164071000Y-117166000D01*
X178071000Y-117166000D02*
X164071000Y-117166000D01*
X178071000Y-117166000D02*
X178071000Y-131166000D01*
X178071000Y-131166000D02*
X164071000Y-131166000D01*
%TO.C,D19*%
X74184000Y-200078000D02*
X74184000Y-204088000D01*
X76184000Y-200078000D02*
X74184000Y-200078000D01*
X76184000Y-200078000D02*
X76184000Y-204088000D01*
%TO.C,D13*%
X74184000Y-151692000D02*
X74184000Y-155702000D01*
X76184000Y-151692000D02*
X74184000Y-151692000D01*
X76184000Y-151692000D02*
X76184000Y-155702000D01*
%TO.C,D3*%
X169898000Y-55044000D02*
X169898000Y-59054000D01*
X171898000Y-55044000D02*
X169898000Y-55044000D01*
X171898000Y-55044000D02*
X171898000Y-59054000D01*
%TO.C,D30*%
X313469000Y-248466000D02*
X313469000Y-252476000D01*
X315469000Y-248466000D02*
X313469000Y-248466000D01*
X315469000Y-248466000D02*
X315469000Y-252476000D01*
%TO.C,D20*%
X122041000Y-200078000D02*
X122041000Y-204088000D01*
X124041000Y-200078000D02*
X122041000Y-200078000D01*
X124041000Y-200078000D02*
X124041000Y-204088000D01*
%TO.C,D18*%
X313469000Y-151692000D02*
X313469000Y-155702000D01*
X315469000Y-151692000D02*
X313469000Y-151692000D01*
X315469000Y-151692000D02*
X315469000Y-155702000D01*
%TO.C,SW15*%
X164071000Y-179499000D02*
X164071000Y-165499000D01*
X178071000Y-165499000D02*
X164071000Y-165499000D01*
X178071000Y-165499000D02*
X178071000Y-179499000D01*
X178071000Y-179499000D02*
X164071000Y-179499000D01*
%TO.C,SW10*%
X211928000Y-131166000D02*
X211928000Y-117166000D01*
X225928000Y-117166000D02*
X211928000Y-117166000D01*
X225928000Y-117166000D02*
X225928000Y-131166000D01*
X225928000Y-131166000D02*
X211928000Y-131166000D01*
%TO.C,D29*%
X265612000Y-248338000D02*
X265612000Y-252348000D01*
X267612000Y-248338000D02*
X265612000Y-248338000D01*
X267612000Y-248338000D02*
X267612000Y-252348000D01*
%TO.C,D26*%
X122041000Y-248338000D02*
X122041000Y-252348000D01*
X124041000Y-248338000D02*
X122041000Y-248338000D01*
X124041000Y-248338000D02*
X124041000Y-252348000D01*
%TO.C,SW23*%
X259785000Y-227832000D02*
X259785000Y-213832000D01*
X273785000Y-213832000D02*
X259785000Y-213832000D01*
X273785000Y-213832000D02*
X273785000Y-227832000D01*
X273785000Y-227832000D02*
X259785000Y-227832000D01*
%TO.C,SW16*%
X211928000Y-179499000D02*
X211928000Y-165499000D01*
X225928000Y-165499000D02*
X211928000Y-165499000D01*
X225928000Y-165499000D02*
X225928000Y-179499000D01*
X225928000Y-179499000D02*
X211928000Y-179499000D01*
D13*
%TO.C,U1*%
X317588900Y-237871000D02*
X317588900Y-251841000D01*
X319493900Y-235966000D02*
X336638900Y-235966000D01*
X319493900Y-253746000D02*
X336638900Y-253746000D01*
D14*
X338543900Y-240361000D02*
X339554172Y-240364728D01*
D13*
X338543900Y-251841000D02*
X338543900Y-237871000D01*
D14*
X339553900Y-249360000D02*
X338543900Y-249360000D01*
X340053900Y-240864728D02*
X340053900Y-248860000D01*
D13*
X317588900Y-237871000D02*
G75*
G02*
X319493900Y-235966000I1905001J-1D01*
G01*
X319493900Y-253746000D02*
G75*
G02*
X317588900Y-251841000I0J1905000D01*
G01*
X336642900Y-235966000D02*
G75*
G02*
X338547900Y-237871000I-1J-1905001D01*
G01*
X338543900Y-251841000D02*
G75*
G02*
X336638900Y-253746000I-1905050J50D01*
G01*
D14*
X339554172Y-240364728D02*
G75*
G02*
X340053899Y-240864728I-291J-500018D01*
G01*
X340053900Y-248860000D02*
G75*
G02*
X339553900Y-249360000I-500100J100D01*
G01*
D15*
X337662900Y-237030000D02*
G75*
G02*
X337158900Y-237030000I-252000J0D01*
G01*
X337158900Y-237030000D02*
G75*
G02*
X337662900Y-237030000I252000J0D01*
G01*
X338379900Y-235756000D02*
G75*
G02*
X337875900Y-235756000I-252000J0D01*
G01*
X337875900Y-235756000D02*
G75*
G02*
X338379900Y-235756000I252000J0D01*
G01*
%TD*%
%LPC*%
D16*
%TO.C,SW8*%
X123214000Y-124166000D03*
D17*
X125754000Y-120356000D03*
X128294000Y-126706000D03*
%TD*%
D18*
%TO.C,D14*%
X123041000Y-152402000D03*
X123041000Y-155702000D03*
%TD*%
D19*
%TO.C,REF\u002A\u002A*%
X269842000Y-87771000D03*
X285082000Y-87771000D03*
X269842000Y-63895000D03*
X285082000Y-63895000D03*
%TD*%
D18*
%TO.C,D8*%
X123041000Y-104014000D03*
X123041000Y-107314000D03*
%TD*%
D19*
%TO.C,REF\u002A\u002A*%
X263728000Y-208894000D03*
X248488000Y-208894000D03*
X263728000Y-232770000D03*
X248488000Y-232770000D03*
%TD*%
D20*
%TO.C,*%
X55000000Y-290000000D03*
%TD*%
D19*
%TO.C,REF\u002A\u002A*%
X78414000Y-87771000D03*
X93654000Y-87771000D03*
X78414000Y-63895000D03*
X93654000Y-63895000D03*
%TD*%
D18*
%TO.C,D5*%
X266612000Y-55754000D03*
X266612000Y-59054000D03*
%TD*%
D19*
%TO.C,REF\u002A\u002A*%
X311585000Y-208894000D03*
X296345000Y-208894000D03*
X311585000Y-232770000D03*
X296345000Y-232770000D03*
%TD*%
%TO.C,REF\u002A\u002A*%
X215871000Y-63895000D03*
X200631000Y-63895000D03*
X215871000Y-87771000D03*
X200631000Y-87771000D03*
%TD*%
%TO.C,REF\u002A\u002A*%
X269842000Y-232770000D03*
X285082000Y-232770000D03*
X269842000Y-208894000D03*
X285082000Y-208894000D03*
%TD*%
%TO.C,REF\u002A\u002A*%
X174128000Y-184437000D03*
X189368000Y-184437000D03*
X174128000Y-160561000D03*
X189368000Y-160561000D03*
%TD*%
%TO.C,REF\u002A\u002A*%
X215871000Y-257227000D03*
X200631000Y-257227000D03*
X215871000Y-281103000D03*
X200631000Y-281103000D03*
%TD*%
D16*
%TO.C,SW27*%
X171071000Y-269165000D03*
D17*
X173611000Y-265355000D03*
X176151000Y-271705000D03*
%TD*%
D18*
%TO.C,D24*%
X314452000Y-200788000D03*
X314452000Y-204088000D03*
%TD*%
D16*
%TO.C,SW17*%
X266785000Y-172499000D03*
D17*
X269325000Y-168689000D03*
X271865000Y-175039000D03*
%TD*%
D16*
%TO.C,SW30*%
X314642000Y-269165000D03*
D17*
X317182000Y-265355000D03*
X319722000Y-271705000D03*
%TD*%
D19*
%TO.C,REF\u002A\u002A*%
X120157000Y-208894000D03*
X104917000Y-208894000D03*
X120157000Y-232770000D03*
X104917000Y-232770000D03*
%TD*%
D16*
%TO.C,SW20*%
X123214000Y-220832000D03*
D17*
X125754000Y-217022000D03*
X128294000Y-223372000D03*
%TD*%
D19*
%TO.C,REF\u002A\u002A*%
X168014000Y-63895000D03*
X152774000Y-63895000D03*
X168014000Y-87771000D03*
X152774000Y-87771000D03*
%TD*%
%TO.C,REF\u002A\u002A*%
X72300000Y-63895000D03*
X57060000Y-63895000D03*
X72300000Y-87771000D03*
X57060000Y-87771000D03*
%TD*%
D16*
%TO.C,SW25*%
X75357000Y-269165000D03*
D17*
X77897000Y-265355000D03*
X80437000Y-271705000D03*
%TD*%
D19*
%TO.C,REF\u002A\u002A*%
X317699000Y-136104000D03*
X332939000Y-136104000D03*
X317699000Y-112228000D03*
X332939000Y-112228000D03*
%TD*%
%TO.C,REF\u002A\u002A*%
X126271000Y-87771000D03*
X141511000Y-87771000D03*
X126271000Y-63895000D03*
X141511000Y-63895000D03*
%TD*%
D16*
%TO.C,SW3*%
X171071000Y-75833000D03*
D17*
X173611000Y-72023000D03*
X176151000Y-78373000D03*
%TD*%
D16*
%TO.C,SW11*%
X266785000Y-124166000D03*
D17*
X269325000Y-120356000D03*
X271865000Y-126706000D03*
%TD*%
D16*
%TO.C,SW18*%
X314642000Y-172499000D03*
D17*
X317182000Y-168689000D03*
X319722000Y-175039000D03*
%TD*%
D18*
%TO.C,D10*%
X218755000Y-104014000D03*
X218755000Y-107314000D03*
%TD*%
D16*
%TO.C,SW4*%
X218928000Y-75833000D03*
D17*
X221468000Y-72023000D03*
X224008000Y-78373000D03*
%TD*%
D18*
%TO.C,D15*%
X170898000Y-152402000D03*
X170898000Y-155702000D03*
%TD*%
D19*
%TO.C,REF\u002A\u002A*%
X269842000Y-281103000D03*
X285082000Y-281103000D03*
X269842000Y-257227000D03*
X285082000Y-257227000D03*
%TD*%
D18*
%TO.C,D27*%
X170898000Y-249048000D03*
X170898000Y-252348000D03*
%TD*%
D16*
%TO.C,SW7*%
X75357000Y-124166000D03*
D17*
X77897000Y-120356000D03*
X80437000Y-126706000D03*
%TD*%
D18*
%TO.C,D1*%
X75184000Y-55754000D03*
X75184000Y-59054000D03*
%TD*%
D19*
%TO.C,REF\u002A\u002A*%
X120157000Y-112228000D03*
X104917000Y-112228000D03*
X120157000Y-136104000D03*
X104917000Y-136104000D03*
%TD*%
D16*
%TO.C,SW13*%
X75357000Y-172499000D03*
D17*
X77897000Y-168689000D03*
X80437000Y-175039000D03*
%TD*%
D19*
%TO.C,REF\u002A\u002A*%
X269842000Y-184437000D03*
X285082000Y-184437000D03*
X269842000Y-160561000D03*
X285082000Y-160561000D03*
%TD*%
%TO.C,REF\u002A\u002A*%
X311585000Y-112228000D03*
X296345000Y-112228000D03*
X311585000Y-136104000D03*
X296345000Y-136104000D03*
%TD*%
%TO.C,REF\u002A\u002A*%
X221985000Y-281103000D03*
X237225000Y-281103000D03*
X221985000Y-257227000D03*
X237225000Y-257227000D03*
%TD*%
%TO.C,REF\u002A\u002A*%
X215871000Y-208894000D03*
X200631000Y-208894000D03*
X215871000Y-232770000D03*
X200631000Y-232770000D03*
%TD*%
D16*
%TO.C,SW14*%
X123214000Y-172499000D03*
D17*
X125754000Y-168689000D03*
X128294000Y-175039000D03*
%TD*%
D19*
%TO.C,REF\u002A\u002A*%
X311585000Y-257227000D03*
X296345000Y-257227000D03*
X311585000Y-281103000D03*
X296345000Y-281103000D03*
%TD*%
D16*
%TO.C,SW29*%
X266785000Y-269165000D03*
D17*
X269325000Y-265355000D03*
X271865000Y-271705000D03*
%TD*%
D18*
%TO.C,D16*%
X218755000Y-152528000D03*
X218755000Y-155828000D03*
%TD*%
D19*
%TO.C,REF\u002A\u002A*%
X78414000Y-136104000D03*
X93654000Y-136104000D03*
X78414000Y-112228000D03*
X93654000Y-112228000D03*
%TD*%
%TO.C,REF\u002A\u002A*%
X168014000Y-160561000D03*
X152774000Y-160561000D03*
X168014000Y-184437000D03*
X152774000Y-184437000D03*
%TD*%
%TO.C,REF\u002A\u002A*%
X126271000Y-136104000D03*
X141511000Y-136104000D03*
X126271000Y-112228000D03*
X141511000Y-112228000D03*
%TD*%
%TO.C,REF\u002A\u002A*%
X174128000Y-232770000D03*
X189368000Y-232770000D03*
X174128000Y-208894000D03*
X189368000Y-208894000D03*
%TD*%
D16*
%TO.C,SW26*%
X123214000Y-269165000D03*
D17*
X125754000Y-265355000D03*
X128294000Y-271705000D03*
%TD*%
D19*
%TO.C,REF\u002A\u002A*%
X168014000Y-208894000D03*
X152774000Y-208894000D03*
X168014000Y-232770000D03*
X152774000Y-232770000D03*
%TD*%
D18*
%TO.C,D9*%
X170898000Y-104014000D03*
X170898000Y-107314000D03*
%TD*%
D19*
%TO.C,REF\u002A\u002A*%
X78414000Y-184437000D03*
X93654000Y-184437000D03*
X78414000Y-160561000D03*
X93654000Y-160561000D03*
%TD*%
D16*
%TO.C,SW5*%
X266785000Y-75833000D03*
D17*
X269325000Y-72023000D03*
X271865000Y-78373000D03*
%TD*%
D16*
%TO.C,SW12*%
X314642000Y-124166000D03*
D17*
X317182000Y-120356000D03*
X319722000Y-126706000D03*
%TD*%
D18*
%TO.C,D23*%
X266612000Y-200788000D03*
X266612000Y-204088000D03*
%TD*%
D20*
%TO.C,*%
X55000000Y-55000000D03*
%TD*%
D19*
%TO.C,REF\u002A\u002A*%
X126271000Y-184437000D03*
X141511000Y-184437000D03*
X126271000Y-160561000D03*
X141511000Y-160561000D03*
%TD*%
%TO.C,REF\u002A\u002A*%
X317699000Y-87771000D03*
X332939000Y-87771000D03*
X317699000Y-63895000D03*
X332939000Y-63895000D03*
%TD*%
%TO.C,REF\u002A\u002A*%
X263728000Y-257227000D03*
X248488000Y-257227000D03*
X263728000Y-281103000D03*
X248488000Y-281103000D03*
%TD*%
D18*
%TO.C,D7*%
X75184000Y-104014000D03*
X75184000Y-107314000D03*
%TD*%
D19*
%TO.C,REF\u002A\u002A*%
X311585000Y-63895000D03*
X296345000Y-63895000D03*
X311585000Y-87771000D03*
X296345000Y-87771000D03*
%TD*%
D18*
%TO.C,D2*%
X123041000Y-55754000D03*
X123041000Y-59054000D03*
%TD*%
%TO.C,D6*%
X314452000Y-55754000D03*
X314452000Y-59054000D03*
%TD*%
%TO.C,D21*%
X170898000Y-200788000D03*
X170898000Y-204088000D03*
%TD*%
%TO.C,D12*%
X314469000Y-104142000D03*
X314469000Y-107442000D03*
%TD*%
%TO.C,D22*%
X218755000Y-200788000D03*
X218755000Y-204088000D03*
%TD*%
D20*
%TO.C,*%
X335000000Y-55000000D03*
%TD*%
D19*
%TO.C,REF\u002A\u002A*%
X263728000Y-160561000D03*
X248488000Y-160561000D03*
X263728000Y-184437000D03*
X248488000Y-184437000D03*
%TD*%
%TO.C,REF\u002A\u002A*%
X221985000Y-232770000D03*
X237225000Y-232770000D03*
X221985000Y-208894000D03*
X237225000Y-208894000D03*
%TD*%
%TO.C,REF\u002A\u002A*%
X174128000Y-281103000D03*
X189368000Y-281103000D03*
X174128000Y-257227000D03*
X189368000Y-257227000D03*
%TD*%
%TO.C,REF\u002A\u002A*%
X263728000Y-63895000D03*
X248488000Y-63895000D03*
X263728000Y-87771000D03*
X248488000Y-87771000D03*
%TD*%
D16*
%TO.C,SW22*%
X218928000Y-220832000D03*
D17*
X221468000Y-217022000D03*
X224008000Y-223372000D03*
%TD*%
D16*
%TO.C,SW24*%
X314642000Y-220832000D03*
D17*
X317182000Y-217022000D03*
X319722000Y-223372000D03*
%TD*%
D16*
%TO.C,SW6*%
X314642000Y-75833000D03*
D17*
X317182000Y-72023000D03*
X319722000Y-78373000D03*
%TD*%
D19*
%TO.C,REF\u002A\u002A*%
X317699000Y-232770000D03*
X332939000Y-232770000D03*
X317699000Y-208894000D03*
X332939000Y-208894000D03*
%TD*%
%TO.C,REF\u002A\u002A*%
X221985000Y-136104000D03*
X237225000Y-136104000D03*
X221985000Y-112228000D03*
X237225000Y-112228000D03*
%TD*%
D16*
%TO.C,SW1*%
X75357000Y-75833000D03*
D17*
X77897000Y-72023000D03*
X80437000Y-78373000D03*
%TD*%
D18*
%TO.C,D28*%
X218694000Y-249048000D03*
X218694000Y-252348000D03*
%TD*%
D16*
%TO.C,SW19*%
X75357000Y-220832000D03*
D17*
X77897000Y-217022000D03*
X80437000Y-223372000D03*
%TD*%
D19*
%TO.C,REF\u002A\u002A*%
X72300000Y-208894000D03*
X57060000Y-208894000D03*
X72300000Y-232770000D03*
X57060000Y-232770000D03*
%TD*%
%TO.C,REF\u002A\u002A*%
X168014000Y-257227000D03*
X152774000Y-257227000D03*
X168014000Y-281103000D03*
X152774000Y-281103000D03*
%TD*%
%TO.C,REF\u002A\u002A*%
X215871000Y-112228000D03*
X200631000Y-112228000D03*
X215871000Y-136104000D03*
X200631000Y-136104000D03*
%TD*%
D18*
%TO.C,D25*%
X75184000Y-249048000D03*
X75184000Y-252348000D03*
%TD*%
D16*
%TO.C,SW2*%
X123214000Y-75833000D03*
D17*
X125754000Y-72023000D03*
X128294000Y-78373000D03*
%TD*%
D18*
%TO.C,D4*%
X218755000Y-55754000D03*
X218755000Y-59054000D03*
%TD*%
D19*
%TO.C,REF\u002A\u002A*%
X126271000Y-232770000D03*
X141511000Y-232770000D03*
X126271000Y-208894000D03*
X141511000Y-208894000D03*
%TD*%
D18*
%TO.C,D11*%
X266612000Y-104014000D03*
X266612000Y-107314000D03*
%TD*%
D19*
%TO.C,REF\u002A\u002A*%
X174128000Y-87771000D03*
X189368000Y-87771000D03*
X174128000Y-63895000D03*
X189368000Y-63895000D03*
%TD*%
%TO.C,REF\u002A\u002A*%
X215871000Y-160561000D03*
X200631000Y-160561000D03*
X215871000Y-184437000D03*
X200631000Y-184437000D03*
%TD*%
D16*
%TO.C,SW21*%
X171071000Y-220832000D03*
D17*
X173611000Y-217022000D03*
X176151000Y-223372000D03*
%TD*%
D19*
%TO.C,REF\u002A\u002A*%
X72300000Y-257227000D03*
X57060000Y-257227000D03*
X72300000Y-281103000D03*
X57060000Y-281103000D03*
%TD*%
D18*
%TO.C,D17*%
X266612000Y-152528000D03*
X266612000Y-155828000D03*
%TD*%
D16*
%TO.C,SW28*%
X218928000Y-269165000D03*
D17*
X221468000Y-265355000D03*
X224008000Y-271705000D03*
%TD*%
D19*
%TO.C,REF\u002A\u002A*%
X168014000Y-112228000D03*
X152774000Y-112228000D03*
X168014000Y-136104000D03*
X152774000Y-136104000D03*
%TD*%
%TO.C,REF\u002A\u002A*%
X311585000Y-160561000D03*
X296345000Y-160561000D03*
X311585000Y-184437000D03*
X296345000Y-184437000D03*
%TD*%
%TO.C,REF\u002A\u002A*%
X72300000Y-112228000D03*
X57060000Y-112228000D03*
X72300000Y-136104000D03*
X57060000Y-136104000D03*
%TD*%
D16*
%TO.C,SW9*%
X171071000Y-124166000D03*
D17*
X173611000Y-120356000D03*
X176151000Y-126706000D03*
%TD*%
D19*
%TO.C,REF\u002A\u002A*%
X269842000Y-136104000D03*
X285082000Y-136104000D03*
X269842000Y-112228000D03*
X285082000Y-112228000D03*
%TD*%
D18*
%TO.C,D19*%
X75184000Y-200788000D03*
X75184000Y-204088000D03*
%TD*%
%TO.C,D13*%
X75184000Y-152402000D03*
X75184000Y-155702000D03*
%TD*%
D19*
%TO.C,REF\u002A\u002A*%
X120157000Y-257227000D03*
X104917000Y-257227000D03*
X120157000Y-281103000D03*
X104917000Y-281103000D03*
%TD*%
D18*
%TO.C,D3*%
X170898000Y-55754000D03*
X170898000Y-59054000D03*
%TD*%
D19*
%TO.C,REF\u002A\u002A*%
X120157000Y-160561000D03*
X104917000Y-160561000D03*
X120157000Y-184437000D03*
X104917000Y-184437000D03*
%TD*%
%TO.C,REF\u002A\u002A*%
X317699000Y-184437000D03*
X332939000Y-184437000D03*
X317699000Y-160561000D03*
X332939000Y-160561000D03*
%TD*%
D18*
%TO.C,D30*%
X314469000Y-249176000D03*
X314469000Y-252476000D03*
%TD*%
D19*
%TO.C,REF\u002A\u002A*%
X263728000Y-112228000D03*
X248488000Y-112228000D03*
X263728000Y-136104000D03*
X248488000Y-136104000D03*
%TD*%
%TO.C,REF\u002A\u002A*%
X120157000Y-63895000D03*
X104917000Y-63895000D03*
X120157000Y-87771000D03*
X104917000Y-87771000D03*
%TD*%
D18*
%TO.C,D20*%
X123041000Y-200788000D03*
X123041000Y-204088000D03*
%TD*%
%TO.C,D18*%
X314469000Y-152402000D03*
X314469000Y-155702000D03*
%TD*%
D19*
%TO.C,REF\u002A\u002A*%
X174128000Y-136104000D03*
X189368000Y-136104000D03*
X174128000Y-112228000D03*
X189368000Y-112228000D03*
%TD*%
%TO.C,REF\u002A\u002A*%
X221985000Y-184437000D03*
X237225000Y-184437000D03*
X221985000Y-160561000D03*
X237225000Y-160561000D03*
%TD*%
%TO.C,REF\u002A\u002A*%
X126271000Y-281103000D03*
X141511000Y-281103000D03*
X126271000Y-257227000D03*
X141511000Y-257227000D03*
%TD*%
D16*
%TO.C,SW15*%
X171071000Y-172499000D03*
D17*
X173611000Y-168689000D03*
X176151000Y-175039000D03*
%TD*%
D16*
%TO.C,SW10*%
X218928000Y-124166000D03*
D17*
X221468000Y-120356000D03*
X224008000Y-126706000D03*
%TD*%
D18*
%TO.C,D29*%
X266612000Y-249048000D03*
X266612000Y-252348000D03*
%TD*%
%TO.C,D26*%
X123041000Y-249048000D03*
X123041000Y-252348000D03*
%TD*%
D20*
%TO.C,*%
X335000000Y-290000000D03*
%TD*%
D19*
%TO.C,REF\u002A\u002A*%
X78414000Y-232770000D03*
X93654000Y-232770000D03*
X78414000Y-208894000D03*
X93654000Y-208894000D03*
%TD*%
D16*
%TO.C,SW23*%
X266785000Y-220832000D03*
D17*
X269325000Y-217022000D03*
X271865000Y-223372000D03*
%TD*%
D16*
%TO.C,SW16*%
X218928000Y-172499000D03*
D17*
X221468000Y-168689000D03*
X224008000Y-175039000D03*
%TD*%
D19*
%TO.C,REF\u002A\u002A*%
X78414000Y-281103000D03*
X93654000Y-281103000D03*
X78414000Y-257227000D03*
X93654000Y-257227000D03*
%TD*%
%TO.C,REF\u002A\u002A*%
X221985000Y-87771000D03*
X237225000Y-87771000D03*
X221985000Y-63895000D03*
X237225000Y-63895000D03*
%TD*%
%TO.C,REF\u002A\u002A*%
X72300000Y-160561000D03*
X57060000Y-160561000D03*
X72300000Y-184437000D03*
X57060000Y-184437000D03*
%TD*%
%TO.C,REF\u002A\u002A*%
X317699000Y-281103000D03*
X332939000Y-281103000D03*
X317699000Y-257227000D03*
X332939000Y-257227000D03*
%TD*%
%LPD*%
M02*
