M48
; DRILL file {KiCad 8.0.6} date 2025-03-22T17:54:38-0500
; FORMAT={-:-/ absolute / inch / decimal}
; #@! TF.CreationDate,2025-03-22T17:54:38-05:00
; #@! TF.GenerationSoftware,Kicad,Pcbnew,8.0.6
; #@! TF.FileFunction,NonPlated,1,2,NPTH
FMAT,2
INCH
; #@! TA.AperFunction,NonPlated,NPTH,ComponentDrill
T1C0.1201
; #@! TA.AperFunction,NonPlated,NPTH,ComponentDrill
T2C0.1575
%
G90
G05
T1
X2.1654Y-2.1654
X2.1654Y-11.4173
X2.8465Y-2.5156
X2.8465Y-3.4556
X2.8465Y-4.4184
X2.8465Y-5.3584
X2.8465Y-6.3213
X2.8465Y-7.2613
X2.8465Y-8.2242
X2.8465Y-9.1642
X2.8465Y-10.127
X2.8465Y-11.067
X3.0872Y-2.5156
X3.0872Y-3.4556
X3.0872Y-4.4184
X3.0872Y-5.3584
X3.0872Y-6.3213
X3.0872Y-7.2613
X3.0872Y-8.2242
X3.0872Y-9.1642
X3.0872Y-10.127
X3.0872Y-11.067
X4.7306Y-2.5156
X4.7306Y-3.4556
X4.7306Y-4.4184
X4.7306Y-5.3584
X4.7306Y-6.3213
X4.7306Y-7.2613
X4.7306Y-8.2242
X4.7306Y-9.1642
X4.7306Y-10.127
X4.7306Y-11.067
X4.9713Y-2.5156
X4.9713Y-3.4556
X4.9713Y-4.4184
X4.9713Y-5.3584
X4.9713Y-6.3213
X4.9713Y-7.2613
X4.9713Y-8.2242
X4.9713Y-9.1642
X4.9713Y-10.127
X4.9713Y-11.067
X6.6147Y-2.5156
X6.6147Y-3.4556
X6.6147Y-4.4184
X6.6147Y-5.3584
X6.6147Y-6.3213
X6.6147Y-7.2613
X6.6147Y-8.2242
X6.6147Y-9.1642
X6.6147Y-10.127
X6.6147Y-11.067
X6.8554Y-2.5156
X6.8554Y-3.4556
X6.8554Y-4.4184
X6.8554Y-5.3584
X6.8554Y-6.3213
X6.8554Y-7.2613
X6.8554Y-8.2242
X6.8554Y-9.1642
X6.8554Y-10.127
X6.8554Y-11.067
X8.4989Y-2.5156
X8.4989Y-3.4556
X8.4989Y-4.4184
X8.4989Y-5.3584
X8.4989Y-6.3213
X8.4989Y-7.2613
X8.4989Y-8.2242
X8.4989Y-9.1642
X8.4989Y-10.127
X8.4989Y-11.067
X8.7396Y-2.5156
X8.7396Y-3.4556
X8.7396Y-4.4184
X8.7396Y-5.3584
X8.7396Y-6.3213
X8.7396Y-7.2613
X8.7396Y-8.2242
X8.7396Y-9.1642
X8.7396Y-10.127
X8.7396Y-11.067
X10.383Y-2.5156
X10.383Y-3.4556
X10.383Y-4.4184
X10.383Y-5.3584
X10.383Y-6.3213
X10.383Y-7.2613
X10.383Y-8.2242
X10.383Y-9.1642
X10.383Y-10.127
X10.383Y-11.067
X10.6237Y-2.5156
X10.6237Y-3.4556
X10.6237Y-4.4184
X10.6237Y-5.3584
X10.6237Y-6.3213
X10.6237Y-7.2613
X10.6237Y-8.2242
X10.6237Y-9.1642
X10.6237Y-10.127
X10.6237Y-11.067
X12.2671Y-2.5156
X12.2671Y-3.4556
X12.2671Y-4.4184
X12.2671Y-5.3584
X12.2671Y-6.3213
X12.2671Y-7.2613
X12.2671Y-8.2242
X12.2671Y-9.1642
X12.2671Y-10.127
X12.2671Y-11.067
X12.5078Y-2.5156
X12.5078Y-3.4556
X12.5078Y-4.4184
X12.5078Y-5.3584
X12.5078Y-6.3213
X12.5078Y-7.2613
X12.5078Y-8.2242
X12.5078Y-9.1642
X12.5078Y-10.127
X12.5078Y-11.067
X13.189Y-2.1654
X13.189Y-11.4173
T2
X2.2465Y-2.5156
X2.2465Y-3.4556
X2.2465Y-4.4184
X2.2465Y-5.3584
X2.2465Y-6.3213
X2.2465Y-7.2613
X2.2465Y-8.2242
X2.2465Y-9.1642
X2.2465Y-10.127
X2.2465Y-11.067
X2.9668Y-2.9856
X2.9668Y-4.8884
X2.9668Y-6.7913
X2.9668Y-8.6942
X2.9668Y-10.597
X3.6872Y-2.5156
X3.6872Y-3.4556
X3.6872Y-4.4184
X3.6872Y-5.3584
X3.6872Y-6.3213
X3.6872Y-7.2613
X3.6872Y-8.2242
X3.6872Y-9.1642
X3.6872Y-10.127
X3.6872Y-11.067
X4.1306Y-2.5156
X4.1306Y-3.4556
X4.1306Y-4.4184
X4.1306Y-5.3584
X4.1306Y-6.3213
X4.1306Y-7.2613
X4.1306Y-8.2242
X4.1306Y-9.1642
X4.1306Y-10.127
X4.1306Y-11.067
X4.8509Y-2.9856
X4.8509Y-4.8884
X4.8509Y-6.7913
X4.8509Y-8.6942
X4.8509Y-10.597
X5.5713Y-2.5156
X5.5713Y-3.4556
X5.5713Y-4.4184
X5.5713Y-5.3584
X5.5713Y-6.3213
X5.5713Y-7.2613
X5.5713Y-8.2242
X5.5713Y-9.1642
X5.5713Y-10.127
X5.5713Y-11.067
X6.0147Y-2.5156
X6.0147Y-3.4556
X6.0147Y-4.4184
X6.0147Y-5.3584
X6.0147Y-6.3213
X6.0147Y-7.2613
X6.0147Y-8.2242
X6.0147Y-9.1642
X6.0147Y-10.127
X6.0147Y-11.067
X6.7351Y-2.9856
X6.7351Y-4.8884
X6.7351Y-6.7913
X6.7351Y-8.6942
X6.7351Y-10.597
X7.4554Y-2.5156
X7.4554Y-3.4556
X7.4554Y-4.4184
X7.4554Y-5.3584
X7.4554Y-6.3213
X7.4554Y-7.2613
X7.4554Y-8.2242
X7.4554Y-9.1642
X7.4554Y-10.127
X7.4554Y-11.067
X7.8989Y-2.5156
X7.8989Y-3.4556
X7.8989Y-4.4184
X7.8989Y-5.3584
X7.8989Y-6.3213
X7.8989Y-7.2613
X7.8989Y-8.2242
X7.8989Y-9.1642
X7.8989Y-10.127
X7.8989Y-11.067
X8.6192Y-2.9856
X8.6192Y-4.8884
X8.6192Y-6.7913
X8.6192Y-8.6942
X8.6192Y-10.597
X9.3396Y-2.5156
X9.3396Y-3.4556
X9.3396Y-4.4184
X9.3396Y-5.3584
X9.3396Y-6.3213
X9.3396Y-7.2613
X9.3396Y-8.2242
X9.3396Y-9.1642
X9.3396Y-10.127
X9.3396Y-11.067
X9.783Y-2.5156
X9.783Y-3.4556
X9.783Y-4.4184
X9.783Y-5.3584
X9.783Y-6.3213
X9.783Y-7.2613
X9.783Y-8.2242
X9.783Y-9.1642
X9.783Y-10.127
X9.783Y-11.067
X10.5033Y-2.9856
X10.5033Y-4.8884
X10.5033Y-6.7913
X10.5033Y-8.6942
X10.5033Y-10.597
X11.2237Y-2.5156
X11.2237Y-3.4556
X11.2237Y-4.4184
X11.2237Y-5.3584
X11.2237Y-6.3213
X11.2237Y-7.2613
X11.2237Y-8.2242
X11.2237Y-9.1642
X11.2237Y-10.127
X11.2237Y-11.067
X11.6671Y-2.5156
X11.6671Y-3.4556
X11.6671Y-4.4184
X11.6671Y-5.3584
X11.6671Y-6.3213
X11.6671Y-7.2613
X11.6671Y-8.2242
X11.6671Y-9.1642
X11.6671Y-10.127
X11.6671Y-11.067
X12.3875Y-2.9856
X12.3875Y-4.8884
X12.3875Y-6.7913
X12.3875Y-8.6942
X12.3875Y-10.597
X13.1078Y-2.5156
X13.1078Y-3.4556
X13.1078Y-4.4184
X13.1078Y-5.3584
X13.1078Y-6.3213
X13.1078Y-7.2613
X13.1078Y-8.2242
X13.1078Y-9.1642
X13.1078Y-10.127
X13.1078Y-11.067
M30
