%TF.GenerationSoftware,KiCad,Pcbnew,8.0.6*%
%TF.CreationDate,2025-03-22T17:54:38-05:00*%
%TF.ProjectId,Smartboard,536d6172-7462-46f6-9172-642e6b696361,rev?*%
%TF.SameCoordinates,Original*%
%TF.FileFunction,Soldermask,Bot*%
%TF.FilePolarity,Negative*%
%FSLAX46Y46*%
G04 Gerber Fmt 4.6, Leading zero omitted, Abs format (unit mm)*
G04 Created by KiCad (PCBNEW 8.0.6) date 2025-03-22 17:54:38*
%MOMM*%
%LPD*%
G01*
G04 APERTURE LIST*
G04 Aperture macros list*
%AMRoundRect*
0 Rectangle with rounded corners*
0 $1 Rounding radius*
0 $2 $3 $4 $5 $6 $7 $8 $9 X,Y pos of 4 corners*
0 Add a 4 corners polygon primitive as box body*
4,1,4,$2,$3,$4,$5,$6,$7,$8,$9,$2,$3,0*
0 Add four circle primitives for the rounded corners*
1,1,$1+$1,$2,$3*
1,1,$1+$1,$4,$5*
1,1,$1+$1,$6,$7*
1,1,$1+$1,$8,$9*
0 Add four rect primitives between the rounded corners*
20,1,$1+$1,$2,$3,$4,$5,0*
20,1,$1+$1,$4,$5,$6,$7,0*
20,1,$1+$1,$6,$7,$8,$9,0*
20,1,$1+$1,$8,$9,$2,$3,0*%
G04 Aperture macros list end*
%ADD10C,4.000000*%
%ADD11C,2.200000*%
%ADD12C,3.050000*%
%ADD13C,3.000000*%
%ADD14RoundRect,0.525400X-0.525400X0.900400X-0.525400X-0.900400X0.525400X-0.900400X0.525400X0.900400X0*%
%ADD15RoundRect,0.300400X0.300400X-1.000400X0.300400X1.000400X-0.300400X1.000400X-0.300400X-1.000400X0*%
%ADD16RoundRect,0.300400X1.000400X0.300400X-1.000400X0.300400X-1.000400X-0.300400X1.000400X-0.300400X0*%
%ADD17C,1.700000*%
G04 APERTURE END LIST*
D10*
%TO.C,SW8*%
X123214000Y-124166000D03*
D11*
X125754000Y-120356000D03*
X128294000Y-126706000D03*
%TD*%
D12*
%TO.C,REF\u002A\u002A*%
X269842000Y-87771000D03*
X285082000Y-87771000D03*
X269842000Y-63895000D03*
X285082000Y-63895000D03*
%TD*%
%TO.C,REF\u002A\u002A*%
X263728000Y-208894000D03*
X248488000Y-208894000D03*
X263728000Y-232770000D03*
X248488000Y-232770000D03*
%TD*%
D13*
%TO.C,*%
X55000000Y-290000000D03*
%TD*%
D12*
%TO.C,REF\u002A\u002A*%
X78414000Y-87771000D03*
X93654000Y-87771000D03*
X78414000Y-63895000D03*
X93654000Y-63895000D03*
%TD*%
%TO.C,REF\u002A\u002A*%
X311585000Y-208894000D03*
X296345000Y-208894000D03*
X311585000Y-232770000D03*
X296345000Y-232770000D03*
%TD*%
%TO.C,REF\u002A\u002A*%
X215871000Y-63895000D03*
X200631000Y-63895000D03*
X215871000Y-87771000D03*
X200631000Y-87771000D03*
%TD*%
%TO.C,REF\u002A\u002A*%
X269842000Y-232770000D03*
X285082000Y-232770000D03*
X269842000Y-208894000D03*
X285082000Y-208894000D03*
%TD*%
%TO.C,REF\u002A\u002A*%
X174128000Y-184437000D03*
X189368000Y-184437000D03*
X174128000Y-160561000D03*
X189368000Y-160561000D03*
%TD*%
%TO.C,REF\u002A\u002A*%
X215871000Y-257227000D03*
X200631000Y-257227000D03*
X215871000Y-281103000D03*
X200631000Y-281103000D03*
%TD*%
D10*
%TO.C,SW27*%
X171071000Y-269165000D03*
D11*
X173611000Y-265355000D03*
X176151000Y-271705000D03*
%TD*%
D10*
%TO.C,SW17*%
X266785000Y-172499000D03*
D11*
X269325000Y-168689000D03*
X271865000Y-175039000D03*
%TD*%
D10*
%TO.C,SW30*%
X314642000Y-269165000D03*
D11*
X317182000Y-265355000D03*
X319722000Y-271705000D03*
%TD*%
D12*
%TO.C,REF\u002A\u002A*%
X120157000Y-208894000D03*
X104917000Y-208894000D03*
X120157000Y-232770000D03*
X104917000Y-232770000D03*
%TD*%
D10*
%TO.C,SW20*%
X123214000Y-220832000D03*
D11*
X125754000Y-217022000D03*
X128294000Y-223372000D03*
%TD*%
D12*
%TO.C,REF\u002A\u002A*%
X168014000Y-63895000D03*
X152774000Y-63895000D03*
X168014000Y-87771000D03*
X152774000Y-87771000D03*
%TD*%
%TO.C,REF\u002A\u002A*%
X72300000Y-63895000D03*
X57060000Y-63895000D03*
X72300000Y-87771000D03*
X57060000Y-87771000D03*
%TD*%
D10*
%TO.C,SW25*%
X75357000Y-269165000D03*
D11*
X77897000Y-265355000D03*
X80437000Y-271705000D03*
%TD*%
D12*
%TO.C,REF\u002A\u002A*%
X317699000Y-136104000D03*
X332939000Y-136104000D03*
X317699000Y-112228000D03*
X332939000Y-112228000D03*
%TD*%
%TO.C,REF\u002A\u002A*%
X126271000Y-87771000D03*
X141511000Y-87771000D03*
X126271000Y-63895000D03*
X141511000Y-63895000D03*
%TD*%
D10*
%TO.C,SW3*%
X171071000Y-75833000D03*
D11*
X173611000Y-72023000D03*
X176151000Y-78373000D03*
%TD*%
D10*
%TO.C,SW11*%
X266785000Y-124166000D03*
D11*
X269325000Y-120356000D03*
X271865000Y-126706000D03*
%TD*%
D10*
%TO.C,SW18*%
X314642000Y-172499000D03*
D11*
X317182000Y-168689000D03*
X319722000Y-175039000D03*
%TD*%
D10*
%TO.C,SW4*%
X218928000Y-75833000D03*
D11*
X221468000Y-72023000D03*
X224008000Y-78373000D03*
%TD*%
D12*
%TO.C,REF\u002A\u002A*%
X269842000Y-281103000D03*
X285082000Y-281103000D03*
X269842000Y-257227000D03*
X285082000Y-257227000D03*
%TD*%
D10*
%TO.C,SW7*%
X75357000Y-124166000D03*
D11*
X77897000Y-120356000D03*
X80437000Y-126706000D03*
%TD*%
D12*
%TO.C,REF\u002A\u002A*%
X120157000Y-112228000D03*
X104917000Y-112228000D03*
X120157000Y-136104000D03*
X104917000Y-136104000D03*
%TD*%
D10*
%TO.C,SW13*%
X75357000Y-172499000D03*
D11*
X77897000Y-168689000D03*
X80437000Y-175039000D03*
%TD*%
D12*
%TO.C,REF\u002A\u002A*%
X269842000Y-184437000D03*
X285082000Y-184437000D03*
X269842000Y-160561000D03*
X285082000Y-160561000D03*
%TD*%
%TO.C,REF\u002A\u002A*%
X311585000Y-112228000D03*
X296345000Y-112228000D03*
X311585000Y-136104000D03*
X296345000Y-136104000D03*
%TD*%
%TO.C,REF\u002A\u002A*%
X221985000Y-281103000D03*
X237225000Y-281103000D03*
X221985000Y-257227000D03*
X237225000Y-257227000D03*
%TD*%
%TO.C,REF\u002A\u002A*%
X215871000Y-208894000D03*
X200631000Y-208894000D03*
X215871000Y-232770000D03*
X200631000Y-232770000D03*
%TD*%
D10*
%TO.C,SW14*%
X123214000Y-172499000D03*
D11*
X125754000Y-168689000D03*
X128294000Y-175039000D03*
%TD*%
D12*
%TO.C,REF\u002A\u002A*%
X311585000Y-257227000D03*
X296345000Y-257227000D03*
X311585000Y-281103000D03*
X296345000Y-281103000D03*
%TD*%
D10*
%TO.C,SW29*%
X266785000Y-269165000D03*
D11*
X269325000Y-265355000D03*
X271865000Y-271705000D03*
%TD*%
D12*
%TO.C,REF\u002A\u002A*%
X78414000Y-136104000D03*
X93654000Y-136104000D03*
X78414000Y-112228000D03*
X93654000Y-112228000D03*
%TD*%
%TO.C,REF\u002A\u002A*%
X168014000Y-160561000D03*
X152774000Y-160561000D03*
X168014000Y-184437000D03*
X152774000Y-184437000D03*
%TD*%
%TO.C,REF\u002A\u002A*%
X126271000Y-136104000D03*
X141511000Y-136104000D03*
X126271000Y-112228000D03*
X141511000Y-112228000D03*
%TD*%
%TO.C,REF\u002A\u002A*%
X174128000Y-232770000D03*
X189368000Y-232770000D03*
X174128000Y-208894000D03*
X189368000Y-208894000D03*
%TD*%
D10*
%TO.C,SW26*%
X123214000Y-269165000D03*
D11*
X125754000Y-265355000D03*
X128294000Y-271705000D03*
%TD*%
D12*
%TO.C,REF\u002A\u002A*%
X168014000Y-208894000D03*
X152774000Y-208894000D03*
X168014000Y-232770000D03*
X152774000Y-232770000D03*
%TD*%
%TO.C,REF\u002A\u002A*%
X78414000Y-184437000D03*
X93654000Y-184437000D03*
X78414000Y-160561000D03*
X93654000Y-160561000D03*
%TD*%
D10*
%TO.C,SW5*%
X266785000Y-75833000D03*
D11*
X269325000Y-72023000D03*
X271865000Y-78373000D03*
%TD*%
D10*
%TO.C,SW12*%
X314642000Y-124166000D03*
D11*
X317182000Y-120356000D03*
X319722000Y-126706000D03*
%TD*%
D13*
%TO.C,*%
X55000000Y-55000000D03*
%TD*%
D12*
%TO.C,REF\u002A\u002A*%
X126271000Y-184437000D03*
X141511000Y-184437000D03*
X126271000Y-160561000D03*
X141511000Y-160561000D03*
%TD*%
%TO.C,REF\u002A\u002A*%
X317699000Y-87771000D03*
X332939000Y-87771000D03*
X317699000Y-63895000D03*
X332939000Y-63895000D03*
%TD*%
%TO.C,REF\u002A\u002A*%
X263728000Y-257227000D03*
X248488000Y-257227000D03*
X263728000Y-281103000D03*
X248488000Y-281103000D03*
%TD*%
%TO.C,REF\u002A\u002A*%
X311585000Y-63895000D03*
X296345000Y-63895000D03*
X311585000Y-87771000D03*
X296345000Y-87771000D03*
%TD*%
D13*
%TO.C,*%
X335000000Y-55000000D03*
%TD*%
D12*
%TO.C,REF\u002A\u002A*%
X263728000Y-160561000D03*
X248488000Y-160561000D03*
X263728000Y-184437000D03*
X248488000Y-184437000D03*
%TD*%
%TO.C,REF\u002A\u002A*%
X221985000Y-232770000D03*
X237225000Y-232770000D03*
X221985000Y-208894000D03*
X237225000Y-208894000D03*
%TD*%
%TO.C,REF\u002A\u002A*%
X174128000Y-281103000D03*
X189368000Y-281103000D03*
X174128000Y-257227000D03*
X189368000Y-257227000D03*
%TD*%
%TO.C,REF\u002A\u002A*%
X263728000Y-63895000D03*
X248488000Y-63895000D03*
X263728000Y-87771000D03*
X248488000Y-87771000D03*
%TD*%
D10*
%TO.C,SW22*%
X218928000Y-220832000D03*
D11*
X221468000Y-217022000D03*
X224008000Y-223372000D03*
%TD*%
D10*
%TO.C,SW24*%
X314642000Y-220832000D03*
D11*
X317182000Y-217022000D03*
X319722000Y-223372000D03*
%TD*%
D10*
%TO.C,SW6*%
X314642000Y-75833000D03*
D11*
X317182000Y-72023000D03*
X319722000Y-78373000D03*
%TD*%
D12*
%TO.C,REF\u002A\u002A*%
X317699000Y-232770000D03*
X332939000Y-232770000D03*
X317699000Y-208894000D03*
X332939000Y-208894000D03*
%TD*%
%TO.C,REF\u002A\u002A*%
X221985000Y-136104000D03*
X237225000Y-136104000D03*
X221985000Y-112228000D03*
X237225000Y-112228000D03*
%TD*%
D10*
%TO.C,SW1*%
X75357000Y-75833000D03*
D11*
X77897000Y-72023000D03*
X80437000Y-78373000D03*
%TD*%
D10*
%TO.C,SW19*%
X75357000Y-220832000D03*
D11*
X77897000Y-217022000D03*
X80437000Y-223372000D03*
%TD*%
D12*
%TO.C,REF\u002A\u002A*%
X72300000Y-208894000D03*
X57060000Y-208894000D03*
X72300000Y-232770000D03*
X57060000Y-232770000D03*
%TD*%
%TO.C,REF\u002A\u002A*%
X168014000Y-257227000D03*
X152774000Y-257227000D03*
X168014000Y-281103000D03*
X152774000Y-281103000D03*
%TD*%
%TO.C,REF\u002A\u002A*%
X215871000Y-112228000D03*
X200631000Y-112228000D03*
X215871000Y-136104000D03*
X200631000Y-136104000D03*
%TD*%
D10*
%TO.C,SW2*%
X123214000Y-75833000D03*
D11*
X125754000Y-72023000D03*
X128294000Y-78373000D03*
%TD*%
D12*
%TO.C,REF\u002A\u002A*%
X126271000Y-232770000D03*
X141511000Y-232770000D03*
X126271000Y-208894000D03*
X141511000Y-208894000D03*
%TD*%
%TO.C,REF\u002A\u002A*%
X174128000Y-87771000D03*
X189368000Y-87771000D03*
X174128000Y-63895000D03*
X189368000Y-63895000D03*
%TD*%
%TO.C,REF\u002A\u002A*%
X215871000Y-160561000D03*
X200631000Y-160561000D03*
X215871000Y-184437000D03*
X200631000Y-184437000D03*
%TD*%
D10*
%TO.C,SW21*%
X171071000Y-220832000D03*
D11*
X173611000Y-217022000D03*
X176151000Y-223372000D03*
%TD*%
D12*
%TO.C,REF\u002A\u002A*%
X72300000Y-257227000D03*
X57060000Y-257227000D03*
X72300000Y-281103000D03*
X57060000Y-281103000D03*
%TD*%
D10*
%TO.C,SW28*%
X218928000Y-269165000D03*
D11*
X221468000Y-265355000D03*
X224008000Y-271705000D03*
%TD*%
D12*
%TO.C,REF\u002A\u002A*%
X168014000Y-112228000D03*
X152774000Y-112228000D03*
X168014000Y-136104000D03*
X152774000Y-136104000D03*
%TD*%
%TO.C,REF\u002A\u002A*%
X311585000Y-160561000D03*
X296345000Y-160561000D03*
X311585000Y-184437000D03*
X296345000Y-184437000D03*
%TD*%
%TO.C,REF\u002A\u002A*%
X72300000Y-112228000D03*
X57060000Y-112228000D03*
X72300000Y-136104000D03*
X57060000Y-136104000D03*
%TD*%
D10*
%TO.C,SW9*%
X171071000Y-124166000D03*
D11*
X173611000Y-120356000D03*
X176151000Y-126706000D03*
%TD*%
D12*
%TO.C,REF\u002A\u002A*%
X269842000Y-136104000D03*
X285082000Y-136104000D03*
X269842000Y-112228000D03*
X285082000Y-112228000D03*
%TD*%
%TO.C,REF\u002A\u002A*%
X120157000Y-257227000D03*
X104917000Y-257227000D03*
X120157000Y-281103000D03*
X104917000Y-281103000D03*
%TD*%
%TO.C,REF\u002A\u002A*%
X120157000Y-160561000D03*
X104917000Y-160561000D03*
X120157000Y-184437000D03*
X104917000Y-184437000D03*
%TD*%
%TO.C,REF\u002A\u002A*%
X317699000Y-184437000D03*
X332939000Y-184437000D03*
X317699000Y-160561000D03*
X332939000Y-160561000D03*
%TD*%
%TO.C,REF\u002A\u002A*%
X263728000Y-112228000D03*
X248488000Y-112228000D03*
X263728000Y-136104000D03*
X248488000Y-136104000D03*
%TD*%
%TO.C,REF\u002A\u002A*%
X120157000Y-63895000D03*
X104917000Y-63895000D03*
X120157000Y-87771000D03*
X104917000Y-87771000D03*
%TD*%
%TO.C,REF\u002A\u002A*%
X174128000Y-136104000D03*
X189368000Y-136104000D03*
X174128000Y-112228000D03*
X189368000Y-112228000D03*
%TD*%
%TO.C,REF\u002A\u002A*%
X221985000Y-184437000D03*
X237225000Y-184437000D03*
X221985000Y-160561000D03*
X237225000Y-160561000D03*
%TD*%
%TO.C,REF\u002A\u002A*%
X126271000Y-281103000D03*
X141511000Y-281103000D03*
X126271000Y-257227000D03*
X141511000Y-257227000D03*
%TD*%
D10*
%TO.C,SW15*%
X171071000Y-172499000D03*
D11*
X173611000Y-168689000D03*
X176151000Y-175039000D03*
%TD*%
D10*
%TO.C,SW10*%
X218928000Y-124166000D03*
D11*
X221468000Y-120356000D03*
X224008000Y-126706000D03*
%TD*%
D13*
%TO.C,*%
X335000000Y-290000000D03*
%TD*%
D12*
%TO.C,REF\u002A\u002A*%
X78414000Y-232770000D03*
X93654000Y-232770000D03*
X78414000Y-208894000D03*
X93654000Y-208894000D03*
%TD*%
D10*
%TO.C,SW23*%
X266785000Y-220832000D03*
D11*
X269325000Y-217022000D03*
X271865000Y-223372000D03*
%TD*%
D10*
%TO.C,SW16*%
X218928000Y-172499000D03*
D11*
X221468000Y-168689000D03*
X224008000Y-175039000D03*
%TD*%
D14*
%TO.C,U1*%
X335626900Y-252966000D03*
X333086900Y-252966000D03*
X330546900Y-252966000D03*
X328006900Y-252966000D03*
X325466900Y-252966000D03*
X322926900Y-252966000D03*
X320386900Y-252966000D03*
X320386900Y-236801000D03*
X322926900Y-236801000D03*
X325466900Y-236801000D03*
X328006900Y-236801000D03*
X330546900Y-236801000D03*
X333086900Y-236801000D03*
X335626900Y-236801000D03*
D15*
X328320400Y-240411000D03*
X330225400Y-240411000D03*
D16*
X318770000Y-248666000D03*
X318770000Y-250571000D03*
D17*
X336575400Y-243586000D03*
X336575400Y-246126000D03*
X334035400Y-243586000D03*
X334035400Y-246126000D03*
%TD*%
D12*
%TO.C,REF\u002A\u002A*%
X78414000Y-281103000D03*
X93654000Y-281103000D03*
X78414000Y-257227000D03*
X93654000Y-257227000D03*
%TD*%
%TO.C,REF\u002A\u002A*%
X221985000Y-87771000D03*
X237225000Y-87771000D03*
X221985000Y-63895000D03*
X237225000Y-63895000D03*
%TD*%
%TO.C,REF\u002A\u002A*%
X72300000Y-160561000D03*
X57060000Y-160561000D03*
X72300000Y-184437000D03*
X57060000Y-184437000D03*
%TD*%
%TO.C,REF\u002A\u002A*%
X317699000Y-281103000D03*
X332939000Y-281103000D03*
X317699000Y-257227000D03*
X332939000Y-257227000D03*
%TD*%
M02*
